SplineFontDB: 3.0
FontName: Hammersmith
FullName: Hammersmith
FamilyName: Hammersmith
Weight: Book
Copyright: Copyright (c) 2011, Sorkin Type Co. (www.sorkintype.com)\nwith Reserved Font Name "Hammersmith".\n\nThis Font Software is licensed under the SIL Open Font License,\nVersion 1.1. This license is available with a FAQ at:\nhttp://scripts.sil.org/OFL
Version: 1.002
ItalicAngle: 0
UnderlinePosition: -50
UnderlineWidth: 50
Ascent: 1638
Descent: 410
LayerCount: 2
Layer: 0 1 "Back"  1
Layer: 1 1 "Fore"  0
XUID: [1021 631 1661839179 496525]
FSType: 0
OS2Version: 3
OS2_WeightWidthSlopeOnly: 0
OS2_UseTypoMetrics: 1
CreationTime: 1308166620
ModificationTime: 1308265175
PfmFamily: 17
TTFWeight: 400
TTFWidth: 5
LineGap: 0
VLineGap: 0
Panose: 2 1 7 3 3 5 1 6 5 4
OS2TypoAscent: 1782
OS2TypoAOffset: 0
OS2TypoDescent: -716
OS2TypoDOffset: 0
OS2TypoLinegap: 0
OS2WinAscent: 1782
OS2WinAOffset: 0
OS2WinDescent: 716
OS2WinDOffset: 0
HheadAscent: 1782
HheadAOffset: 0
HheadDescent: -716
HheadDOffset: 0
OS2SubXSize: 1434
OS2SubYSize: 1331
OS2SubXOff: 0
OS2SubYOff: 287
OS2SupXSize: 1434
OS2SupYSize: 1331
OS2SupXOff: 0
OS2SupYOff: 977
OS2StrikeYSize: 180
OS2StrikeYPos: 674
OS2Vendor: 'STC '
OS2CodePages: 20000111.40000000
OS2UnicodeRanges: 800000a7.00000002.00000000.00000000
MarkAttachClasses: 1
DEI: 91125
TtTable: prep
PUSHW_1
 511
SCANCTRL
PUSHB_1
 4
SCANTYPE
EndTTInstrs
TtTable: fpgm
PUSHW_1
 511
SCANCTRL
PUSHB_1
 4
SCANTYPE
EndTTInstrs
ShortTable: maxp 16
  1
  0
  252
  109
  5
  0
  0
  1
  0
  0
  0
  0
  0
  0
  0
  0
EndShort

StartChar: D
Encoding: 68 68 4
Width: 1300
Flags: W
LayerCount: 2
Fore
SplineSet
180 1339 m 1,0,1
 247 1347 247 1347 314 1351 c 128,-1,2
 381 1355 381 1355 444 1355 c 0,3,4
 630 1355 630 1355 773 1305 c 128,-1,5
 916 1255 916 1255 1013 1165 c 128,-1,6
 1110 1075 1110 1075 1160 951 c 128,-1,7
 1210 827 1210 827 1210 679 c 0,8,9
 1210 507 1210 507 1151.5 375.5 c 128,-1,10
 1093 244 1093 244 991.5 155 c 128,-1,11
 890 66 890 66 753.5 20.5 c 128,-1,12
 617 -25 617 -25 462 -25 c 0,13,14
 431 -25 431 -25 395.5 -23 c 128,-1,15
 360 -21 360 -21 323 -18 c 128,-1,16
 286 -15 286 -15 249.5 -10 c 128,-1,17
 213 -5 213 -5 180 1 c 1,18,-1
 180 1339 l 1,0,1
435 221 m 1,19,20
 480 215 480 215 528 215 c 0,21,22
 614 215 614 215 691.5 241 c 128,-1,23
 769 267 769 267 827 319 c 128,-1,24
 885 371 885 371 919 448.5 c 128,-1,25
 953 526 953 526 953 628 c 0,26,27
 953 740 953 740 919.5 830 c 128,-1,28
 886 920 886 920 823 983.5 c 128,-1,29
 760 1047 760 1047 670 1081 c 128,-1,30
 580 1115 580 1115 467 1115 c 0,31,32
 459 1115 459 1115 451 1115 c 128,-1,33
 443 1115 443 1115 435 1114 c 1,34,-1
 435 221 l 1,19,20
EndSplineSet
EndChar

StartChar: E
Encoding: 69 69 5
Width: 1049
Flags: W
LayerCount: 2
Fore
SplineSet
180 1337 m 1,0,1
 207 1335 207 1335 239.5 1333.5 c 128,-1,2
 272 1332 272 1332 306.5 1331.5 c 128,-1,3
 341 1331 341 1331 375.5 1330.5 c 128,-1,4
 410 1330 410 1330 442 1330 c 0,5,6
 538 1330 538 1330 661 1331.5 c 128,-1,7
 784 1333 784 1333 925 1338 c 1,8,9
 922 1314 922 1314 920 1280 c 128,-1,10
 918 1246 918 1246 916.5 1212 c 128,-1,11
 915 1178 915 1178 914.5 1148.5 c 128,-1,12
 914 1119 914 1119 914 1103 c 0,13,14
 914 1089 914 1089 916 1079 c 1,15,-1
 914 1076 l 1,16,17
 900 1080 900 1080 887 1083 c 128,-1,18
 874 1086 874 1086 857.5 1087.5 c 128,-1,19
 841 1089 841 1089 819 1090 c 128,-1,20
 797 1091 797 1091 766 1091 c 2,21,-1
 435 1091 l 1,22,-1
 435 836 l 1,23,-1
 727 836 l 2,24,25
 784 836 784 836 814 837 c 128,-1,26
 844 838 844 838 859 842 c 1,27,-1
 862 595 l 1,28,29
 833 598 833 598 801.5 599 c 128,-1,30
 770 600 770 600 738 600 c 2,31,-1
 435 600 l 1,32,-1
 435 240 l 1,33,-1
 859 240 l 2,34,35
 898 240 898 240 916.5 243.5 c 128,-1,36
 935 247 935 247 945 252 c 1,37,-1
 949 251 l 1,38,-1
 949 0 l 1,39,-1
 180 0 l 1,40,-1
 180 1337 l 1,0,1
EndSplineSet
EndChar

StartChar: H
Encoding: 72 72 6
Width: 1300
Flags: W
LayerCount: 2
Fore
SplineSet
180 1335 m 1,0,1
 204 1333 204 1333 221 1332 c 128,-1,2
 238 1331 238 1331 251.5 1330.5 c 128,-1,3
 265 1330 265 1330 277 1330 c 128,-1,4
 289 1330 289 1330 304 1330 c 0,5,6
 344 1330 344 1330 376.5 1332 c 128,-1,7
 409 1334 409 1334 435 1338 c 1,8,-1
 435 805 l 1,9,-1
 865 805 l 1,10,-1
 865 1335 l 1,11,12
 916 1332 916 1332 945 1331 c 128,-1,13
 974 1330 974 1330 994 1330 c 0,14,15
 1045 1330 1045 1330 1080 1333 c 128,-1,16
 1115 1336 1115 1336 1120 1338 c 1,17,-1
 1120 -6 l 1,18,19
 1112 -5 1112 -5 1093.5 -4 c 128,-1,20
 1075 -3 1075 -3 1050 -2 c 128,-1,21
 1025 -1 1025 -1 995 -0.5 c 128,-1,22
 965 0 965 0 935 0 c 2,23,-1
 865 0 l 1,24,-1
 865 565 l 1,25,-1
 435 565 l 1,26,-1
 435 -6 l 1,27,28
 420 -4 420 -4 368 -2 c 128,-1,29
 316 0 316 0 212 0 c 2,30,-1
 180 0 l 1,31,-1
 180 1335 l 1,0,1
EndSplineSet
EndChar

StartChar: I
Encoding: 73 73 7
Width: 627
Flags: W
LayerCount: 2
Fore
SplineSet
186 1334 m 1,0,1
 211 1333 211 1333 227.5 1332 c 128,-1,2
 244 1331 244 1331 258.5 1330.5 c 128,-1,3
 273 1330 273 1330 288.5 1330 c 128,-1,4
 304 1330 304 1330 325 1330 c 0,5,6
 358 1330 358 1330 391.5 1332 c 128,-1,7
 425 1334 425 1334 441 1338 c 1,8,-1
 441 -6 l 1,9,10
 432 -5 432 -5 415 -4 c 128,-1,11
 398 -3 398 -3 375 -2 c 128,-1,12
 352 -1 352 -1 324 -0.5 c 128,-1,13
 296 0 296 0 266 0 c 2,14,-1
 186 0 l 1,15,-1
 186 1334 l 1,0,1
EndSplineSet
EndChar

StartChar: a
Encoding: 97 97 8
Width: 1084
Flags: W
LayerCount: 2
Fore
SplineSet
75 332 m 0,0,1
 75 397 75 397 106.5 458.5 c 128,-1,2
 138 520 138 520 203 567.5 c 128,-1,3
 268 615 268 615 368.5 644 c 128,-1,4
 469 673 469 673 606 673 c 0,5,6
 615 673 615 673 624.5 672.5 c 128,-1,7
 634 672 634 672 644 672 c 2,8,-1
 696 668 l 1,9,10
 692 718 692 718 678 751 c 128,-1,11
 664 784 664 784 637.5 804 c 128,-1,12
 611 824 611 824 572.5 832 c 128,-1,13
 534 840 534 840 480 840 c 0,14,15
 440 840 440 840 394.5 832 c 128,-1,16
 349 824 349 824 306 810 c 128,-1,17
 263 796 263 796 227 778 c 128,-1,18
 191 760 191 760 170 740 c 1,19,-1
 167 742 l 1,20,-1
 137 972 l 1,21,22
 213 1014 213 1014 312.5 1039.5 c 128,-1,23
 412 1065 412 1065 518 1065 c 0,24,25
 626 1065 626 1065 706.5 1037.5 c 128,-1,26
 787 1010 787 1010 839.5 957.5 c 128,-1,27
 892 905 892 905 918 830 c 128,-1,28
 944 755 944 755 944 661 c 2,29,-1
 944 299 l 2,30,31
 944 236 944 236 964 199 c 128,-1,32
 984 162 984 162 1026 141 c 1,33,-1
 845 -25 l 1,34,35
 798 -1 798 -1 767 42 c 1,36,37
 707 13 707 13 640.5 -1 c 128,-1,38
 574 -15 574 -15 505 -15 c 0,39,40
 404 -15 404 -15 324.5 9 c 128,-1,41
 245 33 245 33 189.5 77.5 c 128,-1,42
 134 122 134 122 104.5 186.5 c 128,-1,43
 75 251 75 251 75 332 c 0,0,1
320 339 m 0,44,45
 320 276 320 276 378 236 c 128,-1,46
 436 196 436 196 548 196 c 0,47,48
 629 196 629 196 702 228 c 1,49,50
 699 258 699 258 699 290 c 2,51,-1
 699 473 l 1,52,53
 681 477 681 477 653.5 477.5 c 128,-1,54
 626 478 626 478 603 478 c 0,55,56
 526 478 526 478 472 465.5 c 128,-1,57
 418 453 418 453 384 432.5 c 128,-1,58
 350 412 350 412 335 387.5 c 128,-1,59
 320 363 320 363 320 339 c 0,44,45
EndSplineSet
EndChar

StartChar: i
Encoding: 105 105 9
Width: 560
Flags: W
LayerCount: 2
Fore
SplineSet
125 1316 m 1,0,1
 162 1376 162 1376 202.5 1427 c 128,-1,2
 243 1478 243 1478 274 1512 c 1,3,-1
 465 1361 l 1,4,5
 445 1336 445 1336 428 1314 c 128,-1,6
 411 1292 411 1292 394.5 1270 c 128,-1,7
 378 1248 378 1248 361.5 1224.5 c 128,-1,8
 345 1201 345 1201 326 1172 c 1,9,-1
 125 1316 l 1,0,1
157 1045 m 1,10,-1
 407 1045 l 1,11,-1
 407 112 l 2,12,13
 407 61 407 61 408 37 c 128,-1,14
 409 13 409 13 411 0 c 1,15,-1
 157 0 l 1,16,-1
 157 1045 l 1,10,-1
EndSplineSet
EndChar

StartChar: o
Encoding: 111 111 10
Width: 1235
Flags: W
LayerCount: 2
Fore
SplineSet
80 512 m 0,0,1
 80 627 80 627 119 727.5 c 128,-1,2
 158 828 158 828 230 903 c 128,-1,3
 302 978 302 978 404 1021.5 c 128,-1,4
 506 1065 506 1065 632 1065 c 0,5,6
 756 1065 756 1065 853.5 1024.5 c 128,-1,7
 951 984 951 984 1018 912.5 c 128,-1,8
 1085 841 1085 841 1120 743.5 c 128,-1,9
 1155 646 1155 646 1155 533 c 0,10,11
 1155 421 1155 421 1119 321.5 c 128,-1,12
 1083 222 1083 222 1014 147 c 128,-1,13
 945 72 945 72 845.5 28.5 c 128,-1,14
 746 -15 746 -15 619 -15 c 0,15,16
 486 -15 486 -15 385 28 c 128,-1,17
 284 71 284 71 216.5 144 c 128,-1,18
 149 217 149 217 114.5 312 c 128,-1,19
 80 407 80 407 80 512 c 0,0,1
329 529 m 0,20,21
 329 460 329 460 350.5 402.5 c 128,-1,22
 372 345 372 345 412 304.5 c 128,-1,23
 452 264 452 264 507.5 241.5 c 128,-1,24
 563 219 563 219 632 219 c 0,25,26
 697 219 697 219 747.5 241 c 128,-1,27
 798 263 798 263 833 303 c 128,-1,28
 868 343 868 343 886 398.5 c 128,-1,29
 904 454 904 454 904 522 c 0,30,31
 904 589 904 589 885 646.5 c 128,-1,32
 866 704 866 704 829 746 c 128,-1,33
 792 788 792 788 738.5 811.5 c 128,-1,34
 685 835 685 835 616 835 c 0,35,36
 544 835 544 835 490 808.5 c 128,-1,37
 436 782 436 782 400 739 c 128,-1,38
 364 696 364 696 346.5 641 c 128,-1,39
 329 586 329 586 329 529 c 0,20,21
EndSplineSet
EndChar

StartChar: n
Encoding: 110 110 11
Width: 1152
Flags: W
LayerCount: 2
Fore
SplineSet
140 1045 m 1,0,-1
 385 1045 l 1,1,-1
 385 956 l 1,2,3
 454 1013 454 1013 523 1039 c 128,-1,4
 592 1065 592 1065 667 1065 c 0,5,6
 749 1065 749 1065 815.5 1036 c 128,-1,7
 882 1007 882 1007 929 953.5 c 128,-1,8
 976 900 976 900 1001.5 825.5 c 128,-1,9
 1027 751 1027 751 1027 660 c 2,10,-1
 1027 415 l 2,11,12
 1027 325 1027 325 1027 262.5 c 128,-1,13
 1027 200 1027 200 1028 157.5 c 128,-1,14
 1029 115 1029 115 1030 90 c 128,-1,15
 1031 65 1031 65 1033 51 c 0,16,17
 1037 25 1037 25 1045.5 15 c 128,-1,18
 1054 5 1054 5 1060 -3 c 1,19,-1
 1058 -7 l 1,20,21
 1044 -6 1044 -6 1025 -4.5 c 128,-1,22
 1006 -3 1006 -3 983.5 -2 c 128,-1,23
 961 -1 961 -1 936.5 -0.5 c 128,-1,24
 912 0 912 0 888 0 c 0,25,26
 871 0 871 0 844.5 -0.5 c 128,-1,27
 818 -1 818 -1 782 -3 c 1,28,-1
 782 542 l 2,29,30
 782 618 782 618 769.5 673.5 c 128,-1,31
 757 729 757 729 733.5 765 c 128,-1,32
 710 801 710 801 677.5 818 c 128,-1,33
 645 835 645 835 606 835 c 0,34,35
 543 835 543 835 487 798 c 128,-1,36
 431 761 431 761 385 689 c 1,37,-1
 385 128 l 2,38,39
 385 83 385 83 386.5 54 c 128,-1,40
 388 25 388 25 393 0 c 1,41,-1
 140 0 l 1,42,-1
 140 1045 l 1,0,-1
EndSplineSet
EndChar

StartChar: d
Encoding: 100 100 12
Width: 1198
Flags: W
LayerCount: 2
Fore
SplineSet
80 509 m 0,0,1
 80 627 80 627 122 728.5 c 128,-1,2
 164 830 164 830 239.5 905 c 128,-1,3
 315 980 315 980 420.5 1022.5 c 128,-1,4
 526 1065 526 1065 652 1065 c 0,5,6
 728 1065 728 1065 803 1045 c 1,7,-1
 803 1430 l 1,8,-1
 1048 1430 l 1,9,-1
 1048 421 l 2,10,11
 1048 353 1048 353 1051.5 309 c 128,-1,12
 1055 265 1055 265 1064 235.5 c 128,-1,13
 1073 206 1073 206 1088.5 187 c 128,-1,14
 1104 168 1104 168 1128 151 c 1,15,-1
 940 -15 l 1,16,17
 886 14 886 14 856 56 c 1,18,19
 787 18 787 18 717.5 1.5 c 128,-1,20
 648 -15 648 -15 594 -15 c 0,21,22
 475 -15 475 -15 380 25 c 128,-1,23
 285 65 285 65 218 135 c 128,-1,24
 151 205 151 205 115.5 301 c 128,-1,25
 80 397 80 397 80 509 c 0,0,1
322 534 m 0,26,27
 322 465 322 465 342 407 c 128,-1,28
 362 349 362 349 402.5 306 c 128,-1,29
 443 263 443 263 503.5 239 c 128,-1,30
 564 215 564 215 644 215 c 0,31,32
 687 215 687 215 726.5 222.5 c 128,-1,33
 766 230 766 230 803 247 c 1,34,-1
 803 801 l 1,35,36
 731 830 731 830 641 830 c 0,37,38
 569 830 569 830 510.5 808 c 128,-1,39
 452 786 452 786 410 747 c 128,-1,40
 368 708 368 708 345 653.5 c 128,-1,41
 322 599 322 599 322 534 c 0,26,27
EndSplineSet
EndChar

StartChar: e
Encoding: 101 101 13
Width: 1170
Flags: W
LayerCount: 2
Fore
SplineSet
70 516 m 0,0,1
 70 631 70 631 110 731 c 128,-1,2
 150 831 150 831 223 905.5 c 128,-1,3
 296 980 296 980 399.5 1022.5 c 128,-1,4
 503 1065 503 1065 631 1065 c 0,5,6
 739 1065 739 1065 826 1027.5 c 128,-1,7
 913 990 913 990 973.5 924.5 c 128,-1,8
 1034 859 1034 859 1067 771 c 128,-1,9
 1100 683 1100 683 1100 582 c 0,10,11
 1100 544 1100 544 1096.5 515 c 128,-1,12
 1093 486 1093 486 1088 474 c 1,13,14
 1063 467 1063 467 1022.5 461.5 c 128,-1,15
 982 456 982 456 929.5 452.5 c 128,-1,16
 877 449 877 449 814 447.5 c 128,-1,17
 751 446 751 446 681 446 c 0,18,19
 646 446 646 446 598.5 446 c 128,-1,20
 551 446 551 446 502.5 446.5 c 128,-1,21
 454 447 454 447 408.5 447 c 128,-1,22
 363 447 363 447 332 447 c 1,23,24
 358 338 358 338 451 279 c 128,-1,25
 544 220 544 220 697 220 c 0,26,27
 755 220 755 220 806 230 c 128,-1,28
 857 240 857 240 898 255 c 128,-1,29
 939 270 939 270 969 286.5 c 128,-1,30
 999 303 999 303 1014 316 c 1,31,32
 1012 267 1012 267 1009 208 c 128,-1,33
 1006 149 1006 149 999 63 c 1,34,35
 974 46 974 46 934.5 32 c 128,-1,36
 895 18 895 18 848.5 7.5 c 128,-1,37
 802 -3 802 -3 752.5 -9 c 128,-1,38
 703 -15 703 -15 657 -15 c 0,39,40
 531 -15 531 -15 423.5 24 c 128,-1,41
 316 63 316 63 237.5 133 c 128,-1,42
 159 203 159 203 114.5 300.5 c 128,-1,43
 70 398 70 398 70 516 c 0,0,1
342 657 m 1,44,45
 366 655 366 655 400 654 c 128,-1,46
 434 653 434 653 470 653 c 128,-1,47
 506 653 506 653 539 653 c 128,-1,48
 572 653 572 653 593 653 c 0,49,50
 616 653 616 653 647.5 653.5 c 128,-1,51
 679 654 679 654 713 654.5 c 128,-1,52
 747 655 747 655 779.5 656.5 c 128,-1,53
 812 658 812 658 838 660 c 1,54,55
 820 753 820 753 763.5 804 c 128,-1,56
 707 855 707 855 600 855 c 0,57,58
 553 855 553 855 512 840.5 c 128,-1,59
 471 826 471 826 438 800 c 128,-1,60
 405 774 405 774 380.5 737.5 c 128,-1,61
 356 701 356 701 342 657 c 1,44,45
EndSplineSet
EndChar

StartChar: h
Encoding: 104 104 14
Width: 1136
Flags: W
LayerCount: 2
Fore
SplineSet
140 1430 m 1,0,-1
 385 1430 l 1,1,-1
 385 967 l 1,2,3
 418 992 418 992 449.5 1010.5 c 128,-1,4
 481 1029 481 1029 513 1041 c 128,-1,5
 545 1053 545 1053 579 1059 c 128,-1,6
 613 1065 613 1065 651 1065 c 0,7,8
 735 1065 735 1065 803.5 1036 c 128,-1,9
 872 1007 872 1007 920.5 953.5 c 128,-1,10
 969 900 969 900 995 825.5 c 128,-1,11
 1021 751 1021 751 1021 660 c 2,12,-1
 1021 415 l 2,13,14
 1021 325 1021 325 1021 262.5 c 128,-1,15
 1021 200 1021 200 1022 157.5 c 128,-1,16
 1023 115 1023 115 1024 90 c 128,-1,17
 1025 65 1025 65 1027 51 c 0,18,19
 1031 25 1031 25 1039.5 15 c 128,-1,20
 1048 5 1048 5 1054 -3 c 1,21,-1
 1052 -7 l 1,22,23
 1038 -6 1038 -6 1019 -4.5 c 128,-1,24
 1000 -3 1000 -3 977.5 -2 c 128,-1,25
 955 -1 955 -1 930.5 -0.5 c 128,-1,26
 906 0 906 0 882 0 c 0,27,28
 865 0 865 0 838.5 -0.5 c 128,-1,29
 812 -1 812 -1 776 -3 c 1,30,-1
 776 576 l 2,31,32
 776 652 776 652 759 701.5 c 128,-1,33
 742 751 742 751 715.5 779.5 c 128,-1,34
 689 808 689 808 656 819 c 128,-1,35
 623 830 623 830 590 830 c 0,36,37
 532 830 532 830 480 795.5 c 128,-1,38
 428 761 428 761 385 695 c 1,39,-1
 385 112 l 2,40,41
 385 61 385 61 386 37 c 128,-1,42
 387 13 387 13 389 0 c 1,43,-1
 140 0 l 1,44,-1
 140 1430 l 1,0,-1
EndSplineSet
EndChar

StartChar: s
Encoding: 115 115 15
Width: 1083
Flags: W
LayerCount: 2
Fore
SplineSet
90 88 m 1,0,1
 93 135 93 135 98 184 c 128,-1,2
 103 233 103 233 108 272.5 c 128,-1,3
 113 312 113 312 116 337.5 c 128,-1,4
 119 363 119 363 119 363 c 2,5,6
 120 363 120 363 126 357 c 0,7,8
 150 329 150 329 194.5 304 c 128,-1,9
 239 279 239 279 296.5 260 c 128,-1,10
 354 241 354 241 420.5 230 c 128,-1,11
 487 219 487 219 556 219 c 0,12,13
 613 219 613 219 650 227 c 128,-1,14
 687 235 687 235 709 247.5 c 128,-1,15
 731 260 731 260 740 276 c 128,-1,16
 749 292 749 292 749 307 c 0,17,18
 749 324 749 324 737.5 340 c 128,-1,19
 726 356 726 356 699 370 c 128,-1,20
 672 384 672 384 626.5 396 c 128,-1,21
 581 408 581 408 513 417 c 0,22,23
 405 431 405 431 328.5 459.5 c 128,-1,24
 252 488 252 488 204 527.5 c 128,-1,25
 156 567 156 567 133.5 616.5 c 128,-1,26
 111 666 111 666 111 722 c 0,27,28
 111 797 111 797 144.5 860 c 128,-1,29
 178 923 178 923 239 968.5 c 128,-1,30
 300 1014 300 1014 386.5 1039.5 c 128,-1,31
 473 1065 473 1065 580 1065 c 0,32,33
 692 1065 692 1065 785 1033 c 128,-1,34
 878 1001 878 1001 945 947 c 1,35,36
 931 893 931 893 913.5 838 c 128,-1,37
 896 783 896 783 873 722 c 0,38,39
 871 714 871 714 869 714 c 256,40,41
 867 714 867 714 862.5 722 c 128,-1,42
 858 730 858 730 854 735 c 0,43,44
 833 758 833 758 801.5 777.5 c 128,-1,45
 770 797 770 797 732 810.5 c 128,-1,46
 694 824 694 824 651 831.5 c 128,-1,47
 608 839 608 839 564 839 c 0,48,49
 460 839 460 839 411 810.5 c 128,-1,50
 362 782 362 782 362 746 c 0,51,52
 362 730 362 730 373.5 715 c 128,-1,53
 385 700 385 700 416 686 c 128,-1,54
 447 672 447 672 501.5 659 c 128,-1,55
 556 646 556 646 642 634 c 0,56,57
 740 620 740 620 808 594 c 128,-1,58
 876 568 876 568 918 530.5 c 128,-1,59
 960 493 960 493 978.5 444.5 c 128,-1,60
 997 396 997 396 997 337 c 0,61,62
 997 261 997 261 965 196.5 c 128,-1,63
 933 132 933 132 873 85 c 128,-1,64
 813 38 813 38 727.5 11.5 c 128,-1,65
 642 -15 642 -15 535 -15 c 0,66,67
 396 -15 396 -15 283.5 8 c 128,-1,68
 171 31 171 31 90 88 c 1,0,1
EndSplineSet
EndChar

StartChar: O
Encoding: 79 79 16
Width: 1565
Flags: W
LayerCount: 2
Fore
SplineSet
100 637 m 0,0,1
 100 780 100 780 149.5 910 c 128,-1,2
 199 1040 199 1040 290.5 1139 c 128,-1,3
 382 1238 382 1238 511 1296.5 c 128,-1,4
 640 1355 640 1355 800 1355 c 0,5,6
 931 1355 931 1355 1051.5 1311 c 128,-1,7
 1172 1267 1172 1267 1264 1181 c 128,-1,8
 1356 1095 1356 1095 1410.5 969 c 128,-1,9
 1465 843 1465 843 1465 679 c 0,10,11
 1465 574 1465 574 1439.5 481 c 128,-1,12
 1414 388 1414 388 1367.5 310 c 128,-1,13
 1321 232 1321 232 1257 169.5 c 128,-1,14
 1193 107 1193 107 1116 64 c 128,-1,15
 1039 21 1039 21 952 -2 c 128,-1,16
 865 -25 865 -25 773 -25 c 0,17,18
 632 -25 632 -25 509.5 23 c 128,-1,19
 387 71 387 71 296 158 c 128,-1,20
 205 245 205 245 152.5 367 c 128,-1,21
 100 489 100 489 100 637 c 0,0,1
358 648 m 0,22,23
 358 555 358 555 392.5 475.5 c 128,-1,24
 427 396 427 396 486 338 c 128,-1,25
 545 280 545 280 625 247.5 c 128,-1,26
 705 215 705 215 796 215 c 0,27,28
 882 215 882 215 957.5 245.5 c 128,-1,29
 1033 276 1033 276 1088.5 333.5 c 128,-1,30
 1144 391 1144 391 1176 473 c 128,-1,31
 1208 555 1208 555 1208 657 c 0,32,33
 1208 747 1208 747 1179 829 c 128,-1,34
 1150 911 1150 911 1094.5 973.5 c 128,-1,35
 1039 1036 1039 1036 959.5 1073 c 128,-1,36
 880 1110 880 1110 780 1110 c 0,37,38
 682 1110 682 1110 604 1072.5 c 128,-1,39
 526 1035 526 1035 471 971.5 c 128,-1,40
 416 908 416 908 387 824 c 128,-1,41
 358 740 358 740 358 648 c 0,22,23
EndSplineSet
EndChar

StartChar: exclam
Encoding: 33 33 17
Width: 530
Flags: W
LayerCount: 2
Fore
SplineSet
134 1358 m 1,0,1
 159 1357 159 1357 175.5 1356 c 128,-1,2
 192 1355 192 1355 204 1354.5 c 128,-1,3
 216 1354 216 1354 225.5 1354 c 128,-1,4
 235 1354 235 1354 247 1354 c 0,5,6
 301 1354 301 1354 340 1356 c 128,-1,7
 379 1358 379 1358 395 1362 c 1,8,-1
 391 374 l 1,9,10
 382 375 382 375 365 376 c 128,-1,11
 348 377 348 377 325 378 c 128,-1,12
 302 379 302 379 274 379.5 c 128,-1,13
 246 380 246 380 216 380 c 2,14,-1
 136 380 l 1,15,-1
 134 1358 l 1,0,1
132 0 m 1,16,17
 136 31 136 31 138 62.5 c 128,-1,18
 140 94 140 94 140 126 c 0,19,20
 140 155 140 155 138 188 c 128,-1,21
 136 221 136 221 134 240 c 1,22,-1
 397 240 l 1,23,24
 395 215 395 215 394 178.5 c 128,-1,25
 393 142 393 142 393 114 c 0,26,27
 393 82 393 82 393.5 54 c 128,-1,28
 394 26 394 26 397 0 c 1,29,-1
 132 0 l 1,16,17
EndSplineSet
EndChar

StartChar: Q
Encoding: 81 81 18
Width: 1565
Flags: W
LayerCount: 2
Fore
SplineSet
100 637 m 0,0,1
 100 780 100 780 149.5 910 c 128,-1,2
 199 1040 199 1040 290.5 1139 c 128,-1,3
 382 1238 382 1238 511 1296.5 c 128,-1,4
 640 1355 640 1355 800 1355 c 0,5,6
 935 1355 935 1355 1056 1309.5 c 128,-1,7
 1177 1264 1177 1264 1267.5 1177 c 128,-1,8
 1358 1090 1358 1090 1411.5 964.5 c 128,-1,9
 1465 839 1465 839 1465 679 c 0,10,11
 1465 587 1465 587 1445 504.5 c 128,-1,12
 1425 422 1425 422 1389 350.5 c 128,-1,13
 1353 279 1353 279 1302.5 219 c 128,-1,14
 1252 159 1252 159 1191 113 c 1,15,16
 1236 92 1236 92 1267.5 77.5 c 128,-1,17
 1299 63 1299 63 1322.5 54.5 c 128,-1,18
 1346 46 1346 46 1365 42 c 128,-1,19
 1384 38 1384 38 1405 38 c 0,20,21
 1420 38 1420 38 1434 45.5 c 128,-1,22
 1448 53 1448 53 1459 71 c 1,23,-1
 1463 68 l 1,24,-1
 1387 -143 l 2,25,26
 1378 -167 1378 -167 1366.5 -176.5 c 128,-1,27
 1355 -186 1355 -186 1334 -186 c 0,28,29
 1316 -186 1316 -186 1295.5 -182.5 c 128,-1,30
 1275 -179 1275 -179 1249 -171 c 128,-1,31
 1223 -163 1223 -163 1191 -150.5 c 128,-1,32
 1159 -138 1159 -138 1117 -119 c 0,33,34
 1064 -95 1064 -95 1021 -79 c 128,-1,35
 978 -63 978 -63 938 -52.5 c 128,-1,36
 898 -42 898 -42 858.5 -35.5 c 128,-1,37
 819 -29 819 -29 773 -25 c 1,38,39
 632 -25 632 -25 509.5 23 c 128,-1,40
 387 71 387 71 296 158 c 128,-1,41
 205 245 205 245 152.5 367 c 128,-1,42
 100 489 100 489 100 637 c 0,0,1
358 648 m 0,43,44
 358 555 358 555 392.5 475.5 c 128,-1,45
 427 396 427 396 486 338 c 128,-1,46
 545 280 545 280 625 247.5 c 128,-1,47
 705 215 705 215 796 215 c 0,48,49
 882 215 882 215 957.5 245.5 c 128,-1,50
 1033 276 1033 276 1088.5 333.5 c 128,-1,51
 1144 391 1144 391 1176 473 c 128,-1,52
 1208 555 1208 555 1208 657 c 0,53,54
 1208 747 1208 747 1179 829 c 128,-1,55
 1150 911 1150 911 1094.5 973.5 c 128,-1,56
 1039 1036 1039 1036 959.5 1073 c 128,-1,57
 880 1110 880 1110 780 1110 c 0,58,59
 682 1110 682 1110 604 1072.5 c 128,-1,60
 526 1035 526 1035 471 971.5 c 128,-1,61
 416 908 416 908 387 824 c 128,-1,62
 358 740 358 740 358 648 c 0,43,44
EndSplineSet
EndChar

StartChar: P
Encoding: 80 80 19
Width: 1110
Flags: W
LayerCount: 2
Fore
SplineSet
180 1337 m 1,0,1
 303 1355 303 1355 425 1355 c 0,2,3
 560 1355 560 1355 670 1320 c 128,-1,4
 780 1285 780 1285 858 1219.5 c 128,-1,5
 936 1154 936 1154 978 1059.5 c 128,-1,6
 1020 965 1020 965 1020 846 c 0,7,8
 1020 768 1020 768 997.5 700 c 128,-1,9
 975 632 975 632 936 576.5 c 128,-1,10
 897 521 897 521 844.5 477.5 c 128,-1,11
 792 434 792 434 731 404 c 128,-1,12
 670 374 670 374 604 358.5 c 128,-1,13
 538 343 538 343 472 343 c 0,14,15
 463 343 463 343 454 343.5 c 128,-1,16
 445 344 445 344 435 345 c 1,17,-1
 435 0 l 1,18,-1
 180 0 l 1,19,-1
 180 1337 l 1,0,1
435 584 m 1,20,21
 441 582 441 582 446.5 582 c 128,-1,22
 452 582 452 582 459 582 c 0,23,24
 517 582 517 582 572 597 c 128,-1,25
 627 612 627 612 669.5 642.5 c 128,-1,26
 712 673 712 673 738 719 c 128,-1,27
 764 765 764 765 764 828 c 256,28,29
 764 891 764 891 742.5 943.5 c 128,-1,30
 721 996 721 996 683 1034 c 128,-1,31
 645 1072 645 1072 592 1093 c 128,-1,32
 539 1114 539 1114 475 1114 c 0,33,34
 464 1114 464 1114 454 1114 c 128,-1,35
 444 1114 444 1114 435 1113 c 1,36,-1
 435 584 l 1,20,21
EndSplineSet
EndChar

StartChar: R
Encoding: 82 82 20
Width: 1182
Flags: W
LayerCount: 2
Fore
SplineSet
180 1337 m 1,0,1
 242 1346 242 1346 306.5 1350.5 c 128,-1,2
 371 1355 371 1355 454 1355 c 0,3,4
 592 1355 592 1355 700.5 1323.5 c 128,-1,5
 809 1292 809 1292 883 1235.5 c 128,-1,6
 957 1179 957 1179 996 1100 c 128,-1,7
 1035 1021 1035 1021 1035 926 c 0,8,9
 1035 829 1035 829 991 748 c 128,-1,10
 947 667 947 667 862 610 c 1,11,-1
 1070 156 l 2,12,13
 1102 85 1102 85 1123 48.5 c 128,-1,14
 1144 12 1144 12 1162 -2 c 1,15,-1
 1157 -7 l 1,16,17
 1132 -3 1132 -3 1108 -1.5 c 128,-1,18
 1084 0 1084 0 1060 0 c 0,19,20
 1022 0 1022 0 973.5 -1.5 c 128,-1,21
 925 -3 925 -3 862 -8 c 1,22,-1
 634 525 l 1,23,24
 604 520 604 520 572.5 517.5 c 128,-1,25
 541 515 541 515 507 515 c 0,26,27
 490 515 490 515 471.5 516 c 128,-1,28
 453 517 453 517 435 519 c 1,29,-1
 435 0 l 1,30,-1
 180 0 l 1,31,-1
 180 1337 l 1,0,1
435 750 m 1,32,33
 462 745 462 745 487 744.5 c 128,-1,34
 512 744 512 744 534 744 c 0,35,36
 586 744 586 744 631 758 c 128,-1,37
 676 772 676 772 709 796 c 128,-1,38
 742 820 742 820 761 852 c 128,-1,39
 780 884 780 884 780 921 c 0,40,41
 780 960 780 960 760 995.5 c 128,-1,42
 740 1031 740 1031 701.5 1057.5 c 128,-1,43
 663 1084 663 1084 606 1099.5 c 128,-1,44
 549 1115 549 1115 475 1115 c 0,45,46
 464 1115 464 1115 454 1115 c 128,-1,47
 444 1115 444 1115 435 1114 c 1,48,-1
 435 750 l 1,32,33
EndSplineSet
EndChar

StartChar: T
Encoding: 84 84 21
Width: 1100
Flags: W
LayerCount: 2
Fore
SplineSet
420 1106 m 1,0,-1
 192 1106 l 2,1,2
 159 1106 159 1106 138 1105 c 128,-1,3
 117 1104 117 1104 103.5 1101 c 128,-1,4
 90 1098 90 1098 81 1093 c 128,-1,5
 72 1088 72 1088 63 1081 c 1,6,-1
 60 1082 l 1,7,-1
 60 1338 l 1,8,-1
 63 1341 l 1,9,10
 72 1338 72 1338 84 1336 c 128,-1,11
 96 1334 96 1334 116 1332.5 c 128,-1,12
 136 1331 136 1331 166 1330.5 c 128,-1,13
 196 1330 196 1330 241 1330 c 2,14,-1
 908 1330 l 2,15,16
 941 1330 941 1330 962 1331 c 128,-1,17
 983 1332 983 1332 996.5 1335 c 128,-1,18
 1010 1338 1010 1338 1019 1343 c 128,-1,19
 1028 1348 1028 1348 1037 1355 c 1,20,-1
 1040 1354 l 1,21,-1
 1040 1098 l 1,22,-1
 1037 1095 l 1,23,24
 1028 1098 1028 1098 1016 1100 c 128,-1,25
 1004 1102 1004 1102 984 1103.5 c 128,-1,26
 964 1105 964 1105 934 1105.5 c 128,-1,27
 904 1106 904 1106 859 1106 c 2,28,-1
 679 1106 l 1,29,-1
 679 -6 l 1,30,31
 663 -5 663 -5 610 -2.5 c 128,-1,32
 557 0 557 0 452 0 c 2,33,-1
 420 0 l 1,34,-1
 420 1106 l 1,0,-1
EndSplineSet
EndChar

StartChar: U
Encoding: 85 85 22
Width: 1321
Flags: W
LayerCount: 2
Fore
SplineSet
180 1335 m 1,0,1
 231 1332 231 1332 257 1331 c 128,-1,2
 283 1330 283 1330 297 1330 c 0,3,4
 330 1330 330 1330 351.5 1330.5 c 128,-1,5
 373 1331 373 1331 388 1332 c 128,-1,6
 403 1333 403 1333 414.5 1334.5 c 128,-1,7
 426 1336 426 1336 438 1338 c 1,8,-1
 438 475 l 2,9,10
 438 409 438 409 456 360 c 128,-1,11
 474 311 474 311 506 279 c 128,-1,12
 538 247 538 247 581 231 c 128,-1,13
 624 215 624 215 675 215 c 0,14,15
 720 215 720 215 758.5 231 c 128,-1,16
 797 247 797 247 824.5 283.5 c 128,-1,17
 852 320 852 320 867.5 379 c 128,-1,18
 883 438 883 438 883 525 c 2,19,-1
 883 1335 l 1,20,21
 907 1333 907 1333 925.5 1332 c 128,-1,22
 944 1331 944 1331 960.5 1330.5 c 128,-1,23
 977 1330 977 1330 993.5 1330 c 128,-1,24
 1010 1330 1010 1330 1031 1330 c 0,25,26
 1069 1330 1069 1330 1093.5 1332 c 128,-1,27
 1118 1334 1118 1334 1141 1338 c 1,28,-1
 1141 511 l 2,29,30
 1141 384 1141 384 1107 284.5 c 128,-1,31
 1073 185 1073 185 1012 116 c 128,-1,32
 951 47 951 47 865.5 11 c 128,-1,33
 780 -25 780 -25 678 -25 c 0,34,35
 570 -25 570 -25 478.5 4.5 c 128,-1,36
 387 34 387 34 321 96.5 c 128,-1,37
 255 159 255 159 217.5 256 c 128,-1,38
 180 353 180 353 180 488 c 2,39,-1
 180 1335 l 1,0,1
EndSplineSet
EndChar

StartChar: F
Encoding: 70 70 23
Width: 1025
Flags: W
LayerCount: 2
Fore
SplineSet
180 1337 m 1,0,1
 207 1335 207 1335 239.5 1333.5 c 128,-1,2
 272 1332 272 1332 306.5 1331.5 c 128,-1,3
 341 1331 341 1331 375.5 1330.5 c 128,-1,4
 410 1330 410 1330 442 1330 c 0,5,6
 538 1330 538 1330 661 1331.5 c 128,-1,7
 784 1333 784 1333 925 1338 c 1,8,9
 922 1314 922 1314 920 1280 c 128,-1,10
 918 1246 918 1246 916.5 1212 c 128,-1,11
 915 1178 915 1178 914.5 1148.5 c 128,-1,12
 914 1119 914 1119 914 1103 c 0,13,14
 914 1089 914 1089 916 1079 c 1,15,-1
 914 1076 l 1,16,17
 900 1080 900 1080 887 1083 c 128,-1,18
 874 1086 874 1086 857.5 1087.5 c 128,-1,19
 841 1089 841 1089 819 1090 c 128,-1,20
 797 1091 797 1091 766 1091 c 2,21,-1
 435 1091 l 1,22,-1
 435 816 l 1,23,-1
 727 816 l 2,24,25
 784 816 784 816 814 817 c 128,-1,26
 844 818 844 818 859 822 c 1,27,-1
 862 575 l 1,28,29
 833 578 833 578 801.5 579 c 128,-1,30
 770 580 770 580 738 580 c 2,31,-1
 435 580 l 1,32,-1
 435 0 l 1,33,-1
 180 0 l 1,34,-1
 180 1337 l 1,0,1
EndSplineSet
EndChar

StartChar: V
Encoding: 86 86 24
Width: 1124
Flags: W
LayerCount: 2
Fore
SplineSet
442 0 m 1,0,1
 446 7 446 7 446 17 c 0,2,3
 446 25 446 25 444.5 35 c 128,-1,4
 443 45 443 45 435.5 71 c 128,-1,5
 428 97 428 97 413.5 146 c 128,-1,6
 399 195 399 195 372 280 c 2,7,-1
 40 1334 l 1,8,9
 71 1332 71 1332 108.5 1331 c 128,-1,10
 146 1330 146 1330 205 1330 c 0,11,12
 245 1330 245 1330 278 1332.5 c 128,-1,13
 311 1335 311 1335 321 1338 c 1,14,-1
 583 440 l 1,15,-1
 806 1334 l 1,16,17
 836 1332 836 1332 882.5 1331 c 128,-1,18
 929 1330 929 1330 989 1330 c 0,19,20
 1031 1330 1031 1330 1052.5 1332 c 128,-1,21
 1074 1334 1074 1334 1084 1338 c 1,22,-1
 769 283 l 2,23,24
 747 209 747 209 734 165 c 128,-1,25
 721 121 721 121 714.5 93.5 c 128,-1,26
 708 66 708 66 706.5 49.5 c 128,-1,27
 705 33 705 33 705 15 c 0,28,29
 705 6 705 6 709 -1 c 1,30,-1
 707 -4 l 1,31,32
 696 -3 696 -3 675 -2 c 128,-1,33
 654 -1 654 -1 628 -0.5 c 128,-1,34
 602 0 602 0 573 0 c 128,-1,35
 544 0 544 0 517 0 c 0,36,37
 497 0 497 0 477 0 c 128,-1,38
 457 0 457 0 443 -2 c 1,39,-1
 442 0 l 1,0,1
EndSplineSet
EndChar

StartChar: W
Encoding: 87 87 25
Width: 1674
Flags: W
LayerCount: 2
Fore
SplineSet
392 0 m 1,0,1
 396 7 396 7 396 17 c 0,2,3
 396 25 396 25 394 35 c 128,-1,4
 392 45 392 45 384.5 71 c 128,-1,5
 377 97 377 97 362 145.5 c 128,-1,6
 347 194 347 194 321 280 c 1,7,-1
 20 1334 l 1,8,9
 52 1332 52 1332 90 1331 c 128,-1,10
 128 1330 128 1330 188 1330 c 0,11,12
 228 1330 228 1330 255.5 1332.5 c 128,-1,13
 283 1335 283 1335 293 1338 c 1,14,-1
 523 435 l 1,15,-1
 739 1334 l 1,16,17
 754 1333 754 1333 765.5 1332 c 128,-1,18
 777 1331 777 1331 788 1330.5 c 128,-1,19
 799 1330 799 1330 812.5 1330 c 128,-1,20
 826 1330 826 1330 844 1330 c 0,21,22
 879 1330 879 1330 910 1331.5 c 128,-1,23
 941 1333 941 1333 974 1338 c 1,24,-1
 1179 435 l 1,25,-1
 1389 1334 l 1,26,27
 1419 1332 1419 1332 1459 1331 c 128,-1,28
 1499 1330 1499 1330 1559 1330 c 0,29,30
 1601 1330 1601 1330 1622.5 1332 c 128,-1,31
 1644 1334 1644 1334 1654 1338 c 1,32,-1
 1366 283 l 1,33,34
 1344 210 1344 210 1331.5 165.5 c 128,-1,35
 1319 121 1319 121 1313 93.5 c 128,-1,36
 1307 66 1307 66 1306 49.5 c 128,-1,37
 1305 33 1305 33 1305 15 c 0,38,39
 1305 6 1305 6 1309 -1 c 1,40,-1
 1307 -4 l 1,41,42
 1296 -3 1296 -3 1271 -2 c 128,-1,43
 1246 -1 1246 -1 1216 -0.5 c 128,-1,44
 1186 0 1186 0 1154.5 0 c 128,-1,45
 1123 0 1123 0 1100 0 c 0,46,47
 1080 0 1080 0 1060 0 c 128,-1,48
 1040 0 1040 0 1026 -2 c 1,49,-1
 1025 0 l 1,50,51
 1029 7 1029 7 1029 17 c 0,52,53
 1029 24 1029 24 1028 33.5 c 128,-1,54
 1027 43 1027 43 1022.5 68.5 c 128,-1,55
 1018 94 1018 94 1008.5 143.5 c 128,-1,56
 999 193 999 193 981 280 c 1,57,-1
 846 880 l 1,58,-1
 709 283 l 1,59,60
 693 208 693 208 684 163.5 c 128,-1,61
 675 119 675 119 671 92 c 128,-1,62
 667 65 667 65 666 49 c 128,-1,63
 665 33 665 33 665 15 c 0,64,65
 665 6 665 6 669 -1 c 1,66,-1
 667 -4 l 1,67,68
 646 -1 646 -1 595.5 -0.5 c 128,-1,69
 545 0 545 0 479 0 c 0,70,71
 454 0 454 0 430 0 c 128,-1,72
 406 0 406 0 393 -2 c 1,73,-1
 392 0 l 1,0,1
EndSplineSet
EndChar

StartChar: J
Encoding: 74 74 26
Width: 921
Flags: W
LayerCount: 2
Fore
SplineSet
50 392 m 1,0,-1
 57 394 l 1,1,2
 75 349 75 349 101.5 315.5 c 128,-1,3
 128 282 128 282 161.5 259.5 c 128,-1,4
 195 237 195 237 234.5 225.5 c 128,-1,5
 274 214 274 214 316 214 c 0,6,7
 368 214 368 214 407 230 c 128,-1,8
 446 246 446 246 472.5 275.5 c 128,-1,9
 499 305 499 305 512.5 345.5 c 128,-1,10
 526 386 526 386 526 434 c 2,11,-1
 526 1335 l 1,12,13
 550 1333 550 1333 565.5 1332 c 128,-1,14
 581 1331 581 1331 594 1330.5 c 128,-1,15
 607 1330 607 1330 620.5 1330 c 128,-1,16
 634 1330 634 1330 655 1330 c 0,17,18
 693 1330 693 1330 725 1332 c 128,-1,19
 757 1334 757 1334 781 1338 c 1,20,-1
 781 442 l 2,21,22
 781 329 781 329 747 242 c 128,-1,23
 713 155 713 155 654 95.5 c 128,-1,24
 595 36 595 36 515 5.5 c 128,-1,25
 435 -25 435 -25 344 -25 c 0,26,27
 257 -25 257 -25 186.5 -3.5 c 128,-1,28
 116 18 116 18 50 73 c 1,29,-1
 50 392 l 1,0,-1
EndSplineSet
EndChar

StartChar: K
Encoding: 75 75 27
Width: 1189
Flags: W
LayerCount: 2
Fore
SplineSet
180 1334 m 1,0,1
 200 1333 200 1333 220.5 1332 c 128,-1,2
 241 1331 241 1331 259 1330.5 c 128,-1,3
 277 1330 277 1330 290.5 1330 c 128,-1,4
 304 1330 304 1330 312 1330 c 0,5,6
 351 1330 351 1330 386.5 1332.5 c 128,-1,7
 422 1335 422 1335 435 1338 c 1,8,-1
 435 775 l 1,9,-1
 810 1334 l 1,10,11
 826 1333 826 1333 848.5 1332 c 128,-1,12
 871 1331 871 1331 893 1330.5 c 128,-1,13
 915 1330 915 1330 934 1330 c 128,-1,14
 953 1330 953 1330 963 1330 c 0,15,16
 982 1330 982 1330 1003 1330.5 c 128,-1,17
 1024 1331 1024 1331 1044.5 1332 c 128,-1,18
 1065 1333 1065 1333 1082 1334.5 c 128,-1,19
 1099 1336 1099 1336 1110 1338 c 1,20,-1
 777 866 l 1,21,-1
 1114 80 l 2,22,23
 1128 48 1128 48 1138.5 30 c 128,-1,24
 1149 12 1149 12 1159 0 c 1,25,-1
 1098 0 l 2,26,27
 984 0 984 0 922.5 -2 c 128,-1,28
 861 -4 861 -4 835 -8 c 1,29,30
 830 23 830 23 822.5 53 c 128,-1,31
 815 83 815 83 805 109 c 1,32,-1
 590 601 l 1,33,-1
 435 380 l 1,34,-1
 435 -6 l 1,35,36
 412 -4 412 -4 368.5 -2 c 128,-1,37
 325 0 325 0 259 0 c 2,38,-1
 180 0 l 1,39,-1
 180 1334 l 1,0,1
EndSplineSet
EndChar

StartChar: L
Encoding: 76 76 28
Width: 936
Flags: W
LayerCount: 2
Fore
SplineSet
180 1336 m 1,0,1
 188 1334 188 1334 222.5 1332 c 128,-1,2
 257 1330 257 1330 305 1330 c 0,3,4
 326 1330 326 1330 355 1331 c 128,-1,5
 384 1332 384 1332 435 1334 c 1,6,-1
 435 240 l 1,7,-1
 702 240 l 2,8,9
 717 240 717 240 738 240.5 c 128,-1,10
 759 241 759 241 780 242 c 128,-1,11
 801 243 801 243 819 244 c 128,-1,12
 837 245 837 245 846 246 c 1,13,-1
 842 124 l 2,14,15
 841 101 841 101 840.5 78 c 128,-1,16
 840 55 840 55 839.5 37 c 128,-1,17
 839 19 839 19 839 7 c 128,-1,18
 839 -5 839 -5 839 -7 c 1,19,20
 811 -5 811 -5 780.5 -3.5 c 128,-1,21
 750 -2 750 -2 712.5 -1.5 c 128,-1,22
 675 -1 675 -1 628 -0.5 c 128,-1,23
 581 0 581 0 520 0 c 2,24,-1
 355 0 l 2,25,26
 325 0 325 0 297 -0.5 c 128,-1,27
 269 -1 269 -1 246 -2 c 128,-1,28
 223 -3 223 -3 206 -4 c 128,-1,29
 189 -5 189 -5 180 -6 c 1,30,-1
 180 1336 l 1,0,1
EndSplineSet
EndChar

StartChar: C
Encoding: 67 67 29
Width: 1304
Flags: W
LayerCount: 2
Fore
SplineSet
100 649 m 0,0,1
 100 809 100 809 158.5 939.5 c 128,-1,2
 217 1070 217 1070 318 1162 c 128,-1,3
 419 1254 419 1254 555 1304.5 c 128,-1,4
 691 1355 691 1355 847 1355 c 0,5,6
 954 1355 954 1355 1032 1338 c 128,-1,7
 1110 1321 1110 1321 1173 1290 c 1,8,-1
 1173 982 l 1,9,-1
 1171 980 l 1,10,11
 1152 1009 1152 1009 1118 1034 c 128,-1,12
 1084 1059 1084 1059 1040.5 1077 c 128,-1,13
 997 1095 997 1095 946 1105 c 128,-1,14
 895 1115 895 1115 841 1115 c 0,15,16
 732 1115 732 1115 642.5 1081.5 c 128,-1,17
 553 1048 553 1048 489 988 c 128,-1,18
 425 928 425 928 390 846 c 128,-1,19
 355 764 355 764 355 667 c 0,20,21
 355 540 355 540 397 453.5 c 128,-1,22
 439 367 439 367 504.5 314 c 128,-1,23
 570 261 570 261 649 238 c 128,-1,24
 728 215 728 215 802 215 c 0,25,26
 857 215 857 215 913.5 227.5 c 128,-1,27
 970 240 970 240 1021.5 264 c 128,-1,28
 1073 288 1073 288 1117 322 c 128,-1,29
 1161 356 1161 356 1191 399 c 1,30,-1
 1194 397 l 1,31,-1
 1194 112 l 1,32,33
 1118 49 1118 49 1012 12 c 128,-1,34
 906 -25 906 -25 774 -25 c 0,35,36
 618 -25 618 -25 493 25 c 128,-1,37
 368 75 368 75 280.5 164 c 128,-1,38
 193 253 193 253 146.5 377 c 128,-1,39
 100 501 100 501 100 649 c 0,0,1
EndSplineSet
EndChar

StartChar: B
Encoding: 66 66 30
Width: 1221
Flags: W
LayerCount: 2
Fore
SplineSet
180 1324 m 1,0,1
 270 1340 270 1340 347.5 1347.5 c 128,-1,2
 425 1355 425 1355 491 1355 c 0,3,4
 619 1355 619 1355 710.5 1327 c 128,-1,5
 802 1299 802 1299 860.5 1254 c 128,-1,6
 919 1209 919 1209 946.5 1151.5 c 128,-1,7
 974 1094 974 1094 974 1035 c 0,8,9
 974 977 974 977 951 921.5 c 128,-1,10
 928 866 928 866 882 821 c 1,11,12
 943 795 943 795 991.5 755 c 128,-1,13
 1040 715 1040 715 1073 665 c 128,-1,14
 1106 615 1106 615 1123.5 557.5 c 128,-1,15
 1141 500 1141 500 1141 440 c 0,16,17
 1141 335 1141 335 1097 249.5 c 128,-1,18
 1053 164 1053 164 970 103 c 128,-1,19
 887 42 887 42 767 8.5 c 128,-1,20
 647 -25 647 -25 495 -25 c 0,21,22
 461 -25 461 -25 419 -22 c 128,-1,23
 377 -19 377 -19 334.5 -14.5 c 128,-1,24
 292 -10 292 -10 251.5 -4.5 c 128,-1,25
 211 1 211 1 180 6 c 1,26,-1
 180 1324 l 1,0,1
435 874 m 1,27,28
 452 870 452 870 470.5 868.5 c 128,-1,29
 489 867 489 867 506 867 c 0,30,31
 561 867 561 867 600.5 879.5 c 128,-1,32
 640 892 640 892 664.5 911.5 c 128,-1,33
 689 931 689 931 700.5 954.5 c 128,-1,34
 712 978 712 978 712 1001 c 0,35,36
 712 1059 712 1059 656.5 1092 c 128,-1,37
 601 1125 601 1125 508 1125 c 0,38,39
 463 1125 463 1125 435 1122 c 1,40,-1
 435 874 l 1,27,28
435 228 m 1,41,42
 505 211 505 211 573 211 c 0,43,44
 649 211 649 211 707.5 228 c 128,-1,45
 766 245 766 245 806 276.5 c 128,-1,46
 846 308 846 308 866.5 351.5 c 128,-1,47
 887 395 887 395 887 448 c 0,48,49
 887 489 887 489 866 526.5 c 128,-1,50
 845 564 845 564 804 593 c 128,-1,51
 763 622 763 622 703 639 c 128,-1,52
 643 656 643 656 565 656 c 0,53,54
 527 656 527 656 494 651.5 c 128,-1,55
 461 647 461 647 435 640 c 1,56,-1
 435 228 l 1,41,42
EndSplineSet
EndChar

StartChar: G
Encoding: 71 71 31
Width: 1336
Flags: W
LayerCount: 2
Fore
SplineSet
100 630 m 0,0,1
 100 722 100 722 121.5 811.5 c 128,-1,2
 143 901 143 901 185 981.5 c 128,-1,3
 227 1062 227 1062 288.5 1130.5 c 128,-1,4
 350 1199 350 1199 431 1249 c 128,-1,5
 512 1299 512 1299 611 1327 c 128,-1,6
 710 1355 710 1355 826 1355 c 0,7,8
 934 1355 934 1355 1011 1331.5 c 128,-1,9
 1088 1308 1088 1308 1145 1265 c 1,10,-1
 1129 970 l 1,11,-1
 1121 968 l 1,12,13
 1105 999 1105 999 1073.5 1026 c 128,-1,14
 1042 1053 1042 1053 1001.5 1072.5 c 128,-1,15
 961 1092 961 1092 914 1103.5 c 128,-1,16
 867 1115 867 1115 819 1115 c 0,17,18
 715 1115 715 1115 629.5 1079 c 128,-1,19
 544 1043 544 1043 483 979 c 128,-1,20
 422 915 422 915 388.5 826.5 c 128,-1,21
 355 738 355 738 355 633 c 0,22,23
 355 540 355 540 384.5 463 c 128,-1,24
 414 386 414 386 465 331 c 128,-1,25
 516 276 516 276 583.5 245.5 c 128,-1,26
 651 215 651 215 727 215 c 0,27,28
 783 215 783 215 831.5 221.5 c 128,-1,29
 880 228 880 228 915.5 243.5 c 128,-1,30
 951 259 951 259 971 284 c 128,-1,31
 991 309 991 309 991 347 c 2,32,-1
 991 553 l 1,33,-1
 862 553 l 2,34,35
 826 553 826 553 805 551.5 c 128,-1,36
 784 550 784 550 772 548 c 128,-1,37
 760 546 760 546 755.5 542.5 c 128,-1,38
 751 539 751 539 749 535 c 1,39,-1
 746 536 l 1,40,-1
 737 797 l 1,41,42
 743 795 743 795 770.5 793.5 c 128,-1,43
 798 792 798 792 833 791 c 128,-1,44
 868 790 868 790 904 789.5 c 128,-1,45
 940 789 940 789 964 789 c 2,46,-1
 1082 789 l 2,47,48
 1106 789 1106 789 1132 790 c 128,-1,49
 1158 791 1158 791 1182 793.5 c 128,-1,50
 1206 796 1206 796 1227 798.5 c 128,-1,51
 1248 801 1248 801 1262 804 c 1,52,-1
 1265 802 l 1,53,54
 1260 793 1260 793 1256.5 782 c 128,-1,55
 1253 771 1253 771 1250.5 753.5 c 128,-1,56
 1248 736 1248 736 1247 708.5 c 128,-1,57
 1246 681 1246 681 1246 639 c 2,58,-1
 1246 329 l 2,59,60
 1246 253 1246 253 1207.5 188.5 c 128,-1,61
 1169 124 1169 124 1100 76.5 c 128,-1,62
 1031 29 1031 29 936.5 2 c 128,-1,63
 842 -25 842 -25 730 -25 c 0,64,65
 592 -25 592 -25 476.5 26 c 128,-1,66
 361 77 361 77 277.5 165.5 c 128,-1,67
 194 254 194 254 147 373.5 c 128,-1,68
 100 493 100 493 100 630 c 0,0,1
EndSplineSet
EndChar

StartChar: M
Encoding: 77 77 32
Width: 1545
Flags: W
LayerCount: 2
Fore
SplineSet
180 1334 m 1,0,1
 212 1332 212 1332 235.5 1331 c 128,-1,2
 259 1330 259 1330 278 1330 c 0,3,4
 335 1330 335 1330 374.5 1332 c 128,-1,5
 414 1334 414 1334 430 1338 c 1,6,-1
 766 767 l 1,7,-1
 1089 1338 l 1,8,9
 1097 1336 1097 1336 1115.5 1334.5 c 128,-1,10
 1134 1333 1134 1333 1157 1332 c 128,-1,11
 1180 1331 1180 1331 1205 1330.5 c 128,-1,12
 1230 1330 1230 1330 1251 1330 c 0,13,14
 1286 1330 1286 1330 1309.5 1331 c 128,-1,15
 1333 1332 1333 1332 1365 1334 c 1,16,-1
 1365 0 l 1,17,-1
 1285 0 l 2,18,19
 1255 0 1255 0 1227 -0.5 c 128,-1,20
 1199 -1 1199 -1 1176 -2 c 128,-1,21
 1153 -3 1153 -3 1136 -4 c 128,-1,22
 1119 -5 1119 -5 1110 -6 c 1,23,-1
 1110 907 l 1,24,-1
 773 305 l 1,25,-1
 435 859 l 1,26,-1
 435 -6 l 1,27,28
 426 -5 426 -5 409 -4 c 128,-1,29
 392 -3 392 -3 369 -2 c 128,-1,30
 346 -1 346 -1 318 -0.5 c 128,-1,31
 290 0 290 0 260 0 c 2,32,-1
 180 0 l 1,33,-1
 180 1334 l 1,0,1
EndSplineSet
EndChar

StartChar: question
Encoding: 63 63 33
Width: 956
Flags: W
LayerCount: 2
Fore
SplineSet
410 343 m 1,0,1
 347 367 347 367 316 412.5 c 128,-1,2
 285 458 285 458 285 521 c 0,3,4
 285 544 285 544 292.5 572.5 c 128,-1,5
 300 601 300 601 322 635.5 c 128,-1,6
 344 670 344 670 382.5 712.5 c 128,-1,7
 421 755 421 755 483 807 c 0,8,9
 525 842 525 842 551.5 868.5 c 128,-1,10
 578 895 578 895 593 917 c 128,-1,11
 608 939 608 939 613.5 958.5 c 128,-1,12
 619 978 619 978 619 1001 c 0,13,14
 619 1037 619 1037 602 1065.5 c 128,-1,15
 585 1094 585 1094 555 1114 c 128,-1,16
 525 1134 525 1134 485.5 1144.5 c 128,-1,17
 446 1155 446 1155 401 1155 c 0,18,19
 369 1155 369 1155 330 1146.5 c 128,-1,20
 291 1138 291 1138 253 1119.5 c 128,-1,21
 215 1101 215 1101 182 1072.5 c 128,-1,22
 149 1044 149 1044 128 1004 c 1,23,-1
 121 1002 l 1,24,-1
 121 1015 l 2,25,26
 121 1025 121 1025 120 1033.5 c 128,-1,27
 119 1042 119 1042 117 1059 c 0,28,29
 116 1068 116 1068 113.5 1081 c 128,-1,30
 111 1094 111 1094 105.5 1114.5 c 128,-1,31
 100 1135 100 1135 91.5 1165.5 c 128,-1,32
 83 1196 83 1196 70 1241 c 1,33,34
 140 1307 140 1307 228 1341 c 128,-1,35
 316 1375 316 1375 437 1375 c 0,36,37
 536 1375 536 1375 617 1345 c 128,-1,38
 698 1315 698 1315 755.5 1265.5 c 128,-1,39
 813 1216 813 1216 844.5 1151 c 128,-1,40
 876 1086 876 1086 876 1017 c 0,41,42
 876 982 876 982 867.5 948.5 c 128,-1,43
 859 915 859 915 838 878.5 c 128,-1,44
 817 842 817 842 781 801.5 c 128,-1,45
 745 761 745 761 691 713 c 0,46,47
 639 667 639 667 609 636.5 c 128,-1,48
 579 606 579 606 564 585 c 128,-1,49
 549 564 549 564 545 549.5 c 128,-1,50
 541 535 541 535 541 523 c 0,51,52
 541 495 541 495 558.5 477.5 c 128,-1,53
 576 460 576 460 598 456 c 1,54,55
 578 441 578 441 553 425 c 128,-1,56
 528 409 528 409 502.5 393.5 c 128,-1,57
 477 378 477 378 453 365 c 128,-1,58
 429 352 429 352 410 343 c 1,0,1
311 0 m 1,59,60
 315 31 315 31 317 62.5 c 128,-1,61
 319 94 319 94 319 126 c 0,62,63
 319 155 319 155 317 188 c 128,-1,64
 315 221 315 221 313 240 c 1,65,-1
 576 240 l 1,66,67
 574 215 574 215 573 178.5 c 128,-1,68
 572 142 572 142 572 114 c 0,69,70
 572 82 572 82 572.5 54 c 128,-1,71
 573 26 573 26 576 0 c 1,72,-1
 311 0 l 1,59,60
EndSplineSet
EndChar

StartChar: ampersand
Encoding: 38 38 34
Width: 1414
Flags: W
LayerCount: 2
Fore
SplineSet
100 442 m 0,0,1
 100 505 100 505 118 563 c 128,-1,2
 136 621 136 621 167.5 670 c 128,-1,3
 199 719 199 719 243 757.5 c 128,-1,4
 287 796 287 796 340 821 c 1,5,6
 316 869 316 869 306 912 c 128,-1,7
 296 955 296 955 296 1000 c 0,8,9
 296 1078 296 1078 326 1143 c 128,-1,10
 356 1208 356 1208 409 1255 c 128,-1,11
 462 1302 462 1302 536 1328.5 c 128,-1,12
 610 1355 610 1355 699 1355 c 0,13,14
 771 1355 771 1355 829.5 1337 c 128,-1,15
 888 1319 888 1319 930 1295 c 1,16,17
 926 1277 926 1277 923 1254.5 c 128,-1,18
 920 1232 920 1232 918.5 1209 c 128,-1,19
 917 1186 917 1186 916.5 1163.5 c 128,-1,20
 916 1141 916 1141 916 1122 c 0,21,22
 916 1094 916 1094 916.5 1080 c 128,-1,23
 917 1066 917 1066 918.5 1058.5 c 128,-1,24
 920 1051 920 1051 921 1047.5 c 128,-1,25
 922 1044 922 1044 924 1038 c 1,26,-1
 919 1031 l 1,27,28
 907 1049 907 1049 884 1065.5 c 128,-1,29
 861 1082 861 1082 830 1095.5 c 128,-1,30
 799 1109 799 1109 764 1117 c 128,-1,31
 729 1125 729 1125 693 1125 c 0,32,33
 618 1125 618 1125 583 1092.5 c 128,-1,34
 548 1060 548 1060 548 1009 c 0,35,36
 548 989 548 989 552.5 968.5 c 128,-1,37
 557 948 557 948 570 922 c 128,-1,38
 583 896 583 896 607 864 c 128,-1,39
 631 832 631 832 669.5 790.5 c 128,-1,40
 708 749 708 749 763 695.5 c 128,-1,41
 818 642 818 642 893 574 c 2,42,-1
 997 480 l 1,43,44
 1012 522 1012 522 1020.5 567 c 128,-1,45
 1029 612 1029 612 1029 663 c 0,46,47
 1029 686 1029 686 1024 705 c 128,-1,48
 1019 724 1019 724 1012.5 738 c 128,-1,49
 1006 752 1006 752 999 761 c 128,-1,50
 992 770 992 770 988 773 c 1,51,-1
 988 785 l 1,52,-1
 1020 770 l 1,53,54
 1083 735 1083 735 1126.5 711 c 128,-1,55
 1170 687 1170 687 1196.5 670 c 128,-1,56
 1223 653 1223 653 1234.5 641 c 128,-1,57
 1246 629 1246 629 1246 619 c 0,58,59
 1246 541 1246 541 1230.5 466 c 128,-1,60
 1215 391 1215 391 1183 319 c 1,61,62
 1222 287 1222 287 1249.5 266.5 c 128,-1,63
 1277 246 1277 246 1296.5 234.5 c 128,-1,64
 1316 223 1316 223 1329 219 c 128,-1,65
 1342 215 1342 215 1352 215 c 0,66,67
 1372 215 1372 215 1384 222 c 128,-1,68
 1396 229 1396 229 1403 238 c 1,69,-1
 1408 232 l 1,70,-1
 1305 -11 l 1,71,72
 1297 -17 1297 -17 1287 -21 c 128,-1,73
 1277 -25 1277 -25 1257 -25 c 0,74,75
 1243 -25 1243 -25 1225.5 -19.5 c 128,-1,76
 1208 -14 1208 -14 1182.5 1 c 128,-1,77
 1157 16 1157 16 1120.5 43 c 128,-1,78
 1084 70 1084 70 1032 113 c 1,79,80
 957 49 957 49 858 12 c 128,-1,81
 759 -25 759 -25 627 -25 c 0,82,83
 511 -25 511 -25 414 11.5 c 128,-1,84
 317 48 317 48 247 111.5 c 128,-1,85
 177 175 177 175 138.5 260 c 128,-1,86
 100 345 100 345 100 442 c 0,0,1
351 459 m 0,87,88
 351 409 351 409 373 365 c 128,-1,89
 395 321 395 321 433.5 287.5 c 128,-1,90
 472 254 472 254 524.5 234.5 c 128,-1,91
 577 215 577 215 637 215 c 0,92,93
 751 215 751 215 843 279 c 1,94,-1
 735 378 l 1,95,96
 644 460 644 460 577 527 c 128,-1,97
 510 594 510 594 460 652 c 1,98,99
 351 573 351 573 351 459 c 0,87,88
EndSplineSet
EndChar

StartChar: b
Encoding: 98 98 35
Width: 1143
Flags: W
LayerCount: 2
Fore
SplineSet
140 1430 m 1,0,-1
 385 1430 l 1,1,-1
 385 1009 l 1,2,3
 439 1038 439 1038 498.5 1051.5 c 128,-1,4
 558 1065 558 1065 618 1065 c 0,5,6
 711 1065 711 1065 793.5 1026.5 c 128,-1,7
 876 988 876 988 938.5 918.5 c 128,-1,8
 1001 849 1001 849 1037 750.5 c 128,-1,9
 1073 652 1073 652 1073 532 c 0,10,11
 1073 402 1073 402 1034 300.5 c 128,-1,12
 995 199 995 199 927 129 c 128,-1,13
 859 59 859 59 767.5 22 c 128,-1,14
 676 -15 676 -15 571 -15 c 0,15,16
 483 -15 483 -15 404.5 9.5 c 128,-1,17
 326 34 326 34 267.5 84.5 c 128,-1,18
 209 135 209 135 174.5 212 c 128,-1,19
 140 289 140 289 140 393 c 2,20,-1
 140 1430 l 1,0,-1
385 396 m 2,21,22
 385 344 385 344 399.5 310 c 128,-1,23
 414 276 414 276 440 256 c 128,-1,24
 466 236 466 236 502.5 228 c 128,-1,25
 539 220 539 220 584 220 c 0,26,27
 636 220 636 220 681 243 c 128,-1,28
 726 266 726 266 758.5 308.5 c 128,-1,29
 791 351 791 351 809.5 410.5 c 128,-1,30
 828 470 828 470 828 543 c 0,31,32
 828 619 828 619 808.5 674 c 128,-1,33
 789 729 789 729 754.5 765 c 128,-1,34
 720 801 720 801 673 818 c 128,-1,35
 626 835 626 835 572 835 c 0,36,37
 529 835 529 835 478 813.5 c 128,-1,38
 427 792 427 792 385 756 c 1,39,-1
 385 396 l 2,21,22
EndSplineSet
EndChar

StartChar: c
Encoding: 99 99 36
Width: 1059
Flags: W
LayerCount: 2
Fore
SplineSet
80 506 m 0,0,1
 80 614 80 614 120.5 715 c 128,-1,2
 161 816 161 816 237 894 c 128,-1,3
 313 972 313 972 421 1018.5 c 128,-1,4
 529 1065 529 1065 664 1065 c 0,5,6
 761 1065 761 1065 838 1042.5 c 128,-1,7
 915 1020 915 1020 984 975 c 1,8,-1
 944 709 l 1,9,-1
 937 710 l 1,10,11
 888 770 888 770 813.5 802.5 c 128,-1,12
 739 835 739 835 630 835 c 0,13,14
 568 835 568 835 512.5 813 c 128,-1,15
 457 791 457 791 415.5 752 c 128,-1,16
 374 713 374 713 349.5 658.5 c 128,-1,17
 325 604 325 604 325 540 c 0,18,19
 325 468 325 468 350.5 409 c 128,-1,20
 376 350 376 350 421.5 308 c 128,-1,21
 467 266 467 266 530 243 c 128,-1,22
 593 220 593 220 669 220 c 0,23,24
 718 220 718 220 763.5 231.5 c 128,-1,25
 809 243 809 243 846.5 264.5 c 128,-1,26
 884 286 884 286 913 316 c 128,-1,27
 942 346 942 346 959 384 c 1,28,-1
 966 381 l 1,29,-1
 989 107 l 1,30,31
 917 50 917 50 827 17.5 c 128,-1,32
 737 -15 737 -15 628 -15 c 0,33,34
 513 -15 513 -15 413 23 c 128,-1,35
 313 61 313 61 239 129.5 c 128,-1,36
 165 198 165 198 122.5 294 c 128,-1,37
 80 390 80 390 80 506 c 0,0,1
EndSplineSet
EndChar

StartChar: f
Encoding: 102 102 37
Width: 760
Flags: W
LayerCount: 2
Fore
SplineSet
187 696 m 1,0,-1
 61 696 l 1,1,-1
 61 930 l 1,2,-1
 187 930 l 1,3,-1
 187 948 l 2,4,5
 187 1065 187 1065 217.5 1163.5 c 128,-1,6
 248 1262 248 1262 307 1333.5 c 128,-1,7
 366 1405 366 1405 452.5 1445 c 128,-1,8
 539 1485 539 1485 651 1485 c 0,9,10
 671 1485 671 1485 698 1482 c 128,-1,11
 725 1479 725 1479 739 1473 c 1,12,-1
 777 1222 l 1,13,-1
 775 1217 l 1,14,15
 759 1233 759 1233 727 1244 c 128,-1,16
 695 1255 695 1255 656 1255 c 0,17,18
 603 1255 603 1255 561.5 1235.5 c 128,-1,19
 520 1216 520 1216 491 1180.5 c 128,-1,20
 462 1145 462 1145 447 1094.5 c 128,-1,21
 432 1044 432 1044 432 983 c 2,22,-1
 432 930 l 1,23,-1
 697 930 l 1,24,25
 694 919 694 919 691.5 884.5 c 128,-1,26
 689 850 689 850 689 784 c 2,27,-1
 689 696 l 1,28,-1
 432 696 l 1,29,-1
 432 0 l 1,30,-1
 187 0 l 1,31,-1
 187 696 l 1,0,-1
EndSplineSet
EndChar

StartChar: l
Encoding: 108 108 38
Width: 560
Flags: W
LayerCount: 2
Fore
SplineSet
155 1430 m 1,0,-1
 405 1430 l 1,1,-1
 405 112 l 2,2,3
 405 61 405 61 406 37 c 128,-1,4
 407 13 407 13 409 0 c 1,5,-1
 155 0 l 1,6,-1
 155 1430 l 1,0,-1
EndSplineSet
EndChar

StartChar: k
Encoding: 107 107 39
Width: 1071
Flags: W
LayerCount: 2
Fore
SplineSet
140 1430 m 1,0,-1
 385 1430 l 1,1,-1
 385 618 l 1,2,-1
 677 1045 l 1,3,-1
 979 1045 l 1,4,-1
 680 654 l 1,5,-1
 931 218 l 2,6,7
 952 181 952 181 970.5 150 c 128,-1,8
 989 119 989 119 1006.5 93 c 128,-1,9
 1024 67 1024 67 1042 44 c 128,-1,10
 1060 21 1060 21 1081 0 c 1,11,-1
 933 0 l 2,12,13
 871 0 871 0 837 -5 c 128,-1,14
 803 -10 803 -10 782 -15 c 1,15,-1
 519 449 l 1,16,-1
 461 373 l 2,17,18
 440 346 440 346 421 323.5 c 128,-1,19
 402 301 402 301 385 283 c 1,20,-1
 385 132 l 2,21,22
 385 81 385 81 387.5 47 c 128,-1,23
 390 13 390 13 392 0 c 1,24,-1
 140 0 l 1,25,-1
 140 1430 l 1,0,-1
EndSplineSet
EndChar

StartChar: j
Encoding: 106 106 40
Width: 589
Flags: W
LayerCount: 2
Fore
SplineSet
150 1316 m 1,0,1
 187 1376 187 1376 227.5 1427 c 128,-1,2
 268 1478 268 1478 299 1512 c 1,3,-1
 490 1361 l 1,4,5
 470 1336 470 1336 453 1314 c 128,-1,6
 436 1292 436 1292 419.5 1270 c 128,-1,7
 403 1248 403 1248 386.5 1224.5 c 128,-1,8
 370 1201 370 1201 351 1172 c 1,9,-1
 150 1316 l 1,0,1
-88 -117 m 1,10,11
 -58 -137 -58 -137 -28.5 -146 c 128,-1,12
 1 -155 1 -155 39 -155 c 0,13,14
 74 -155 74 -155 101 -143 c 128,-1,15
 128 -131 128 -131 147 -104.5 c 128,-1,16
 166 -78 166 -78 175.5 -36 c 128,-1,17
 185 6 185 6 185 65 c 2,18,-1
 185 1045 l 1,19,-1
 430 1045 l 1,20,-1
 430 137 l 2,21,22
 430 -13 430 -13 402 -113.5 c 128,-1,23
 374 -214 374 -214 321 -274.5 c 128,-1,24
 268 -335 268 -335 190.5 -360 c 128,-1,25
 113 -385 113 -385 14 -385 c 1,26,-1
 -90 -122 l 1,27,-1
 -88 -117 l 1,10,11
EndSplineSet
EndChar

StartChar: m
Encoding: 109 109 41
Width: 1651
Flags: W
LayerCount: 2
Fore
SplineSet
140 1045 m 1,0,-1
 385 1045 l 1,1,-1
 385 949 l 1,2,3
 419 979 419 979 452 1000.5 c 128,-1,4
 485 1022 485 1022 518.5 1036.5 c 128,-1,5
 552 1051 552 1051 587.5 1058 c 128,-1,6
 623 1065 623 1065 664 1065 c 0,7,8
 754 1065 754 1065 814.5 1026 c 128,-1,9
 875 987 875 987 911 918 c 1,10,11
 985 995 985 995 1059 1030 c 128,-1,12
 1133 1065 1133 1065 1223 1065 c 0,13,14
 1305 1065 1305 1065 1365 1036 c 128,-1,15
 1425 1007 1425 1007 1464.5 953.5 c 128,-1,16
 1504 900 1504 900 1523.5 825.5 c 128,-1,17
 1543 751 1543 751 1543 660 c 2,18,-1
 1543 415 l 2,19,20
 1543 325 1543 325 1543 262.5 c 128,-1,21
 1543 200 1543 200 1544 157.5 c 128,-1,22
 1545 115 1545 115 1546 90 c 128,-1,23
 1547 65 1547 65 1549 51 c 0,24,25
 1553 25 1553 25 1561.5 15 c 128,-1,26
 1570 5 1570 5 1576 -3 c 1,27,-1
 1574 -7 l 1,28,29
 1560 -6 1560 -6 1541 -4.5 c 128,-1,30
 1522 -3 1522 -3 1499.5 -2 c 128,-1,31
 1477 -1 1477 -1 1452.5 -0.5 c 128,-1,32
 1428 0 1428 0 1404 0 c 0,33,34
 1387 0 1387 0 1360.5 -0.5 c 128,-1,35
 1334 -1 1334 -1 1298 -3 c 1,36,-1
 1298 538 l 2,37,38
 1298 620 1298 620 1289 676 c 128,-1,39
 1280 732 1280 732 1262.5 766.5 c 128,-1,40
 1245 801 1245 801 1219.5 815.5 c 128,-1,41
 1194 830 1194 830 1162 830 c 0,42,43
 1097 830 1097 830 1052.5 790 c 128,-1,44
 1008 750 1008 750 964 674 c 1,45,-1
 964 660 l 2,46,47
 964 538 964 538 964.5 448.5 c 128,-1,48
 965 359 965 359 965.5 294.5 c 128,-1,49
 966 230 966 230 966.5 185.5 c 128,-1,50
 967 141 967 141 968.5 108.5 c 128,-1,51
 970 76 970 76 971.5 51 c 128,-1,52
 973 26 973 26 975 0 c 1,53,-1
 848 0 l 2,54,55
 840 0 840 0 806.5 0 c 128,-1,56
 773 0 773 0 719 -3 c 1,57,-1
 719 539 l 2,58,59
 719 620 719 620 713 676 c 128,-1,60
 707 732 707 732 693 766 c 128,-1,61
 679 800 679 800 657 815 c 128,-1,62
 635 830 635 830 603 830 c 0,63,64
 568 830 568 830 538.5 819.5 c 128,-1,65
 509 809 509 809 483 789 c 128,-1,66
 457 769 457 769 433 740 c 128,-1,67
 409 711 409 711 385 673 c 1,68,-1
 385 289 l 2,69,70
 385 218 385 218 385.5 170 c 128,-1,71
 386 122 386 122 387 89.5 c 128,-1,72
 388 57 388 57 389.5 36.5 c 128,-1,73
 391 16 391 16 393 0 c 1,74,-1
 140 0 l 1,75,-1
 140 1045 l 1,0,-1
EndSplineSet
EndChar

StartChar: r
Encoding: 114 114 42
Width: 749
Flags: W
LayerCount: 2
Fore
SplineSet
140 1045 m 1,0,-1
 385 1045 l 1,1,-1
 385 978 l 1,2,3
 422 1013 422 1013 469 1039 c 128,-1,4
 516 1065 516 1065 567 1065 c 0,5,6
 607 1065 607 1065 645 1059 c 128,-1,7
 683 1053 683 1053 709 1042 c 1,8,-1
 691 773 l 1,9,-1
 687 770 l 1,10,11
 670 803 670 803 630 817.5 c 128,-1,12
 590 832 590 832 544 832 c 0,13,14
 502 832 502 832 458.5 804 c 128,-1,15
 415 776 415 776 385 728 c 1,16,-1
 385 112 l 2,17,18
 385 61 385 61 386 37 c 128,-1,19
 387 13 387 13 389 0 c 1,20,-1
 140 0 l 1,21,-1
 140 1045 l 1,0,-1
EndSplineSet
EndChar

StartChar: g
Encoding: 103 103 43
Width: 1215
Flags: W
LayerCount: 2
Fore
SplineSet
214 -11 m 1,0,1
 171 25 171 25 152 71 c 128,-1,2
 133 117 133 117 133 177 c 256,3,4
 133 237 133 237 161 288.5 c 128,-1,5
 189 340 189 340 235 377 c 1,6,7
 175 428 175 428 141 495.5 c 128,-1,8
 107 563 107 563 107 651 c 0,9,10
 107 737 107 737 138.5 812.5 c 128,-1,11
 170 888 170 888 230 944 c 128,-1,12
 290 1000 290 1000 377 1032.5 c 128,-1,13
 464 1065 464 1065 575 1065 c 0,14,15
 654 1065 654 1065 722 1046.5 c 128,-1,16
 790 1028 790 1028 847 993 c 1,17,18
 884 1009 884 1009 925 1028.5 c 128,-1,19
 966 1048 966 1048 1002.5 1068.5 c 128,-1,20
 1039 1089 1039 1089 1069 1110 c 128,-1,21
 1099 1131 1099 1131 1116 1150 c 1,22,-1
 1122 1149 l 1,23,24
 1127 1136 1127 1136 1133.5 1113.5 c 128,-1,25
 1140 1091 1140 1091 1147.5 1064 c 128,-1,26
 1155 1037 1155 1037 1162 1009 c 128,-1,27
 1169 981 1169 981 1175 956 c 128,-1,28
 1181 931 1181 931 1185 912.5 c 128,-1,29
 1189 894 1189 894 1190 887 c 1,30,31
 1174 870 1174 870 1151.5 857.5 c 128,-1,32
 1129 845 1129 845 1103.5 836.5 c 128,-1,33
 1078 828 1078 828 1051 822.5 c 128,-1,34
 1024 817 1024 817 999 814 c 1,35,36
 1028 744 1028 744 1028 664 c 0,37,38
 1028 580 1028 580 996 508 c 128,-1,39
 964 436 964 436 904.5 382.5 c 128,-1,40
 845 329 845 329 760.5 299 c 128,-1,41
 676 269 676 269 571 269 c 0,42,43
 478 269 478 269 402 291 c 1,44,45
 385 273 385 273 377.5 255 c 128,-1,46
 370 237 370 237 370 220 c 0,47,48
 370 202 370 202 382 188 c 128,-1,49
 394 174 394 174 428 161.5 c 128,-1,50
 462 149 462 149 523 136.5 c 128,-1,51
 584 124 584 124 682 109 c 0,52,53
 806 89 806 89 896.5 55 c 128,-1,54
 987 21 987 21 1045 -28 c 128,-1,55
 1103 -77 1103 -77 1131 -143 c 128,-1,56
 1159 -209 1159 -209 1159 -294 c 0,57,58
 1159 -384 1159 -384 1118 -461 c 128,-1,59
 1077 -538 1077 -538 1003.5 -595 c 128,-1,60
 930 -652 930 -652 827.5 -684 c 128,-1,61
 725 -716 725 -716 603 -716 c 0,62,63
 477 -716 477 -716 374 -687 c 128,-1,64
 271 -658 271 -658 198.5 -605 c 128,-1,65
 126 -552 126 -552 86.5 -477 c 128,-1,66
 47 -402 47 -402 47 -309 c 0,67,68
 47 -212 47 -212 90.5 -136.5 c 128,-1,69
 134 -61 134 -61 214 -11 c 1,0,1
337 663 m 0,70,71
 337 628 337 628 354 595.5 c 128,-1,72
 371 563 371 563 402.5 538 c 128,-1,73
 434 513 434 513 480 498 c 128,-1,74
 526 483 526 483 583 483 c 0,75,76
 622 483 622 483 660.5 496 c 128,-1,77
 699 509 699 509 729.5 533.5 c 128,-1,78
 760 558 760 558 779 592 c 128,-1,79
 798 626 798 626 798 668 c 0,80,81
 798 712 798 712 780 746 c 128,-1,82
 762 780 762 780 730.5 803.5 c 128,-1,83
 699 827 699 827 656 839 c 128,-1,84
 613 851 613 851 564 851 c 0,85,86
 506 851 506 851 463.5 836.5 c 128,-1,87
 421 822 421 822 393 796.5 c 128,-1,88
 365 771 365 771 351 736.5 c 128,-1,89
 337 702 337 702 337 663 c 0,70,71
294 -306 m 0,90,91
 294 -346 294 -346 316.5 -382 c 128,-1,92
 339 -418 339 -418 381 -445 c 128,-1,93
 423 -472 423 -472 482.5 -488 c 128,-1,94
 542 -504 542 -504 616 -504 c 0,95,96
 689 -504 689 -504 741.5 -490 c 128,-1,97
 794 -476 794 -476 827.5 -452.5 c 128,-1,98
 861 -429 861 -429 876.5 -398 c 128,-1,99
 892 -367 892 -367 892 -332 c 0,100,101
 892 -293 892 -293 877 -261.5 c 128,-1,102
 862 -230 862 -230 821.5 -204.5 c 128,-1,103
 781 -179 781 -179 709 -158.5 c 128,-1,104
 637 -138 637 -138 523 -121 c 1,105,-1
 438 -106 l 1,106,107
 366 -141 366 -141 330 -195 c 128,-1,108
 294 -249 294 -249 294 -306 c 0,90,91
EndSplineSet
EndChar

StartChar: p
Encoding: 112 112 44
Width: 1183
Flags: W
LayerCount: 2
Fore
SplineSet
385 -273 m 2,0,1
 385 -324 385 -324 386 -348 c 128,-1,2
 387 -372 387 -372 389 -385 c 1,3,-1
 140 -385 l 1,4,-1
 140 1045 l 1,5,-1
 385 1045 l 1,6,-1
 385 981 l 1,7,8
 444 1023 444 1023 499.5 1044 c 128,-1,9
 555 1065 555 1065 624 1065 c 0,10,11
 718 1065 718 1065 804.5 1033 c 128,-1,12
 891 1001 891 1001 957.5 935.5 c 128,-1,13
 1024 870 1024 870 1063.5 770.5 c 128,-1,14
 1103 671 1103 671 1103 536 c 0,15,16
 1103 446 1103 446 1080 369.5 c 128,-1,17
 1057 293 1057 293 1018 231.5 c 128,-1,18
 979 170 979 170 928 123.5 c 128,-1,19
 877 77 877 77 820 45.5 c 128,-1,20
 763 14 763 14 704.5 -2 c 128,-1,21
 646 -18 646 -18 593 -18 c 0,22,23
 520 -18 520 -18 471.5 -8 c 128,-1,24
 423 2 423 2 385 19 c 1,25,-1
 385 -273 l 2,0,1
385 293 m 1,26,27
 427 255 427 255 475.5 237.5 c 128,-1,28
 524 220 524 220 572 220 c 0,29,30
 633 220 633 220 685.5 242.5 c 128,-1,31
 738 265 738 265 776 307.5 c 128,-1,32
 814 350 814 350 836 411.5 c 128,-1,33
 858 473 858 473 858 552 c 0,34,35
 858 611 858 611 844 655 c 128,-1,36
 830 699 830 699 807.5 730.5 c 128,-1,37
 785 762 785 762 757 782 c 128,-1,38
 729 802 729 802 700 814 c 128,-1,39
 671 826 671 826 644 830.5 c 128,-1,40
 617 835 617 835 598 835 c 0,41,42
 541 835 541 835 483 811.5 c 128,-1,43
 425 788 425 788 385 746 c 1,44,-1
 385 293 l 1,26,27
EndSplineSet
EndChar

StartChar: q
Encoding: 113 113 45
Width: 1211
Flags: W
LayerCount: 2
Fore
SplineSet
80 486 m 0,0,1
 80 615 80 615 117 720 c 128,-1,2
 154 825 154 825 219.5 899.5 c 128,-1,3
 285 974 285 974 374.5 1014.5 c 128,-1,4
 464 1055 464 1055 569 1055 c 0,5,6
 645 1055 645 1055 707 1048 c 128,-1,7
 769 1041 769 1041 826 1016 c 1,8,-1
 826 1045 l 1,9,-1
 1071 1045 l 1,10,-1
 1071 -385 l 1,11,-1
 822 -385 l 1,12,13
 824 -372 824 -372 825 -348 c 128,-1,14
 826 -324 826 -324 826 -273 c 2,15,-1
 826 92 l 1,16,17
 797 67 797 67 767.5 47 c 128,-1,18
 738 27 738 27 705.5 13.5 c 128,-1,19
 673 0 673 0 635 -7.5 c 128,-1,20
 597 -15 597 -15 551 -15 c 0,21,22
 450 -15 450 -15 364 19 c 128,-1,23
 278 53 278 53 215 117.5 c 128,-1,24
 152 182 152 182 116 275 c 128,-1,25
 80 368 80 368 80 486 c 0,0,1
325 511 m 0,26,27
 325 449 325 449 341 395.5 c 128,-1,28
 357 342 357 342 390 303 c 128,-1,29
 423 264 423 264 473 242 c 128,-1,30
 523 220 523 220 591 220 c 0,31,32
 666 220 666 220 723.5 250.5 c 128,-1,33
 781 281 781 281 826 341 c 1,34,-1
 826 765 l 1,35,36
 805 785 805 785 777.5 798.5 c 128,-1,37
 750 812 750 812 720 820 c 128,-1,38
 690 828 690 828 658 831.5 c 128,-1,39
 626 835 626 835 596 835 c 0,40,41
 537 835 537 835 487.5 810 c 128,-1,42
 438 785 438 785 402 741.5 c 128,-1,43
 366 698 366 698 345.5 639 c 128,-1,44
 325 580 325 580 325 511 c 0,26,27
EndSplineSet
EndChar

StartChar: X
Encoding: 88 88 46
Width: 1159
Flags: W
LayerCount: 2
Fore
SplineSet
0 0 m 1,0,1
 19 21 19 21 42 55.5 c 128,-1,2
 65 90 65 90 90.5 132.5 c 128,-1,3
 116 175 116 175 142.5 223 c 128,-1,4
 169 271 169 271 196 320 c 2,5,-1
 420 721 l 1,6,-1
 208 1132 l 2,7,8
 186 1176 186 1176 169 1208 c 128,-1,9
 152 1240 152 1240 138 1263 c 128,-1,10
 124 1286 124 1286 112.5 1302 c 128,-1,11
 101 1318 101 1318 90 1330 c 1,12,-1
 426 1330 l 1,13,14
 422 1321 422 1321 422 1308 c 256,15,16
 422 1295 422 1295 427.5 1277.5 c 128,-1,17
 433 1260 433 1260 447 1233 c 2,18,-1
 574 970 l 1,19,-1
 703 1233 l 2,20,21
 716 1260 716 1260 719.5 1277.5 c 128,-1,22
 723 1295 723 1295 724 1308 c 0,23,24
 724 1321 724 1321 720 1330 c 1,25,-1
 1072 1330 l 1,26,27
 1061 1318 1061 1318 1047 1301 c 128,-1,28
 1033 1284 1033 1284 1016 1261 c 128,-1,29
 999 1238 999 1238 978.5 1206 c 128,-1,30
 958 1174 958 1174 934 1132 c 2,31,-1
 711 731 l 1,32,-1
 943 269 l 2,33,34
 953 249 953 249 970 213.5 c 128,-1,35
 987 178 987 178 1008 138.5 c 128,-1,36
 1029 99 1029 99 1052.5 61.5 c 128,-1,37
 1076 24 1076 24 1099 0 c 1,38,-1
 776 0 l 1,39,40
 775 8 775 8 773 16.5 c 128,-1,41
 771 25 771 25 767.5 35.5 c 128,-1,42
 764 46 764 46 758 60 c 128,-1,43
 752 74 752 74 742 94 c 2,44,-1
 555 470 l 1,45,-1
 360 94 l 2,46,47
 349 74 349 74 343 60 c 128,-1,48
 337 46 337 46 334 35.5 c 128,-1,49
 331 25 331 25 329 17 c 128,-1,50
 327 9 327 9 326 0 c 1,51,-1
 0 0 l 1,0,1
EndSplineSet
EndChar

StartChar: Y
Encoding: 89 89 47
Width: 1144
Flags: W
LayerCount: 2
Fore
SplineSet
479 0 m 1,0,1
 485 17 485 17 488.5 57.5 c 128,-1,2
 492 98 492 98 492 182 c 2,3,-1
 492 543 l 1,4,5
 462 602 462 602 425.5 670.5 c 128,-1,6
 389 739 389 739 349 811 c 128,-1,7
 309 883 309 883 267 955.5 c 128,-1,8
 225 1028 225 1028 185 1094 c 0,9,10
 129 1186 129 1186 82 1241 c 128,-1,11
 35 1296 35 1296 -9 1330 c 1,12,-1
 346 1330 l 1,13,14
 357 1310 357 1310 376 1275 c 128,-1,15
 395 1240 395 1240 418.5 1195 c 128,-1,16
 442 1150 442 1150 469 1099.5 c 128,-1,17
 496 1049 496 1049 522.5 999 c 128,-1,18
 549 949 549 949 573.5 902.5 c 128,-1,19
 598 856 598 856 617 820 c 1,20,21
 632 859 632 859 651 905.5 c 128,-1,22
 670 952 670 952 691 1000.5 c 128,-1,23
 712 1049 712 1049 734 1097.5 c 128,-1,24
 756 1146 756 1146 775.5 1189.5 c 128,-1,25
 795 1233 795 1233 811.5 1269.5 c 128,-1,26
 828 1306 828 1306 839 1330 c 1,27,-1
 1159 1330 l 1,28,29
 1144 1318 1144 1318 1123 1292 c 128,-1,30
 1102 1266 1102 1266 1079 1232 c 128,-1,31
 1056 1198 1056 1198 1033.5 1159 c 128,-1,32
 1011 1120 1011 1120 994 1081 c 1,33,34
 963 1017 963 1017 928.5 945.5 c 128,-1,35
 894 874 894 874 860.5 801.5 c 128,-1,36
 827 729 827 729 797.5 659.5 c 128,-1,37
 768 590 768 590 747 531 c 1,38,-1
 747 158 l 2,39,40
 747 126 747 126 749 82.5 c 128,-1,41
 751 39 751 39 759 0 c 1,42,-1
 479 0 l 1,0,1
EndSplineSet
EndChar

StartChar: Z
Encoding: 90 90 48
Width: 1125
Flags: W
LayerCount: 2
Fore
SplineSet
653 1090 m 1,0,-1
 317 1090 l 2,1,2
 259 1090 259 1090 217 1088.5 c 128,-1,3
 175 1087 175 1087 145.5 1084 c 128,-1,4
 116 1081 116 1081 97.5 1077 c 128,-1,5
 79 1073 79 1073 69 1069 c 1,6,7
 74 1090 74 1090 77.5 1130.5 c 128,-1,8
 81 1171 81 1171 81 1210 c 2,9,-1
 81 1240 l 2,10,11
 81 1254 81 1254 80.5 1273 c 128,-1,12
 80 1292 80 1292 78 1330 c 1,13,-1
 1066 1330 l 1,14,-1
 484 240 l 1,15,-1
 867 240 l 2,16,17
 922 240 922 240 956 241 c 128,-1,18
 990 242 990 242 1011.5 245 c 128,-1,19
 1033 248 1033 248 1046.5 252.5 c 128,-1,20
 1060 257 1060 257 1075 264 c 1,21,-1
 1075 -15 l 1,22,23
 1032 -11 1032 -11 999 -8 c 128,-1,24
 966 -5 966 -5 930 -3.5 c 128,-1,25
 894 -2 894 -2 848 -1 c 128,-1,26
 802 0 802 0 733 0 c 2,27,-1
 50 0 l 1,28,-1
 653 1090 l 1,0,-1
EndSplineSet
EndChar

StartChar: t
Encoding: 116 116 49
Width: 805
Flags: W
LayerCount: 2
Fore
SplineSet
224 815 m 1,0,-1
 73 815 l 1,1,2
 72 829 72 829 72 844 c 128,-1,3
 72 859 72 859 72 874 c 2,4,-1
 72 985 l 2,5,6
 72 1011 72 1011 72 1028 c 128,-1,7
 72 1045 72 1045 73 1045 c 2,8,-1
 224 1045 l 1,9,-1
 224 1330 l 1,10,-1
 469 1330 l 1,11,-1
 469 1045 l 1,12,-1
 720 1045 l 1,13,-1
 720 815 l 1,14,-1
 469 815 l 1,15,-1
 469 407 l 2,16,17
 469 349 469 349 479 312.5 c 128,-1,18
 489 276 489 276 508 255.5 c 128,-1,19
 527 235 527 235 555.5 227.5 c 128,-1,20
 584 220 584 220 621 220 c 0,21,22
 681 220 681 220 723 237.5 c 128,-1,23
 765 255 765 255 788 287 c 1,24,-1
 796 287 l 1,25,-1
 762 35 l 1,26,27
 751 24 751 24 729.5 15 c 128,-1,28
 708 6 708 6 680.5 -1 c 128,-1,29
 653 -8 653 -8 622 -11.5 c 128,-1,30
 591 -15 591 -15 561 -15 c 0,31,32
 484 -15 484 -15 421.5 6.5 c 128,-1,33
 359 28 359 28 315 73.5 c 128,-1,34
 271 119 271 119 247.5 190.5 c 128,-1,35
 224 262 224 262 224 361 c 2,36,-1
 224 815 l 1,0,-1
EndSplineSet
EndChar

StartChar: u
Encoding: 117 117 50
Width: 1115
Flags: W
LayerCount: 2
Fore
SplineSet
120 630 m 2,0,1
 120 720 120 720 120 782.5 c 128,-1,2
 120 845 120 845 119 887.5 c 128,-1,3
 118 930 118 930 117 955 c 128,-1,4
 116 980 116 980 114 994 c 0,5,6
 111 1013 111 1013 107 1027 c 128,-1,7
 103 1041 103 1041 99 1049 c 1,8,9
 125 1046 125 1046 167 1045.5 c 128,-1,10
 209 1045 209 1045 259 1045 c 0,11,12
 276 1045 276 1045 302.5 1045.5 c 128,-1,13
 329 1046 329 1046 365 1048 c 1,14,-1
 365 469 l 2,15,16
 365 392 365 392 379 344 c 128,-1,17
 393 296 393 296 418 268 c 128,-1,18
 443 240 443 240 477 230 c 128,-1,19
 511 220 511 220 551 220 c 0,20,21
 602 220 602 220 646.5 245.5 c 128,-1,22
 691 271 691 271 731 320 c 1,23,-1
 731 1045 l 1,24,-1
 976 1045 l 1,25,-1
 976 128 l 2,26,27
 976 83 976 83 977.5 54 c 128,-1,28
 979 25 979 25 984 0 c 1,29,-1
 731 0 l 1,30,-1
 731 81 l 1,31,32
 699 55 699 55 669.5 36.5 c 128,-1,33
 640 18 640 18 610.5 6.5 c 128,-1,34
 581 -5 581 -5 549 -10 c 128,-1,35
 517 -15 517 -15 480 -15 c 0,36,37
 398 -15 398 -15 331.5 13.5 c 128,-1,38
 265 42 265 42 218 94 c 128,-1,39
 171 146 171 146 145.5 220 c 128,-1,40
 120 294 120 294 120 385 c 2,41,-1
 120 630 l 2,0,1
EndSplineSet
EndChar

StartChar: v
Encoding: 118 118 51
Width: 1040
Flags: W
LayerCount: 2
Fore
SplineSet
0 1045 m 1,0,-1
 286 1045 l 1,1,-1
 541 361 l 1,2,-1
 763 1045 l 1,3,-1
 1040 1045 l 1,4,-1
 641 0 l 1,5,-1
 435 0 l 1,6,-1
 0 1045 l 1,0,-1
EndSplineSet
EndChar

StartChar: w
Encoding: 119 119 52
Width: 1464
Flags: W
LayerCount: 2
Fore
SplineSet
0 1045 m 1,0,-1
 284 1045 l 1,1,-1
 451 362 l 1,2,-1
 617 1045 l 1,3,-1
 834 1045 l 1,4,-1
 1012 355 l 1,5,-1
 1190 1045 l 1,6,-1
 1464 1045 l 1,7,-1
 1140 0 l 1,8,-1
 881 0 l 1,9,-1
 723 578 l 1,10,-1
 583 0 l 1,11,-1
 323 0 l 1,12,-1
 0 1045 l 1,0,-1
EndSplineSet
EndChar

StartChar: x
Encoding: 120 120 53
Width: 1013
Flags: W
LayerCount: 2
Fore
SplineSet
368 531 m 1,0,-1
 55 1045 l 1,1,-1
 345 1045 l 1,2,-1
 509 742 l 1,3,-1
 672 1045 l 1,4,-1
 942 1045 l 2,5,6
 941 1045 941 1045 923.5 1015 c 128,-1,7
 906 985 906 985 879 938 c 128,-1,8
 852 891 852 891 819 833 c 128,-1,9
 786 775 786 775 754 719.5 c 128,-1,10
 722 664 722 664 695 616.5 c 128,-1,11
 668 569 668 569 653 543 c 1,12,-1
 986 0 l 1,13,-1
 698 0 l 1,14,-1
 516 315 l 1,15,-1
 349 0 l 1,16,-1
 59 0 l 1,17,-1
 368 531 l 1,0,-1
EndSplineSet
EndChar

StartChar: y
Encoding: 121 121 54
Width: 972
Flags: W
LayerCount: 2
Fore
SplineSet
356 186 m 1,0,-1
 -3 1045 l 1,1,-1
 273 1045 l 1,2,-1
 489 470 l 1,3,-1
 705 1045 l 1,4,-1
 979 1045 l 1,5,6
 954 1009 954 1009 922.5 946.5 c 128,-1,7
 891 884 891 884 860 805 c 0,8,9
 773 580 773 580 701 406 c 128,-1,10
 629 232 629 232 570.5 100.5 c 128,-1,11
 512 -31 512 -31 465 -124.5 c 128,-1,12
 418 -218 418 -218 380.5 -281.5 c 128,-1,13
 343 -345 343 -345 314 -382 c 128,-1,14
 285 -419 285 -419 262 -438 c 1,15,-1
 20 -348 l 1,16,-1
 25 -342 l 1,17,18
 50 -327 50 -327 78 -302.5 c 128,-1,19
 106 -278 106 -278 140.5 -230.5 c 128,-1,20
 175 -183 175 -183 218.5 -106 c 128,-1,21
 262 -29 262 -29 318 91 c 1,22,-1
 356 186 l 1,0,-1
EndSplineSet
EndChar

StartChar: z
Encoding: 122 122 55
Width: 977
Flags: W
LayerCount: 2
Fore
SplineSet
10 -15 m 1,0,1
 18 -4 18 -4 40 30.5 c 128,-1,2
 62 65 62 65 93 114.5 c 128,-1,3
 124 164 124 164 162 226 c 128,-1,4
 200 288 200 288 241 355 c 128,-1,5
 282 422 282 422 324 491 c 128,-1,6
 366 560 366 560 404 623.5 c 128,-1,7
 442 687 442 687 475 741.5 c 128,-1,8
 508 796 508 796 531 835 c 1,9,-1
 315 835 l 2,10,11
 295 835 295 835 270.5 833.5 c 128,-1,12
 246 832 246 832 220.5 829 c 128,-1,13
 195 826 195 826 170 821 c 128,-1,14
 145 816 145 816 125 809 c 1,15,16
 127 848 127 848 128 886.5 c 128,-1,17
 129 925 129 925 129 957 c 0,18,19
 129 977 129 977 128.5 989 c 128,-1,20
 128 1001 128 1001 128 1010 c 128,-1,21
 128 1019 128 1019 127.5 1026.5 c 128,-1,22
 127 1034 127 1034 127 1045 c 1,23,-1
 942 1045 l 1,24,-1
 436 220 l 1,25,-1
 805 220 l 2,26,27
 817 220 817 220 833.5 221 c 128,-1,28
 850 222 850 222 867 224.5 c 128,-1,29
 884 227 884 227 899 232 c 128,-1,30
 914 237 914 237 924 245 c 1,31,-1
 838 -15 l 1,32,33
 794 -12 794 -12 740.5 -9.5 c 128,-1,34
 687 -7 687 -7 632.5 -4.5 c 128,-1,35
 578 -2 578 -2 528 -1 c 128,-1,36
 478 0 478 0 441 0 c 256,37,38
 404 0 404 0 352 -1 c 128,-1,39
 300 -2 300 -2 241.5 -3.5 c 128,-1,40
 183 -5 183 -5 122.5 -8 c 128,-1,41
 62 -11 62 -11 10 -15 c 1,0,1
EndSplineSet
EndChar

StartChar: one
Encoding: 49 49 56
Width: 569
Flags: W
LayerCount: 2
Fore
SplineSet
157 1330 m 1,0,-1
 412 1330 l 1,1,-1
 412 0 l 1,2,-1
 157 0 l 1,3,-1
 157 1330 l 1,0,-1
EndSplineSet
EndChar

StartChar: two
Encoding: 50 50 57
Width: 1112
Flags: W
LayerCount: 2
Fore
SplineSet
521 600 m 2,0,1
 576 670 576 670 612 721.5 c 128,-1,2
 648 773 648 773 670 813 c 128,-1,3
 692 853 692 853 701 885 c 128,-1,4
 710 917 710 917 710 947 c 0,5,6
 710 987 710 987 694 1018.5 c 128,-1,7
 678 1050 678 1050 649.5 1071.5 c 128,-1,8
 621 1093 621 1093 581.5 1104 c 128,-1,9
 542 1115 542 1115 495 1115 c 0,10,11
 443 1115 443 1115 391 1100.5 c 128,-1,12
 339 1086 339 1086 293.5 1063.5 c 128,-1,13
 248 1041 248 1041 212.5 1012.5 c 128,-1,14
 177 984 177 984 159 957 c 1,15,-1
 146 955 l 1,16,-1
 154 1263 l 1,17,18
 179 1279 179 1279 218 1295 c 128,-1,19
 257 1311 257 1311 303.5 1324.5 c 128,-1,20
 350 1338 350 1338 399.5 1346.5 c 128,-1,21
 449 1355 449 1355 494 1355 c 0,22,23
 626 1355 626 1355 716 1322 c 128,-1,24
 806 1289 806 1289 861.5 1234.5 c 128,-1,25
 917 1180 917 1180 941.5 1109.5 c 128,-1,26
 966 1039 966 1039 966 964 c 0,27,28
 966 930 966 930 961.5 894.5 c 128,-1,29
 957 859 957 859 941.5 816 c 128,-1,30
 926 773 926 773 898 719.5 c 128,-1,31
 870 666 870 666 823.5 597 c 128,-1,32
 777 528 777 528 708.5 440 c 128,-1,33
 640 352 640 352 545 240 c 1,34,-1
 859 240 l 2,35,36
 925 240 925 240 962.5 245.5 c 128,-1,37
 1000 251 1000 251 1026 271 c 1,38,-1
 1033 268 l 1,39,-1
 920 -15 l 1,40,41
 865 -12 865 -12 817 -9.5 c 128,-1,42
 769 -7 769 -7 718 -4.5 c 128,-1,43
 667 -2 667 -2 606.5 -1 c 128,-1,44
 546 0 546 0 466 0 c 0,45,46
 417 0 417 0 310 -1.5 c 128,-1,47
 203 -3 203 -3 51 -7 c 1,48,-1
 521 600 l 2,0,1
EndSplineSet
EndChar

StartChar: three
Encoding: 51 51 58
Width: 1221
Flags: W
LayerCount: 2
Fore
SplineSet
100 385 m 1,0,-1
 110 397 l 1,1,2
 135 363 135 363 170 330.5 c 128,-1,3
 205 298 205 298 255.5 272 c 128,-1,4
 306 246 306 246 373 230 c 128,-1,5
 440 214 440 214 528 214 c 0,6,7
 604 214 604 214 668 229.5 c 128,-1,8
 732 245 732 245 778.5 274 c 128,-1,9
 825 303 825 303 850.5 346 c 128,-1,10
 876 389 876 389 876 445 c 0,11,12
 876 497 876 497 842.5 535 c 128,-1,13
 809 573 809 573 758 598 c 128,-1,14
 707 623 707 623 646 635 c 128,-1,15
 585 647 585 647 530 647 c 0,16,17
 454 647 454 647 388.5 626 c 128,-1,18
 323 605 323 605 272 567 c 1,19,-1
 266 574 l 1,20,-1
 276 810 l 1,21,22
 342 845 342 845 414 860 c 128,-1,23
 486 875 486 875 567 875 c 0,24,25
 576 875 576 875 585 875 c 128,-1,26
 594 875 594 875 603 874 c 1,27,28
 660 892 660 892 688 923 c 128,-1,29
 716 954 716 954 716 988 c 0,30,31
 716 1012 716 1012 703 1034.5 c 128,-1,32
 690 1057 690 1057 664 1074.5 c 128,-1,33
 638 1092 638 1092 599 1102.5 c 128,-1,34
 560 1113 560 1113 509 1113 c 0,35,36
 470 1113 470 1113 427 1105 c 128,-1,37
 384 1097 384 1097 343.5 1082 c 128,-1,38
 303 1067 303 1067 268.5 1046 c 128,-1,39
 234 1025 234 1025 212 1000 c 1,40,-1
 207 1005 l 1,41,-1
 195 1261 l 1,42,43
 229 1283 229 1283 270 1300.5 c 128,-1,44
 311 1318 311 1318 356 1330 c 128,-1,45
 401 1342 401 1342 449.5 1348.5 c 128,-1,46
 498 1355 498 1355 546 1355 c 0,47,48
 631 1355 631 1355 709.5 1334 c 128,-1,49
 788 1313 788 1313 847.5 1272 c 128,-1,50
 907 1231 907 1231 942.5 1170.5 c 128,-1,51
 978 1110 978 1110 978 1032 c 0,52,53
 978 963 978 963 947 907 c 128,-1,54
 916 851 916 851 865 815 c 1,55,56
 926 789 926 789 975.5 750 c 128,-1,57
 1025 711 1025 711 1059.5 661.5 c 128,-1,58
 1094 612 1094 612 1112.5 554 c 128,-1,59
 1131 496 1131 496 1131 432 c 0,60,61
 1131 345 1131 345 1090 263 c 128,-1,62
 1049 181 1049 181 971.5 117 c 128,-1,63
 894 53 894 53 782.5 14 c 128,-1,64
 671 -25 671 -25 530 -25 c 0,65,66
 457 -25 457 -25 397 -16 c 128,-1,67
 337 -7 337 -7 286 10 c 128,-1,68
 235 27 235 27 190.5 51.5 c 128,-1,69
 146 76 146 76 104 108 c 1,70,-1
 100 385 l 1,0,-1
EndSplineSet
EndChar

StartChar: four
Encoding: 52 52 59
Width: 1232
Flags: W
LayerCount: 2
Fore
SplineSet
20 404 m 1,0,-1
 652 1332 l 1,1,-1
 915 1332 l 1,2,-1
 915 630 l 1,3,4
 993 630 993 630 1063 636 c 128,-1,5
 1133 642 1133 642 1187 656 c 1,6,-1
 1192 649 l 1,7,-1
 1079 390 l 1,8,-1
 915 390 l 1,9,-1
 915 0 l 1,10,-1
 660 0 l 1,11,-1
 660 390 l 1,12,-1
 24 390 l 1,13,-1
 20 404 l 1,0,-1
660 630 m 1,14,-1
 660 938 l 1,15,-1
 454 630 l 1,16,-1
 660 630 l 1,14,-1
EndSplineSet
EndChar

StartChar: five
Encoding: 53 53 60
Width: 1339
Flags: W
LayerCount: 2
Fore
SplineSet
120 426 m 1,0,-1
 130 433 l 1,1,2
 167 378 167 378 221.5 337 c 128,-1,3
 276 296 276 296 343 269 c 128,-1,4
 410 242 410 242 488 228.5 c 128,-1,5
 566 215 566 215 650 215 c 0,6,7
 739 215 739 215 805 232.5 c 128,-1,8
 871 250 871 250 915 281.5 c 128,-1,9
 959 313 959 313 980.5 356 c 128,-1,10
 1002 399 1002 399 1002 449 c 0,11,12
 1002 500 1002 500 972 543 c 128,-1,13
 942 586 942 586 888 617.5 c 128,-1,14
 834 649 834 649 758 667 c 128,-1,15
 682 685 682 685 590 685 c 0,16,17
 475 685 475 685 373 664 c 128,-1,18
 271 643 271 643 193 604 c 1,19,-1
 193 1330 l 1,20,-1
 830 1330 l 2,21,22
 857 1330 857 1330 888.5 1331 c 128,-1,23
 920 1332 920 1332 949 1335.5 c 128,-1,24
 978 1339 978 1339 1002 1345.5 c 128,-1,25
 1026 1352 1026 1352 1037 1362 c 1,26,-1
 1041 1359 l 1,27,-1
 1017 1111 l 1,28,29
 1005 1105 1005 1105 990.5 1101 c 128,-1,30
 976 1097 976 1097 955 1094.5 c 128,-1,31
 934 1092 934 1092 905 1091 c 128,-1,32
 876 1090 876 1090 834 1090 c 2,33,-1
 448 1090 l 1,34,-1
 448 900 l 1,35,36
 496 911 496 911 549.5 917.5 c 128,-1,37
 603 924 603 924 651 924 c 0,38,39
 801 924 801 924 914.5 887 c 128,-1,40
 1028 850 1028 850 1104.5 788.5 c 128,-1,41
 1181 727 1181 727 1220 648 c 128,-1,42
 1259 569 1259 569 1259 486 c 0,43,44
 1259 374 1259 374 1210.5 280 c 128,-1,45
 1162 186 1162 186 1076 118.5 c 128,-1,46
 990 51 990 51 871.5 13 c 128,-1,47
 753 -25 753 -25 612 -25 c 0,48,49
 453 -25 453 -25 336 9.5 c 128,-1,50
 219 44 219 44 131 113 c 1,51,-1
 120 426 l 1,0,-1
EndSplineSet
EndChar

StartChar: six
Encoding: 54 54 61
Width: 1398
Flags: W
LayerCount: 2
Fore
SplineSet
120 610 m 0,0,1
 120 705 120 705 141 797.5 c 128,-1,2
 162 890 162 890 204 972.5 c 128,-1,3
 246 1055 246 1055 308.5 1125 c 128,-1,4
 371 1195 371 1195 453.5 1246.5 c 128,-1,5
 536 1298 536 1298 638 1326.5 c 128,-1,6
 740 1355 740 1355 862 1355 c 0,7,8
 956 1355 956 1355 1029.5 1339.5 c 128,-1,9
 1103 1324 1103 1324 1163 1296 c 1,10,-1
 1172 1040 l 1,11,-1
 1168 1034 l 1,12,13
 1138 1056 1138 1056 1099 1071 c 128,-1,14
 1060 1086 1060 1086 1016.5 1096 c 128,-1,15
 973 1106 973 1106 928.5 1110.5 c 128,-1,16
 884 1115 884 1115 844 1115 c 0,17,18
 747 1115 747 1115 662 1080.5 c 128,-1,19
 577 1046 577 1046 513.5 984.5 c 128,-1,20
 450 923 450 923 413 839 c 128,-1,21
 376 755 376 755 375 655 c 1,22,23
 412 734 412 734 463 789 c 128,-1,24
 514 844 514 844 574.5 878 c 128,-1,25
 635 912 635 912 702.5 927.5 c 128,-1,26
 770 943 770 943 839 943 c 0,27,28
 930 943 930 943 1013.5 910.5 c 128,-1,29
 1097 878 1097 878 1160 818.5 c 128,-1,30
 1223 759 1223 759 1260.5 676 c 128,-1,31
 1298 593 1298 593 1298 493 c 0,32,33
 1298 381 1298 381 1253.5 286 c 128,-1,34
 1209 191 1209 191 1132.5 122 c 128,-1,35
 1056 53 1056 53 954.5 14 c 128,-1,36
 853 -25 853 -25 738 -25 c 0,37,38
 595 -25 595 -25 480.5 25.5 c 128,-1,39
 366 76 366 76 286 163 c 128,-1,40
 206 250 206 250 163 365.5 c 128,-1,41
 120 481 120 481 120 610 c 0,0,1
502 316 m 1,42,43
 550 268 550 268 608 241.5 c 128,-1,44
 666 215 666 215 730 215 c 0,45,46
 795 215 795 215 852 233.5 c 128,-1,47
 909 252 909 252 951 286.5 c 128,-1,48
 993 321 993 321 1017.5 371.5 c 128,-1,49
 1042 422 1042 422 1042 485 c 0,50,51
 1042 529 1042 529 1027 568.5 c 128,-1,52
 1012 608 1012 608 982 638 c 128,-1,53
 952 668 952 668 908 685.5 c 128,-1,54
 864 703 864 703 806 703 c 0,55,56
 741 703 741 703 685 674 c 128,-1,57
 629 645 629 645 587.5 597.5 c 128,-1,58
 546 550 546 550 522 489 c 128,-1,59
 498 428 498 428 498 365 c 0,60,61
 498 353 498 353 499 340.5 c 128,-1,62
 500 328 500 328 502 316 c 1,42,43
EndSplineSet
EndChar

StartChar: nine
Encoding: 57 57 62
Width: 1384
Flags: W
LayerCount: 2
Fore
SplineSet
161 118 m 1,0,1
 161 198 161 198 160.5 252 c 128,-1,2
 160 306 160 306 158.5 341.5 c 128,-1,3
 157 377 157 377 155 397 c 128,-1,4
 153 417 153 417 150 429 c 1,5,-1
 154 435 l 1,6,7
 188 383 188 383 236.5 342.5 c 128,-1,8
 285 302 285 302 344.5 273.5 c 128,-1,9
 404 245 404 245 472.5 230 c 128,-1,10
 541 215 541 215 614 215 c 0,11,12
 710 215 710 215 788 242 c 128,-1,13
 866 269 866 269 921 322 c 128,-1,14
 976 375 976 375 1006 453 c 128,-1,15
 1036 531 1036 531 1036 633 c 2,16,-1
 1036 657 l 1,17,18
 1000 599 1000 599 952.5 555.5 c 128,-1,19
 905 512 905 512 850.5 482.5 c 128,-1,20
 796 453 796 453 736 438.5 c 128,-1,21
 676 424 676 424 615 424 c 0,22,23
 507 424 507 424 416 456 c 128,-1,24
 325 488 325 488 259.5 546.5 c 128,-1,25
 194 605 194 605 157 687 c 128,-1,26
 120 769 120 769 120 868 c 0,27,28
 120 965 120 965 160 1053.5 c 128,-1,29
 200 1142 200 1142 275 1209 c 128,-1,30
 350 1276 350 1276 457 1315.5 c 128,-1,31
 564 1355 564 1355 698 1355 c 0,32,33
 847 1355 847 1355 957.5 1299 c 128,-1,34
 1068 1243 1068 1243 1140.5 1147 c 128,-1,35
 1213 1051 1213 1051 1248.5 924 c 128,-1,36
 1284 797 1284 797 1284 655 c 256,37,38
 1284 513 1284 513 1239 389 c 128,-1,39
 1194 265 1194 265 1106.5 173 c 128,-1,40
 1019 81 1019 81 891 28 c 128,-1,41
 763 -25 763 -25 598 -25 c 0,42,43
 466 -25 466 -25 357.5 11.5 c 128,-1,44
 249 48 249 48 161 118 c 1,0,1
626 666 m 0,45,46
 691 666 691 666 749 684.5 c 128,-1,47
 807 703 807 703 850.5 734 c 128,-1,48
 894 765 894 765 919.5 806.5 c 128,-1,49
 945 848 945 848 945 895 c 0,50,51
 945 938 945 938 927.5 977.5 c 128,-1,52
 910 1017 910 1017 877 1047 c 128,-1,53
 844 1077 844 1077 795.5 1095 c 128,-1,54
 747 1113 747 1113 686 1113 c 0,55,56
 617 1113 617 1113 559.5 1096 c 128,-1,57
 502 1079 502 1079 461 1048.5 c 128,-1,58
 420 1018 420 1018 397.5 976 c 128,-1,59
 375 934 375 934 375 883 c 0,60,61
 375 830 375 830 395 790 c 128,-1,62
 415 750 415 750 449.5 722 c 128,-1,63
 484 694 484 694 529.5 680 c 128,-1,64
 575 666 575 666 626 666 c 0,45,46
EndSplineSet
EndChar

StartChar: eight
Encoding: 56 56 63
Width: 1418
Flags: W
LayerCount: 2
Fore
SplineSet
121 429 m 0,0,1
 121 523 121 523 166.5 606.5 c 128,-1,2
 212 690 212 690 308 753 c 1,3,4
 266 802 266 802 244 860 c 128,-1,5
 222 918 222 918 222 972 c 0,6,7
 222 1050 222 1050 254.5 1120 c 128,-1,8
 287 1190 287 1190 351 1242.5 c 128,-1,9
 415 1295 415 1295 510 1326 c 128,-1,10
 605 1357 605 1357 730 1357 c 0,11,12
 854 1357 854 1357 948 1323.5 c 128,-1,13
 1042 1290 1042 1290 1105 1237 c 128,-1,14
 1168 1184 1168 1184 1200 1119.5 c 128,-1,15
 1232 1055 1232 1055 1232 994 c 0,16,17
 1232 954 1232 954 1222 916.5 c 128,-1,18
 1212 879 1212 879 1194 845 c 128,-1,19
 1176 811 1176 811 1152 781.5 c 128,-1,20
 1128 752 1128 752 1100 728 c 1,21,22
 1200 686 1200 686 1247 610.5 c 128,-1,23
 1294 535 1294 535 1294 421 c 0,24,25
 1294 328 1294 328 1251 246 c 128,-1,26
 1208 164 1208 164 1130 103 c 128,-1,27
 1052 42 1052 42 942.5 7 c 128,-1,28
 833 -28 833 -28 701 -28 c 0,29,30
 588 -28 588 -28 483.5 2.5 c 128,-1,31
 379 33 379 33 298.5 91.5 c 128,-1,32
 218 150 218 150 169.5 235 c 128,-1,33
 121 320 121 320 121 429 c 0,0,1
477 978 m 0,34,35
 477 945 477 945 498 915.5 c 128,-1,36
 519 886 519 886 565.5 860.5 c 128,-1,37
 612 835 612 835 686 815 c 128,-1,38
 760 795 760 795 867 781 c 1,39,40
 919 810 919 810 948 856 c 128,-1,41
 977 902 977 902 977 950 c 0,42,43
 977 986 977 986 960 1016.5 c 128,-1,44
 943 1047 943 1047 910 1069.5 c 128,-1,45
 877 1092 877 1092 828.5 1104.5 c 128,-1,46
 780 1117 780 1117 717 1117 c 0,47,48
 602 1117 602 1117 539.5 1079 c 128,-1,49
 477 1041 477 1041 477 978 c 0,34,35
376 435 m 0,50,51
 376 386 376 386 399.5 345 c 128,-1,52
 423 304 423 304 469.5 274.5 c 128,-1,53
 516 245 516 245 584.5 228.5 c 128,-1,54
 653 212 653 212 742 212 c 0,55,56
 812 212 812 212 867 226 c 128,-1,57
 922 240 922 240 960 264.5 c 128,-1,58
 998 289 998 289 1018.5 321 c 128,-1,59
 1039 353 1039 353 1039 389 c 0,60,61
 1039 423 1039 423 1019 449 c 128,-1,62
 999 475 999 475 961.5 494.5 c 128,-1,63
 924 514 924 514 869 527.5 c 128,-1,64
 814 541 814 541 744 552 c 0,65,66
 694 559 694 559 655.5 567 c 128,-1,67
 617 575 617 575 587 583 c 128,-1,68
 557 591 557 591 534 599 c 128,-1,69
 511 607 511 607 492 615 c 1,70,71
 434 577 434 577 405 530 c 128,-1,72
 376 483 376 483 376 435 c 0,50,51
EndSplineSet
EndChar

StartChar: seven
Encoding: 55 55 64
Width: 1118
Flags: W
LayerCount: 2
Fore
SplineSet
328 0 m 1,0,1
 328 38 328 38 339 105.5 c 128,-1,2
 350 173 350 173 371.5 260.5 c 128,-1,3
 393 348 393 348 425.5 451.5 c 128,-1,4
 458 555 458 555 500 664 c 128,-1,5
 542 773 542 773 593.5 883 c 128,-1,6
 645 993 645 993 706 1095 c 1,7,-1
 203 1087 l 2,8,9
 170 1087 170 1087 146.5 1085.5 c 128,-1,10
 123 1084 123 1084 107.5 1080.5 c 128,-1,11
 92 1077 92 1077 82 1072.5 c 128,-1,12
 72 1068 72 1068 65 1062 c 1,13,-1
 58 1067 l 1,14,-1
 58 1337 l 1,15,-1
 670 1334 l 2,16,17
 718 1334 718 1334 777.5 1334 c 128,-1,18
 837 1334 837 1334 897 1335 c 128,-1,19
 957 1336 957 1336 1012.5 1337.5 c 128,-1,20
 1068 1339 1068 1339 1108 1341 c 1,21,-1
 928 971 l 2,22,23
 854 819 854 819 800 694 c 128,-1,24
 746 569 746 569 711 466 c 128,-1,25
 676 363 676 363 659.5 279 c 128,-1,26
 643 195 643 195 643 126 c 0,27,28
 643 100 643 100 644 71.5 c 128,-1,29
 645 43 645 43 650 0 c 1,30,-1
 328 0 l 1,0,1
EndSplineSet
EndChar

StartChar: zero
Encoding: 48 48 65
Width: 1325
Flags: W
LayerCount: 2
Fore
SplineSet
100 637 m 0,0,1
 100 784 100 784 143 914.5 c 128,-1,2
 186 1045 186 1045 263.5 1143 c 128,-1,3
 341 1241 341 1241 449.5 1298 c 128,-1,4
 558 1355 558 1355 690 1355 c 0,5,6
 817 1355 817 1355 916.5 1305.5 c 128,-1,7
 1016 1256 1016 1256 1084.5 1166.5 c 128,-1,8
 1153 1077 1153 1077 1189 952.5 c 128,-1,9
 1225 828 1225 828 1225 679 c 0,10,11
 1225 506 1225 506 1179 374 c 128,-1,12
 1133 242 1133 242 1054.5 153.5 c 128,-1,13
 976 65 976 65 872 20 c 128,-1,14
 768 -25 768 -25 653 -25 c 0,15,16
 533 -25 533 -25 432 23 c 128,-1,17
 331 71 331 71 257 158 c 128,-1,18
 183 245 183 245 141.5 367 c 128,-1,19
 100 489 100 489 100 637 c 0,0,1
676 215 m 0,20,21
 731 215 731 215 783.5 243.5 c 128,-1,22
 836 272 836 272 877.5 327.5 c 128,-1,23
 919 383 919 383 944.5 465.5 c 128,-1,24
 970 548 970 548 970 657 c 0,25,26
 970 762 970 762 950.5 846.5 c 128,-1,27
 931 931 931 931 892.5 991 c 128,-1,28
 854 1051 854 1051 798 1083.5 c 128,-1,29
 742 1116 742 1116 670 1116 c 256,30,31
 598 1116 598 1116 539.5 1084 c 128,-1,32
 481 1052 481 1052 440 992 c 128,-1,33
 399 932 399 932 377 845 c 128,-1,34
 355 758 355 758 355 648 c 0,35,36
 355 557 355 557 378 478 c 128,-1,37
 401 399 401 399 443.5 340.5 c 128,-1,38
 486 282 486 282 545 248.5 c 128,-1,39
 604 215 604 215 676 215 c 0,20,21
EndSplineSet
EndChar

StartChar: period
Encoding: 46 46 66
Width: 530
Flags: W
LayerCount: 2
Fore
SplineSet
119 0 m 1,0,1
 124 34 124 34 126 69 c 128,-1,2
 128 104 128 104 128 139 c 0,3,4
 128 155 128 155 127.5 172.5 c 128,-1,5
 127 190 127 190 126 207 c 128,-1,6
 125 224 125 224 123.5 239 c 128,-1,7
 122 254 122 254 121 264 c 1,8,-1
 411 264 l 1,9,10
 409 236 409 236 407.5 196.5 c 128,-1,11
 406 157 406 157 406 126 c 0,12,13
 406 91 406 91 406.5 60 c 128,-1,14
 407 29 407 29 411 0 c 1,15,-1
 119 0 l 1,0,1
EndSplineSet
EndChar

StartChar: colon
Encoding: 58 58 67
Width: 530
Flags: W
LayerCount: 2
Fore
SplineSet
119 610 m 1,0,1
 124 644 124 644 126 679 c 128,-1,2
 128 714 128 714 128 749 c 0,3,4
 128 765 128 765 127.5 782.5 c 128,-1,5
 127 800 127 800 126 817 c 128,-1,6
 125 834 125 834 123.5 849 c 128,-1,7
 122 864 122 864 121 874 c 1,8,-1
 411 874 l 1,9,10
 409 846 409 846 407.5 806.5 c 128,-1,11
 406 767 406 767 406 736 c 0,12,13
 406 701 406 701 406.5 670 c 128,-1,14
 407 639 407 639 411 610 c 1,15,-1
 119 610 l 1,0,1
119 0 m 1,16,17
 124 34 124 34 126 69 c 128,-1,18
 128 104 128 104 128 139 c 0,19,20
 128 155 128 155 127.5 172.5 c 128,-1,21
 127 190 127 190 126 207 c 128,-1,22
 125 224 125 224 123.5 239 c 128,-1,23
 122 254 122 254 121 264 c 1,24,-1
 411 264 l 1,25,26
 409 236 409 236 407.5 196.5 c 128,-1,27
 406 157 406 157 406 126 c 0,28,29
 406 91 406 91 406.5 60 c 128,-1,30
 407 29 407 29 411 0 c 1,31,-1
 119 0 l 1,16,17
EndSplineSet
EndChar

StartChar: comma
Encoding: 44 44 68
Width: 530
Flags: W
LayerCount: 2
Fore
SplineSet
157 43 m 0,0,1
 157 82 157 82 155 125.5 c 128,-1,2
 153 169 153 169 146 220 c 1,3,-1
 395 260 l 1,4,5
 399 232 399 232 402 209 c 128,-1,6
 405 186 405 186 407 165 c 128,-1,7
 409 144 409 144 410 124 c 128,-1,8
 411 104 411 104 411 82 c 0,9,10
 411 33 411 33 405 -17 c 128,-1,11
 399 -67 399 -67 388.5 -109.5 c 128,-1,12
 378 -152 378 -152 364.5 -182.5 c 128,-1,13
 351 -213 351 -213 337 -222 c 0,14,15
 326 -229 326 -229 307.5 -237 c 128,-1,16
 289 -245 289 -245 261.5 -253.5 c 128,-1,17
 234 -262 234 -262 194.5 -271.5 c 128,-1,18
 155 -281 155 -281 102 -292 c 1,19,-1
 96 -286 l 1,20,21
 105 -270 105 -270 115.5 -235.5 c 128,-1,22
 126 -201 126 -201 135.5 -156 c 128,-1,23
 145 -111 145 -111 151 -59 c 128,-1,24
 157 -7 157 -7 157 43 c 0,0,1
EndSplineSet
EndChar

StartChar: semicolon
Encoding: 59 59 69
Width: 530
Flags: W
LayerCount: 2
Fore
SplineSet
132 450 m 1,0,1
 136 481 136 481 138 512.5 c 128,-1,2
 140 544 140 544 140 576 c 0,3,4
 140 605 140 605 138 638 c 128,-1,5
 136 671 136 671 134 690 c 1,6,-1
 397 690 l 1,7,8
 395 665 395 665 394 628.5 c 128,-1,9
 393 592 393 592 393 564 c 0,10,11
 393 532 393 532 393.5 504 c 128,-1,12
 394 476 394 476 397 450 c 1,13,-1
 132 450 l 1,0,1
157 43 m 0,14,15
 157 82 157 82 155 125.5 c 128,-1,16
 153 169 153 169 146 220 c 1,17,-1
 395 260 l 1,18,19
 399 232 399 232 402 209 c 128,-1,20
 405 186 405 186 407 165 c 128,-1,21
 409 144 409 144 410 124 c 128,-1,22
 411 104 411 104 411 82 c 0,23,24
 411 33 411 33 405 -17 c 128,-1,25
 399 -67 399 -67 388.5 -109.5 c 128,-1,26
 378 -152 378 -152 364.5 -182.5 c 128,-1,27
 351 -213 351 -213 337 -222 c 0,28,29
 326 -229 326 -229 307.5 -237 c 128,-1,30
 289 -245 289 -245 261.5 -253.5 c 128,-1,31
 234 -262 234 -262 194.5 -271.5 c 128,-1,32
 155 -281 155 -281 102 -292 c 1,33,-1
 96 -286 l 1,34,35
 105 -270 105 -270 115.5 -235.5 c 128,-1,36
 126 -201 126 -201 135.5 -156 c 128,-1,37
 145 -111 145 -111 151 -59 c 128,-1,38
 157 -7 157 -7 157 43 c 0,14,15
EndSplineSet
EndChar

StartChar: periodcentered
Encoding: 183 183 70
Width: 530
Flags: W
LayerCount: 2
Fore
SplineSet
119 600 m 1,0,1
 124 634 124 634 126 669 c 128,-1,2
 128 704 128 704 128 739 c 0,3,4
 128 755 128 755 127.5 772.5 c 128,-1,5
 127 790 127 790 126 807 c 128,-1,6
 125 824 125 824 123.5 839 c 128,-1,7
 122 854 122 854 121 864 c 1,8,-1
 411 864 l 1,9,10
 409 836 409 836 407.5 796.5 c 128,-1,11
 406 757 406 757 406 726 c 0,12,13
 406 691 406 691 406.5 660 c 128,-1,14
 407 629 407 629 411 600 c 1,15,-1
 119 600 l 1,0,1
EndSplineSet
EndChar

StartChar: bullet
Encoding: 8226 8226 71
Width: 836
Flags: W
LayerCount: 2
Fore
SplineSet
422 479 m 0,0,1
 367 479 367 479 318 495.5 c 128,-1,2
 269 512 269 512 231.5 542.5 c 128,-1,3
 194 573 194 573 172 615.5 c 128,-1,4
 150 658 150 658 150 711 c 0,5,6
 150 756 150 756 168.5 798.5 c 128,-1,7
 187 841 187 841 221.5 873.5 c 128,-1,8
 256 906 256 906 305 925.5 c 128,-1,9
 354 945 354 945 414 945 c 0,10,11
 475 945 475 945 525.5 925 c 128,-1,12
 576 905 576 905 611.5 872 c 128,-1,13
 647 839 647 839 666.5 797.5 c 128,-1,14
 686 756 686 756 686 713 c 0,15,16
 686 658 686 658 664.5 614.5 c 128,-1,17
 643 571 643 571 607 541 c 128,-1,18
 571 511 571 511 523 495 c 128,-1,19
 475 479 475 479 422 479 c 0,0,1
EndSplineSet
EndChar

StartChar: exclamdown
Encoding: 161 161 72
Width: 530
Flags: W
LayerCount: 2
Fore
SplineSet
134 1090 m 1,0,1
 136 1109 136 1109 138 1142 c 128,-1,2
 140 1175 140 1175 140 1204 c 0,3,4
 140 1236 140 1236 138 1267.5 c 128,-1,5
 136 1299 136 1299 132 1330 c 1,6,-1
 397 1330 l 1,7,8
 394 1304 394 1304 393.5 1276 c 128,-1,9
 393 1248 393 1248 393 1216 c 0,10,11
 393 1188 393 1188 394 1151.5 c 128,-1,12
 395 1115 395 1115 397 1090 c 1,13,-1
 134 1090 l 1,0,1
136 950 m 1,14,-1
 216 950 l 2,15,16
 246 950 246 950 274 950.5 c 128,-1,17
 302 951 302 951 325 952 c 128,-1,18
 348 953 348 953 365 954 c 128,-1,19
 382 955 382 955 391 956 c 1,20,-1
 395 -32 l 1,21,22
 379 -28 379 -28 340 -26 c 128,-1,23
 301 -24 301 -24 247 -24 c 0,24,25
 235 -24 235 -24 225.5 -24 c 128,-1,26
 216 -24 216 -24 204 -24.5 c 128,-1,27
 192 -25 192 -25 175.5 -26 c 128,-1,28
 159 -27 159 -27 134 -28 c 1,29,-1
 136 950 l 1,14,-1
EndSplineSet
EndChar

StartChar: questiondown
Encoding: 191 191 73
Width: 956
Flags: W
LayerCount: 2
Fore
SplineSet
323 1090 m 1,0,1
 325 1109 325 1109 327 1142 c 128,-1,2
 329 1175 329 1175 329 1204 c 0,3,4
 329 1236 329 1236 327 1267.5 c 128,-1,5
 325 1299 325 1299 321 1330 c 1,6,-1
 586 1330 l 1,7,8
 583 1304 583 1304 582.5 1276 c 128,-1,9
 582 1248 582 1248 582 1216 c 0,10,11
 582 1188 582 1188 583 1151.5 c 128,-1,12
 584 1115 584 1115 586 1090 c 1,13,-1
 323 1090 l 1,0,1
80 89 m 1,14,15
 93 134 93 134 101.5 164.5 c 128,-1,16
 110 195 110 195 115.5 215.5 c 128,-1,17
 121 236 121 236 123.5 249 c 128,-1,18
 126 262 126 262 127 271 c 0,19,20
 129 287 129 287 130 296 c 128,-1,21
 131 305 131 305 131 315 c 2,22,-1
 131 328 l 1,23,-1
 138 326 l 1,24,25
 159 286 159 286 192 257.5 c 128,-1,26
 225 229 225 229 263 210.5 c 128,-1,27
 301 192 301 192 340 183.5 c 128,-1,28
 379 175 379 175 411 175 c 0,29,30
 456 175 456 175 495.5 185.5 c 128,-1,31
 535 196 535 196 565 216 c 128,-1,32
 595 236 595 236 612 264.5 c 128,-1,33
 629 293 629 293 629 329 c 0,34,35
 629 351 629 351 623.5 371 c 128,-1,36
 618 391 618 391 603 413 c 128,-1,37
 588 435 588 435 561.5 461.5 c 128,-1,38
 535 488 535 488 493 523 c 0,39,40
 431 575 431 575 392.5 617 c 128,-1,41
 354 659 354 659 332 694 c 128,-1,42
 310 729 310 729 302.5 757 c 128,-1,43
 295 785 295 785 295 809 c 0,44,45
 295 872 295 872 326 917.5 c 128,-1,46
 357 963 357 963 420 987 c 1,47,48
 439 978 439 978 463 965 c 128,-1,49
 487 952 487 952 512.5 936.5 c 128,-1,50
 538 921 538 921 563 905 c 128,-1,51
 588 889 588 889 608 874 c 1,52,53
 586 870 586 870 568.5 852.5 c 128,-1,54
 551 835 551 835 551 807 c 0,55,56
 551 795 551 795 555 780.5 c 128,-1,57
 559 766 559 766 574 745 c 128,-1,58
 589 724 589 724 619 693 c 128,-1,59
 649 662 649 662 701 617 c 0,60,61
 755 569 755 569 791 528.5 c 128,-1,62
 827 488 827 488 848 451.5 c 128,-1,63
 869 415 869 415 877.5 381 c 128,-1,64
 886 347 886 347 886 313 c 0,65,66
 886 244 886 244 854.5 179 c 128,-1,67
 823 114 823 114 765.5 64.5 c 128,-1,68
 708 15 708 15 627 -15 c 128,-1,69
 546 -45 546 -45 447 -45 c 0,70,71
 326 -45 326 -45 238 -11 c 128,-1,72
 150 23 150 23 80 89 c 1,14,15
EndSplineSet
EndChar

StartChar: percent
Encoding: 37 37 74
Width: 2158
Flags: W
LayerCount: 2
Fore
SplineSet
517 612 m 0,0,1
 433 612 433 612 360 639 c 128,-1,2
 287 666 287 666 234 714.5 c 128,-1,3
 181 763 181 763 150.5 830 c 128,-1,4
 120 897 120 897 120 977 c 0,5,6
 120 1045 120 1045 145.5 1112.5 c 128,-1,7
 171 1180 171 1180 223 1234 c 128,-1,8
 275 1288 275 1288 353.5 1321.5 c 128,-1,9
 432 1355 432 1355 539 1355 c 0,10,11
 634 1355 634 1355 708 1324 c 128,-1,12
 782 1293 782 1293 833 1241.5 c 128,-1,13
 884 1190 884 1190 910.5 1123 c 128,-1,14
 937 1056 937 1056 937 985 c 0,15,16
 937 910 937 910 907 842.5 c 128,-1,17
 877 775 877 775 822.5 724 c 128,-1,18
 768 673 768 673 690.5 642.5 c 128,-1,19
 613 612 613 612 517 612 c 0,0,1
1378 1330 m 1,20,-1
 1623 1330 l 1,21,-1
 743 0 l 1,22,-1
 498 0 l 1,23,-1
 1378 1330 l 1,20,-1
535 843 m 0,24,25
 573 843 573 843 603.5 854.5 c 128,-1,26
 634 866 634 866 655.5 886 c 128,-1,27
 677 906 677 906 688.5 932.5 c 128,-1,28
 700 959 700 959 700 988 c 0,29,30
 700 1014 700 1014 688.5 1039.5 c 128,-1,31
 677 1065 677 1065 655.5 1085 c 128,-1,32
 634 1105 634 1105 602 1117.5 c 128,-1,33
 570 1130 570 1130 529 1130 c 0,34,35
 489 1130 489 1130 458 1118 c 128,-1,36
 427 1106 427 1106 405.5 1086 c 128,-1,37
 384 1066 384 1066 373 1039.5 c 128,-1,38
 362 1013 362 1013 362 985 c 256,39,40
 362 957 362 957 373.5 931.5 c 128,-1,41
 385 906 385 906 407 886.5 c 128,-1,42
 429 867 429 867 461 855 c 128,-1,43
 493 843 493 843 535 843 c 0,24,25
1221 340 m 0,44,45
 1221 408 1221 408 1246.5 475.5 c 128,-1,46
 1272 543 1272 543 1324 597 c 128,-1,47
 1376 651 1376 651 1454.5 684.5 c 128,-1,48
 1533 718 1533 718 1640 718 c 0,49,50
 1735 718 1735 718 1809 687 c 128,-1,51
 1883 656 1883 656 1934 604.5 c 128,-1,52
 1985 553 1985 553 2011.5 486 c 128,-1,53
 2038 419 2038 419 2038 348 c 0,54,55
 2038 273 2038 273 2008 205.5 c 128,-1,56
 1978 138 1978 138 1923.5 87 c 128,-1,57
 1869 36 1869 36 1791.5 5.5 c 128,-1,58
 1714 -25 1714 -25 1618 -25 c 0,59,60
 1534 -25 1534 -25 1461 2 c 128,-1,61
 1388 29 1388 29 1335 77.5 c 128,-1,62
 1282 126 1282 126 1251.5 193 c 128,-1,63
 1221 260 1221 260 1221 340 c 0,44,45
1463 348 m 256,64,65
 1463 320 1463 320 1474.5 294.5 c 128,-1,66
 1486 269 1486 269 1508 249.5 c 128,-1,67
 1530 230 1530 230 1562 218 c 128,-1,68
 1594 206 1594 206 1636 206 c 0,69,70
 1674 206 1674 206 1704.5 217.5 c 128,-1,71
 1735 229 1735 229 1756.5 249 c 128,-1,72
 1778 269 1778 269 1789.5 295.5 c 128,-1,73
 1801 322 1801 322 1801 351 c 0,74,75
 1801 377 1801 377 1789.5 402.5 c 128,-1,76
 1778 428 1778 428 1756.5 448 c 128,-1,77
 1735 468 1735 468 1703 480.5 c 128,-1,78
 1671 493 1671 493 1630 493 c 0,79,80
 1590 493 1590 493 1559 481 c 128,-1,81
 1528 469 1528 469 1506.5 449 c 128,-1,82
 1485 429 1485 429 1474 402.5 c 128,-1,83
 1463 376 1463 376 1463 348 c 256,64,65
EndSplineSet
EndChar

StartChar: dollar
Encoding: 36 36 75
Width: 1125
Flags: W
LayerCount: 2
Fore
SplineSet
149 362 m 1,0,-1
 156 368 l 1,1,2
 174 341 174 341 214 313.5 c 128,-1,3
 254 286 254 286 306.5 264 c 128,-1,4
 359 242 359 242 419 228.5 c 128,-1,5
 479 215 479 215 538 215 c 0,6,7
 589 215 589 215 631 227 c 128,-1,8
 673 239 673 239 703 260 c 128,-1,9
 733 281 733 281 750 309 c 128,-1,10
 767 337 767 337 767 369 c 0,11,12
 767 395 767 395 756.5 417 c 128,-1,13
 746 439 746 439 720 460 c 128,-1,14
 694 481 694 481 650.5 503 c 128,-1,15
 607 525 607 525 541 551 c 0,16,17
 435 593 435 593 364.5 636 c 128,-1,18
 294 679 294 679 251.5 727 c 128,-1,19
 209 775 209 775 191.5 830 c 128,-1,20
 174 885 174 885 174 950 c 0,21,22
 174 1008 174 1008 196.5 1066.5 c 128,-1,23
 219 1125 219 1125 261 1176 c 128,-1,24
 303 1227 303 1227 362.5 1267.5 c 128,-1,25
 422 1308 422 1308 497 1331 c 1,26,-1
 497 1411 l 2,27,28
 497 1468 497 1468 494.5 1499.5 c 128,-1,29
 492 1531 492 1531 488 1546 c 1,30,-1
 757 1546 l 1,31,32
 755 1517 755 1517 754 1485.5 c 128,-1,33
 753 1454 753 1454 753 1422 c 2,34,-1
 753 1348 l 1,35,36
 857 1333 857 1333 950 1284 c 1,37,-1
 919 1037 l 1,38,-1
 912 1035 l 1,39,40
 877 1054 877 1054 839 1069 c 128,-1,41
 801 1084 801 1084 764.5 1094.5 c 128,-1,42
 728 1105 728 1105 695 1110.5 c 128,-1,43
 662 1116 662 1116 637 1116 c 0,44,45
 589 1116 589 1116 550.5 1103.5 c 128,-1,46
 512 1091 512 1091 485 1071.5 c 128,-1,47
 458 1052 458 1052 444 1027 c 128,-1,48
 430 1002 430 1002 430 977 c 0,49,50
 430 954 430 954 441.5 931.5 c 128,-1,51
 453 909 453 909 480 886.5 c 128,-1,52
 507 864 507 864 552 841.5 c 128,-1,53
 597 819 597 819 665 797 c 0,54,55
 767 763 767 763 836 723.5 c 128,-1,56
 905 684 905 684 947 637.5 c 128,-1,57
 989 591 989 591 1007 536.5 c 128,-1,58
 1025 482 1025 482 1025 418 c 0,59,60
 1025 353 1025 353 1002.5 285 c 128,-1,61
 980 217 980 217 934 157.5 c 128,-1,62
 888 98 888 98 818 52.5 c 128,-1,63
 748 7 748 7 653 -12 c 1,64,-1
 653 -71 l 2,65,66
 653 -103 653 -103 654 -134.5 c 128,-1,67
 655 -166 655 -166 657 -195 c 1,68,-1
 388 -195 l 1,69,70
 392 -180 392 -180 394.5 -148.5 c 128,-1,71
 397 -117 397 -117 397 -60 c 2,72,-1
 397 -13 l 1,73,74
 304 3 304 3 230.5 36.5 c 128,-1,75
 157 70 157 70 120 110 c 1,76,-1
 149 362 l 1,0,-1
EndSplineSet
EndChar

StartChar: cent
Encoding: 162 162 76
Width: 1257
Flags: W
LayerCount: 2
Fore
SplineSet
129 496 m 0,0,1
 129 605 129 605 165.5 698.5 c 128,-1,2
 202 792 202 792 268 865 c 128,-1,3
 334 938 334 938 426.5 986.5 c 128,-1,4
 519 1035 519 1035 630 1054 c 1,5,-1
 630 1121 l 2,6,7
 630 1178 630 1178 627.5 1209.5 c 128,-1,8
 625 1241 625 1241 621 1256 c 1,9,-1
 890 1256 l 1,10,11
 888 1227 888 1227 887 1195.5 c 128,-1,12
 886 1164 886 1164 886 1132 c 2,13,-1
 886 1060 l 1,14,15
 964 1054 964 1054 1031.5 1041.5 c 128,-1,16
 1099 1029 1099 1029 1150 1009 c 1,17,-1
 1122 737 l 1,18,-1
 1113 728 l 1,19,20
 1086 751 1086 751 1044 769 c 128,-1,21
 1002 787 1002 787 953 799.5 c 128,-1,22
 904 812 904 812 852 818.5 c 128,-1,23
 800 825 800 825 753 825 c 0,24,25
 661 825 661 825 593 801.5 c 128,-1,26
 525 778 525 778 480 738 c 128,-1,27
 435 698 435 698 413 644.5 c 128,-1,28
 391 591 391 591 391 532 c 0,29,30
 391 466 391 466 416.5 408 c 128,-1,31
 442 350 442 350 491 307.5 c 128,-1,32
 540 265 540 265 610 240 c 128,-1,33
 680 215 680 215 769 215 c 0,34,35
 832 215 832 215 893.5 228.5 c 128,-1,36
 955 242 955 242 1007 267.5 c 128,-1,37
 1059 293 1059 293 1098.5 328 c 128,-1,38
 1138 363 1138 363 1158 407 c 1,39,-1
 1165 401 l 1,40,-1
 1151 106 l 1,41,42
 1106 64 1106 64 1037.5 36.5 c 128,-1,43
 969 9 969 9 893 -5 c 1,44,-1
 893 -71 l 2,45,46
 893 -103 893 -103 894 -134.5 c 128,-1,47
 895 -166 895 -166 897 -195 c 1,48,-1
 628 -195 l 1,49,50
 632 -180 632 -180 634.5 -148.5 c 128,-1,51
 637 -117 637 -117 637 -60 c 2,52,-1
 637 -23 l 1,53,54
 524 -14 524 -14 430.5 29 c 128,-1,55
 337 72 337 72 270 141 c 128,-1,56
 203 210 203 210 166 300.5 c 128,-1,57
 129 391 129 391 129 496 c 0,0,1
EndSplineSet
EndChar

StartChar: sterling
Encoding: 163 163 77
Width: 1265
Flags: W
LayerCount: 2
Fore
SplineSet
140 228 m 1,0,1
 152 235 152 235 171 241.5 c 128,-1,2
 190 248 190 248 212.5 253.5 c 128,-1,3
 235 259 235 259 260.5 263.5 c 128,-1,4
 286 268 286 268 311 271 c 1,5,6
 331 316 331 316 347 372.5 c 128,-1,7
 363 429 363 429 363 482 c 0,8,9
 363 508 363 508 362 531.5 c 128,-1,10
 361 555 361 555 359 576 c 1,11,-1
 184 576 l 1,12,-1
 184 816 l 1,13,-1
 316 816 l 1,14,15
 311 848 311 848 307.5 884 c 128,-1,16
 304 920 304 920 304 968 c 0,17,18
 304 1059 304 1059 336 1131 c 128,-1,19
 368 1203 368 1203 426.5 1252.5 c 128,-1,20
 485 1302 485 1302 567 1328.5 c 128,-1,21
 649 1355 649 1355 750 1355 c 0,22,23
 783 1355 783 1355 823 1353 c 128,-1,24
 863 1351 863 1351 904.5 1345.5 c 128,-1,25
 946 1340 946 1340 986 1332 c 128,-1,26
 1026 1324 1026 1324 1060 1312 c 1,27,-1
 1024 1062 l 1,28,-1
 1022 1057 l 1,29,30
 999 1067 999 1067 963 1077 c 128,-1,31
 927 1087 927 1087 887.5 1095.5 c 128,-1,32
 848 1104 848 1104 809.5 1109.5 c 128,-1,33
 771 1115 771 1115 743 1115 c 0,34,35
 702 1115 702 1115 668.5 1106.5 c 128,-1,36
 635 1098 635 1098 610.5 1079 c 128,-1,37
 586 1060 586 1060 572.5 1028.5 c 128,-1,38
 559 997 559 997 559 952 c 256,39,40
 559 907 559 907 561 874.5 c 128,-1,41
 563 842 563 842 567 816 c 1,42,-1
 823 816 l 2,43,44
 880 816 880 816 910 817 c 128,-1,45
 940 818 940 818 955 822 c 1,46,-1
 958 571 l 1,47,48
 929 574 929 574 897.5 575 c 128,-1,49
 866 576 866 576 834 576 c 2,50,-1
 614 576 l 1,51,52
 616 556 616 556 617 533 c 128,-1,53
 618 510 618 510 618 482 c 0,54,55
 618 428 618 428 609.5 372 c 128,-1,56
 601 316 601 316 582 261 c 1,57,58
 608 256 608 256 631.5 252.5 c 128,-1,59
 655 249 655 249 672 246 c 0,60,61
 695 242 695 242 717.5 237 c 128,-1,62
 740 232 740 232 766 227 c 128,-1,63
 792 222 792 222 824 218.5 c 128,-1,64
 856 215 856 215 898 215 c 0,65,66
 945 215 945 215 977 218 c 128,-1,67
 1009 221 1009 221 1032 228 c 128,-1,68
 1055 235 1055 235 1071.5 244.5 c 128,-1,69
 1088 254 1088 254 1105 268 c 1,70,-1
 1111 269 l 1,71,-1
 1103 9 l 1,72,73
 1061 -8 1061 -8 1023 -16.5 c 128,-1,74
 985 -25 985 -25 931 -25 c 0,75,76
 913 -25 913 -25 887.5 -22 c 128,-1,77
 862 -19 862 -19 830.5 -14.5 c 128,-1,78
 799 -10 799 -10 763.5 -4 c 128,-1,79
 728 2 728 2 691 8 c 0,80,81
 637 17 637 17 605 23 c 128,-1,82
 573 29 573 29 550 33 c 128,-1,83
 527 37 527 37 507.5 38.5 c 128,-1,84
 488 40 488 40 459 40 c 0,85,86
 449 40 449 40 434.5 38.5 c 128,-1,87
 420 37 420 37 402 33 c 1,88,89
 351 7 351 7 302 -5.5 c 128,-1,90
 253 -18 253 -18 190 -26 c 1,91,-1
 140 228 l 1,0,1
EndSplineSet
EndChar

StartChar: Euro
Encoding: 8364 8364 78
Width: 1427
Flags: W
LayerCount: 2
Fore
SplineSet
141 636 m 1,0,-1
 211 636 l 1,1,-1
 211 649 l 2,2,3
 211 672 211 672 212.5 694.5 c 128,-1,4
 214 717 214 717 216 740 c 1,5,-1
 81 740 l 1,6,-1
 144 936 l 1,7,-1
 266 936 l 1,8,9
 307 1033 307 1033 375 1111 c 128,-1,10
 443 1189 443 1189 531.5 1243 c 128,-1,11
 620 1297 620 1297 725.5 1326 c 128,-1,12
 831 1355 831 1355 948 1355 c 0,13,14
 1056 1355 1056 1355 1138.5 1333 c 128,-1,15
 1221 1311 1221 1311 1284 1280 c 1,16,-1
 1214 1022 l 1,17,-1
 1210 1022 l 1,18,19
 1168 1065 1168 1065 1098.5 1090 c 128,-1,20
 1029 1115 1029 1115 942 1115 c 0,21,22
 809 1115 809 1115 709.5 1067.5 c 128,-1,23
 610 1020 610 1020 549 936 c 1,24,-1
 950 936 l 2,25,26
 1007 936 1007 936 1037 937 c 128,-1,27
 1067 938 1067 938 1082 942 c 1,28,-1
 1025 735 l 1,29,30
 996 738 996 738 964.5 739 c 128,-1,31
 933 740 933 740 901 740 c 2,32,-1
 471 740 l 1,33,34
 468 722 468 722 467 704 c 128,-1,35
 466 686 466 686 466 667 c 0,36,37
 466 659 466 659 466 651.5 c 128,-1,38
 466 644 466 644 467 636 c 1,39,-1
 869 636 l 2,40,41
 926 636 926 636 956 637 c 128,-1,42
 986 638 986 638 1001 642 c 1,43,-1
 934 435 l 1,44,45
 905 438 905 438 873.5 439 c 128,-1,46
 842 440 842 440 810 440 c 2,47,-1
 514 440 l 1,48,49
 545 378 545 378 591 335 c 128,-1,50
 637 292 637 292 690.5 265.5 c 128,-1,51
 744 239 744 239 801.5 227 c 128,-1,52
 859 215 859 215 913 215 c 0,53,54
 968 215 968 215 1024.5 227.5 c 128,-1,55
 1081 240 1081 240 1132.5 264 c 128,-1,56
 1184 288 1184 288 1228 322 c 128,-1,57
 1272 356 1272 356 1302 399 c 1,58,-1
 1305 397 l 1,59,-1
 1305 112 l 1,60,61
 1229 49 1229 49 1123 12 c 128,-1,62
 1017 -25 1017 -25 885 -25 c 0,63,64
 758 -25 758 -25 651.5 8 c 128,-1,65
 545 41 545 41 462.5 102 c 128,-1,66
 380 163 380 163 322.5 249 c 128,-1,67
 265 335 265 335 237 440 c 1,68,-1
 80 440 l 1,69,-1
 141 636 l 1,0,-1
EndSplineSet
EndChar

StartChar: yen
Encoding: 165 165 79
Width: 1414
Flags: W
LayerCount: 2
Fore
SplineSet
276 566 m 1,0,-1
 627 566 l 1,1,-1
 627 660 l 1,2,-1
 276 660 l 1,3,-1
 276 856 l 1,4,-1
 493 856 l 1,5,-1
 325 1094 l 2,6,7
 289 1146 289 1146 260.5 1183 c 128,-1,8
 232 1220 232 1220 208 1247 c 128,-1,9
 184 1274 184 1274 163 1293.5 c 128,-1,10
 142 1313 142 1313 120 1330 c 1,11,-1
 475 1330 l 1,12,13
 478 1316 478 1316 490 1292 c 128,-1,14
 502 1268 502 1268 527 1230 c 1,15,-1
 748 862 l 1,16,-1
 966 1230 l 2,17,18
 983 1260 983 1260 995.5 1286.5 c 128,-1,19
 1008 1313 1008 1313 1008 1327 c 2,20,-1
 1008 1330 l 1,21,-1
 1318 1330 l 1,22,23
 1307 1324 1307 1324 1269.5 1269 c 128,-1,24
 1232 1214 1232 1214 1162 1100 c 1,25,-1
 1003 856 l 1,26,-1
 1086 856 l 2,27,28
 1143 856 1143 856 1173 857 c 128,-1,29
 1203 858 1203 858 1218 862 c 1,30,-1
 1218 655 l 1,31,32
 1189 658 1189 658 1158.5 659 c 128,-1,33
 1128 660 1128 660 1096 660 c 2,34,-1
 882 660 l 1,35,-1
 882 566 l 1,36,-1
 1084 566 l 2,37,38
 1141 566 1141 566 1171 567 c 128,-1,39
 1201 568 1201 568 1216 572 c 1,40,-1
 1216 365 l 1,41,42
 1187 368 1187 368 1152.5 369 c 128,-1,43
 1118 370 1118 370 1086 370 c 2,44,-1
 882 370 l 1,45,-1
 882 158 l 2,46,47
 882 126 882 126 884 82.5 c 128,-1,48
 886 39 886 39 894 0 c 1,49,-1
 614 0 l 1,50,51
 620 17 620 17 623.5 57.5 c 128,-1,52
 627 98 627 98 627 182 c 2,53,-1
 627 370 l 1,54,-1
 276 370 l 1,55,-1
 276 566 l 1,0,-1
EndSplineSet
EndChar

StartChar: hyphen
Encoding: 45 45 80
Width: 1239
Flags: W
LayerCount: 2
Fore
SplineSet
328 742 m 1,0,1
 343 738 343 738 373 737 c 128,-1,2
 403 736 403 736 460 736 c 2,3,-1
 779 736 l 2,4,5
 836 736 836 736 866 737 c 128,-1,6
 896 738 896 738 911 742 c 1,7,-1
 914 495 l 1,8,9
 885 498 885 498 853.5 499 c 128,-1,10
 822 500 822 500 790 500 c 2,11,-1
 449 500 l 2,12,13
 417 500 417 500 385.5 499 c 128,-1,14
 354 498 354 498 325 495 c 1,15,-1
 328 742 l 1,0,1
EndSplineSet
EndChar

StartChar: endash
Encoding: 8211 8211 81
Width: 1064
Flags: W
LayerCount: 2
Fore
SplineSet
140 742 m 1,0,1
 155 738 155 738 185 737 c 128,-1,2
 215 736 215 736 272 736 c 2,3,-1
 791 736 l 2,4,5
 848 736 848 736 878 737 c 128,-1,6
 908 738 908 738 923 742 c 1,7,-1
 926 495 l 1,8,9
 897 498 897 498 865.5 499 c 128,-1,10
 834 500 834 500 802 500 c 2,11,-1
 261 500 l 2,12,13
 229 500 229 500 197.5 499 c 128,-1,14
 166 498 166 498 137 495 c 1,15,-1
 140 742 l 1,0,1
EndSplineSet
EndChar

StartChar: emdash
Encoding: 8212 8212 82
Width: 1239
Flags: W
LayerCount: 2
Fore
SplineSet
143 742 m 1,0,1
 158 738 158 738 188 737 c 128,-1,2
 218 736 218 736 275 736 c 2,3,-1
 956 736 l 2,4,5
 1013 736 1013 736 1043 737 c 128,-1,6
 1073 738 1073 738 1088 742 c 1,7,-1
 1091 495 l 1,8,9
 1062 498 1062 498 1030.5 499 c 128,-1,10
 999 500 999 500 967 500 c 2,11,-1
 264 500 l 2,12,13
 232 500 232 500 200.5 499 c 128,-1,14
 169 498 169 498 140 495 c 1,15,-1
 143 742 l 1,0,1
EndSplineSet
EndChar

StartChar: equal
Encoding: 61 61 83
Width: 1239
Flags: W
LayerCount: 2
Fore
SplineSet
168 962 m 1,0,1
 183 958 183 958 213 957 c 128,-1,2
 243 956 243 956 300 956 c 2,3,-1
 939 956 l 2,4,5
 996 956 996 956 1026 957 c 128,-1,6
 1056 958 1056 958 1071 962 c 1,7,-1
 1074 715 l 1,8,9
 1045 718 1045 718 1013.5 719 c 128,-1,10
 982 720 982 720 950 720 c 2,11,-1
 289 720 l 2,12,13
 257 720 257 720 225.5 719 c 128,-1,14
 194 718 194 718 165 715 c 1,15,-1
 168 962 l 1,0,1
168 542 m 1,16,17
 183 538 183 538 213 537 c 128,-1,18
 243 536 243 536 300 536 c 2,19,-1
 939 536 l 2,20,21
 996 536 996 536 1026 537 c 128,-1,22
 1056 538 1056 538 1071 542 c 1,23,-1
 1074 295 l 1,24,25
 1045 298 1045 298 1013.5 299 c 128,-1,26
 982 300 982 300 950 300 c 2,27,-1
 289 300 l 2,28,29
 257 300 257 300 225.5 299 c 128,-1,30
 194 298 194 298 165 295 c 1,31,-1
 168 542 l 1,16,17
EndSplineSet
EndChar

StartChar: plus
Encoding: 43 43 84
Width: 1239
Flags: W
LayerCount: 2
Fore
SplineSet
496 157 m 1,0,1
 500 172 500 172 501 202 c 128,-1,2
 502 232 502 232 502 289 c 2,3,-1
 502 500 l 1,4,-1
 289 500 l 2,5,6
 257 500 257 500 225.5 499 c 128,-1,7
 194 498 194 498 165 495 c 1,8,-1
 168 742 l 1,9,10
 183 738 183 738 213 737 c 128,-1,11
 243 736 243 736 300 736 c 2,12,-1
 502 736 l 1,13,-1
 502 928 l 2,14,15
 502 985 502 985 501 1015 c 128,-1,16
 500 1045 500 1045 496 1060 c 1,17,-1
 743 1063 l 1,18,19
 740 1034 740 1034 739 1002.5 c 128,-1,20
 738 971 738 971 738 939 c 2,21,-1
 738 736 l 1,22,-1
 939 736 l 2,23,24
 996 736 996 736 1026 737 c 128,-1,25
 1056 738 1056 738 1071 742 c 1,26,-1
 1074 495 l 1,27,28
 1045 498 1045 498 1013.5 499 c 128,-1,29
 982 500 982 500 950 500 c 2,30,-1
 738 500 l 1,31,-1
 738 278 l 2,32,33
 738 246 738 246 739 214.5 c 128,-1,34
 740 183 740 183 743 154 c 1,35,-1
 496 157 l 1,0,1
EndSplineSet
EndChar

StartChar: asterisk
Encoding: 42 42 85
Width: 1239
Flags: W
LayerCount: 2
Fore
SplineSet
503 724 m 1,0,1
 503 724 503 724 505 740 c 128,-1,2
 507 756 507 756 509.5 782 c 128,-1,3
 512 808 512 808 516 841.5 c 128,-1,4
 520 875 520 875 524 910 c 128,-1,5
 528 945 528 945 532 979 c 128,-1,6
 536 1013 536 1013 539 1041 c 1,7,-1
 281 842 l 1,8,-1
 153 1033 l 1,9,-1
 442 1166 l 1,10,-1
 154 1336 l 1,11,-1
 311 1516 l 1,12,-1
 536 1299 l 1,13,-1
 496 1605 l 1,14,-1
 740 1605 l 1,15,-1
 698 1287 l 1,16,-1
 926 1488 l 1,17,-1
 1077 1307 l 1,18,-1
 774 1161 l 1,19,-1
 1087 1011 l 1,20,-1
 953 825 l 1,21,-1
 699 1031 l 1,22,-1
 736 724 l 1,23,-1
 503 724 l 1,0,1
EndSplineSet
EndChar

StartChar: quoteleft
Encoding: 8216 8216 86
Width: 530
Flags: W
LayerCount: 2
Fore
SplineSet
146 913 m 1,0,1
 140 970 140 970 137.5 1009 c 128,-1,2
 135 1048 135 1048 135 1071 c 0,3,4
 135 1125 135 1125 138.5 1175 c 128,-1,5
 142 1225 142 1225 148.5 1265 c 128,-1,6
 155 1305 155 1305 164 1331.5 c 128,-1,7
 173 1358 173 1358 184 1365 c 256,8,9
 195 1372 195 1372 213.5 1380 c 128,-1,10
 232 1388 232 1388 259.5 1396.5 c 128,-1,11
 287 1405 287 1405 326.5 1414.5 c 128,-1,12
 366 1424 366 1424 419 1435 c 1,13,-1
 425 1429 l 1,14,15
 417 1417 417 1417 410.5 1387 c 128,-1,16
 404 1357 404 1357 399.5 1316 c 128,-1,17
 395 1275 395 1275 392 1227 c 128,-1,18
 389 1179 389 1179 389 1130 c 0,19,20
 389 1091 389 1091 390 1047.5 c 128,-1,21
 391 1004 391 1004 395 953 c 1,22,-1
 146 913 l 1,0,1
EndSplineSet
EndChar

StartChar: quoteright
Encoding: 8217 8217 87
Width: 530
Flags: W
LayerCount: 2
Fore
SplineSet
105 929 m 1,0,1
 112 942 112 942 118.5 972 c 128,-1,2
 125 1002 125 1002 130 1042.5 c 128,-1,3
 135 1083 135 1083 138 1131 c 128,-1,4
 141 1179 141 1179 141 1228 c 0,5,6
 141 1267 141 1267 140 1310.5 c 128,-1,7
 139 1354 139 1354 135 1405 c 1,8,-1
 384 1445 l 1,9,10
 390 1388 390 1388 392.5 1349 c 128,-1,11
 395 1310 395 1310 395 1287 c 0,12,13
 395 1233 395 1233 391.5 1183 c 128,-1,14
 388 1133 388 1133 381.5 1093 c 128,-1,15
 375 1053 375 1053 366 1026.5 c 128,-1,16
 357 1000 357 1000 346 993 c 256,17,18
 335 986 335 986 316.5 978 c 128,-1,19
 298 970 298 970 270.5 961.5 c 128,-1,20
 243 953 243 953 203.5 943.5 c 128,-1,21
 164 934 164 934 111 923 c 1,22,-1
 105 929 l 1,0,1
EndSplineSet
EndChar

StartChar: quotedblleft
Encoding: 8220 8220 88
Width: 910
Flags: W
LayerCount: 2
Fore
SplineSet
596 913 m 1,0,1
 590 970 590 970 587.5 1009 c 128,-1,2
 585 1048 585 1048 585 1071 c 0,3,4
 585 1125 585 1125 588.5 1175 c 128,-1,5
 592 1225 592 1225 598.5 1265 c 128,-1,6
 605 1305 605 1305 614 1331.5 c 128,-1,7
 623 1358 623 1358 634 1365 c 256,8,9
 645 1372 645 1372 663.5 1380 c 128,-1,10
 682 1388 682 1388 709.5 1396.5 c 128,-1,11
 737 1405 737 1405 776.5 1414.5 c 128,-1,12
 816 1424 816 1424 869 1435 c 1,13,-1
 875 1429 l 1,14,15
 867 1417 867 1417 860.5 1387 c 128,-1,16
 854 1357 854 1357 849.5 1316 c 128,-1,17
 845 1275 845 1275 842 1227 c 128,-1,18
 839 1179 839 1179 839 1130 c 0,19,20
 839 1091 839 1091 840 1047.5 c 128,-1,21
 841 1004 841 1004 845 953 c 1,22,-1
 596 913 l 1,0,1
146 913 m 1,23,24
 140 970 140 970 137.5 1009 c 128,-1,25
 135 1048 135 1048 135 1071 c 0,26,27
 135 1125 135 1125 138.5 1175 c 128,-1,28
 142 1225 142 1225 148.5 1265 c 128,-1,29
 155 1305 155 1305 164 1331.5 c 128,-1,30
 173 1358 173 1358 184 1365 c 256,31,32
 195 1372 195 1372 213.5 1380 c 128,-1,33
 232 1388 232 1388 259.5 1396.5 c 128,-1,34
 287 1405 287 1405 326.5 1414.5 c 128,-1,35
 366 1424 366 1424 419 1435 c 1,36,-1
 425 1429 l 1,37,38
 417 1417 417 1417 410.5 1387 c 128,-1,39
 404 1357 404 1357 399.5 1316 c 128,-1,40
 395 1275 395 1275 392 1227 c 128,-1,41
 389 1179 389 1179 389 1130 c 0,42,43
 389 1091 389 1091 390 1047.5 c 128,-1,44
 391 1004 391 1004 395 953 c 1,45,-1
 146 913 l 1,23,24
EndSplineSet
EndChar

StartChar: quotedblright
Encoding: 8221 8221 89
Width: 890
Flags: W
LayerCount: 2
Fore
SplineSet
541 929 m 1,0,1
 548 942 548 942 554.5 972 c 128,-1,2
 561 1002 561 1002 566 1042.5 c 128,-1,3
 571 1083 571 1083 574 1131 c 128,-1,4
 577 1179 577 1179 577 1228 c 0,5,6
 577 1267 577 1267 576 1310.5 c 128,-1,7
 575 1354 575 1354 571 1405 c 1,8,-1
 820 1445 l 1,9,10
 826 1388 826 1388 828.5 1349 c 128,-1,11
 831 1310 831 1310 831 1287 c 0,12,13
 831 1233 831 1233 827.5 1183 c 128,-1,14
 824 1133 824 1133 817.5 1093 c 128,-1,15
 811 1053 811 1053 802 1026.5 c 128,-1,16
 793 1000 793 1000 782 993 c 256,17,18
 771 986 771 986 752.5 978 c 128,-1,19
 734 970 734 970 706.5 961.5 c 128,-1,20
 679 953 679 953 639.5 943.5 c 128,-1,21
 600 934 600 934 547 923 c 1,22,-1
 541 929 l 1,0,1
111 929 m 1,23,24
 118 942 118 942 124.5 972 c 128,-1,25
 131 1002 131 1002 136 1042.5 c 128,-1,26
 141 1083 141 1083 144 1131 c 128,-1,27
 147 1179 147 1179 147 1228 c 0,28,29
 147 1267 147 1267 146 1310.5 c 128,-1,30
 145 1354 145 1354 141 1405 c 1,31,-1
 390 1445 l 1,32,33
 396 1388 396 1388 398.5 1349 c 128,-1,34
 401 1310 401 1310 401 1287 c 0,35,36
 401 1233 401 1233 397.5 1183 c 128,-1,37
 394 1133 394 1133 387.5 1093 c 128,-1,38
 381 1053 381 1053 372 1026.5 c 128,-1,39
 363 1000 363 1000 352 993 c 256,40,41
 341 986 341 986 322.5 978 c 128,-1,42
 304 970 304 970 276.5 961.5 c 128,-1,43
 249 953 249 953 209.5 943.5 c 128,-1,44
 170 934 170 934 117 923 c 1,45,-1
 111 929 l 1,23,24
EndSplineSet
EndChar

StartChar: quotesingle
Encoding: 39 39 90
Width: 530
Flags: W
LayerCount: 2
Fore
SplineSet
160 1110 m 1,0,1
 153 1237 153 1237 148.5 1313 c 128,-1,2
 144 1389 144 1389 140 1430 c 1,3,-1
 391 1430 l 1,4,5
 387 1393 387 1393 382 1314 c 128,-1,6
 377 1235 377 1235 374 1109 c 2,7,-1
 371 977 l 1,8,-1
 160 977 l 1,9,-1
 160 1110 l 1,0,1
EndSplineSet
EndChar

StartChar: quotesinglbase
Encoding: 8218 8218 91
Width: 530
Flags: W
LayerCount: 2
Fore
SplineSet
141 3 m 0,0,1
 141 42 141 42 140 85.5 c 128,-1,2
 139 129 139 129 135 180 c 1,3,-1
 384 220 l 1,4,5
 390 163 390 163 392.5 124 c 128,-1,6
 395 85 395 85 395 62 c 0,7,8
 395 8 395 8 391.5 -42 c 128,-1,9
 388 -92 388 -92 381.5 -132 c 128,-1,10
 375 -172 375 -172 366 -198.5 c 128,-1,11
 357 -225 357 -225 346 -232 c 256,12,13
 335 -239 335 -239 316.5 -247 c 128,-1,14
 298 -255 298 -255 270.5 -263.5 c 128,-1,15
 243 -272 243 -272 203.5 -281.5 c 128,-1,16
 164 -291 164 -291 111 -302 c 1,17,-1
 105 -296 l 1,18,19
 112 -283 112 -283 118.5 -253 c 128,-1,20
 125 -223 125 -223 130 -182.5 c 128,-1,21
 135 -142 135 -142 138 -94 c 128,-1,22
 141 -46 141 -46 141 3 c 0,0,1
EndSplineSet
EndChar

StartChar: quotedblbase
Encoding: 8222 8222 92
Width: 860
Flags: W
LayerCount: 2
Fore
SplineSet
547 3 m 0,0,1
 547 42 547 42 546 85.5 c 128,-1,2
 545 129 545 129 541 180 c 1,3,-1
 790 220 l 1,4,5
 796 163 796 163 798.5 124 c 128,-1,6
 801 85 801 85 801 62 c 0,7,8
 801 8 801 8 797.5 -42 c 128,-1,9
 794 -92 794 -92 787.5 -132 c 128,-1,10
 781 -172 781 -172 772 -198.5 c 128,-1,11
 763 -225 763 -225 752 -232 c 256,12,13
 741 -239 741 -239 722.5 -247 c 128,-1,14
 704 -255 704 -255 676.5 -263.5 c 128,-1,15
 649 -272 649 -272 609.5 -281.5 c 128,-1,16
 570 -291 570 -291 517 -302 c 1,17,-1
 511 -296 l 1,18,19
 518 -283 518 -283 524.5 -253 c 128,-1,20
 531 -223 531 -223 536 -182.5 c 128,-1,21
 541 -142 541 -142 544 -94 c 128,-1,22
 547 -46 547 -46 547 3 c 0,0,1
147 3 m 0,23,24
 147 42 147 42 146 85.5 c 128,-1,25
 145 129 145 129 141 180 c 1,26,-1
 390 220 l 1,27,28
 396 163 396 163 398.5 124 c 128,-1,29
 401 85 401 85 401 62 c 0,30,31
 401 8 401 8 397.5 -42 c 128,-1,32
 394 -92 394 -92 387.5 -132 c 128,-1,33
 381 -172 381 -172 372 -198.5 c 128,-1,34
 363 -225 363 -225 352 -232 c 256,35,36
 341 -239 341 -239 322.5 -247 c 128,-1,37
 304 -255 304 -255 276.5 -263.5 c 128,-1,38
 249 -272 249 -272 209.5 -281.5 c 128,-1,39
 170 -291 170 -291 117 -302 c 1,40,-1
 111 -296 l 1,41,42
 118 -283 118 -283 124.5 -253 c 128,-1,43
 131 -223 131 -223 136 -182.5 c 128,-1,44
 141 -142 141 -142 144 -94 c 128,-1,45
 147 -46 147 -46 147 3 c 0,23,24
EndSplineSet
EndChar

StartChar: quotedbl
Encoding: 34 34 93
Width: 871
Flags: W
LayerCount: 2
Fore
SplineSet
566 1110 m 2,0,1
 562 1237 562 1237 558 1313 c 128,-1,2
 554 1389 554 1389 550 1430 c 1,3,-1
 801 1430 l 1,4,5
 797 1393 797 1393 792 1314 c 128,-1,6
 787 1235 787 1235 784 1109 c 2,7,-1
 781 977 l 1,8,-1
 570 977 l 1,9,-1
 566 1110 l 2,0,1
180 1110 m 1,10,11
 173 1237 173 1237 168.5 1313 c 128,-1,12
 164 1389 164 1389 160 1430 c 1,13,-1
 411 1430 l 1,14,15
 407 1393 407 1393 402 1314 c 128,-1,16
 397 1235 397 1235 394 1109 c 2,17,-1
 391 977 l 1,18,-1
 180 977 l 1,19,-1
 180 1110 l 1,10,11
EndSplineSet
EndChar

StartChar: guilsinglleft
Encoding: 8249 8249 94
Width: 690
Flags: W
LayerCount: 2
Fore
SplineSet
128 449 m 2,0,1
 111 479 111 479 105 497.5 c 128,-1,2
 99 516 99 516 100 528 c 0,3,4
 100 536 100 536 104.5 552 c 128,-1,5
 109 568 109 568 123 595 c 2,6,-1
 294 915 l 1,7,-1
 549 915 l 1,8,-1
 349 527 l 1,9,-1
 555 140 l 1,10,-1
 300 140 l 1,11,-1
 128 449 l 2,0,1
EndSplineSet
EndChar

StartChar: guilsinglright
Encoding: 8250 8250 95
Width: 690
Flags: W
LayerCount: 2
Fore
SplineSet
290 527 m 1,0,-1
 91 915 l 1,1,-1
 346 915 l 1,2,-1
 517 595 l 2,3,4
 531 568 531 568 535.5 552 c 128,-1,5
 540 536 540 536 540 528 c 0,6,7
 540 516 540 516 534.5 497.5 c 128,-1,8
 529 479 529 479 512 449 c 2,9,-1
 340 140 l 1,10,-1
 85 140 l 1,11,-1
 290 527 l 1,0,-1
EndSplineSet
EndChar

StartChar: guillemotleft
Encoding: 171 171 96
Width: 1180
Flags: W
LayerCount: 2
Fore
SplineSet
618 449 m 2,0,1
 601 479 601 479 595 497.5 c 128,-1,2
 589 516 589 516 590 528 c 0,3,4
 590 536 590 536 594.5 552 c 128,-1,5
 599 568 599 568 613 595 c 2,6,-1
 784 915 l 1,7,-1
 1039 915 l 1,8,-1
 839 527 l 1,9,-1
 1045 140 l 1,10,-1
 790 140 l 1,11,-1
 618 449 l 2,0,1
128 449 m 2,12,13
 111 479 111 479 105 497.5 c 128,-1,14
 99 516 99 516 100 528 c 0,15,16
 100 536 100 536 104.5 552 c 128,-1,17
 109 568 109 568 123 595 c 2,18,-1
 294 915 l 1,19,-1
 549 915 l 1,20,-1
 349 527 l 1,21,-1
 555 140 l 1,22,-1
 300 140 l 1,23,-1
 128 449 l 2,12,13
EndSplineSet
EndChar

StartChar: guillemotright
Encoding: 187 187 97
Width: 1180
Flags: W
LayerCount: 2
Fore
SplineSet
780 527 m 1,0,-1
 581 915 l 1,1,-1
 836 915 l 1,2,-1
 1007 595 l 2,3,4
 1021 568 1021 568 1025.5 552 c 128,-1,5
 1030 536 1030 536 1030 528 c 0,6,7
 1030 516 1030 516 1024.5 497.5 c 128,-1,8
 1019 479 1019 479 1002 449 c 2,9,-1
 830 140 l 1,10,-1
 575 140 l 1,11,-1
 780 527 l 1,0,-1
290 527 m 1,12,-1
 91 915 l 1,13,-1
 346 915 l 1,14,-1
 517 595 l 2,15,16
 531 568 531 568 535.5 552 c 128,-1,17
 540 536 540 536 540 528 c 0,18,19
 540 516 540 516 534.5 497.5 c 128,-1,20
 529 479 529 479 512 449 c 2,21,-1
 340 140 l 1,22,-1
 85 140 l 1,23,-1
 290 527 l 1,12,-1
EndSplineSet
EndChar

StartChar: onesuperior
Encoding: 185 185 98
Width: 545
Flags: W
LayerCount: 2
Fore
SplineSet
150 1390 m 1,0,-1
 395 1390 l 1,1,-1
 395 600 l 1,2,-1
 150 600 l 1,3,-1
 150 1390 l 1,0,-1
EndSplineSet
EndChar

StartChar: twosuperior
Encoding: 178 178 99
Width: 737
Flags: W
LayerCount: 2
Fore
SplineSet
161 749 m 2,0,1
 254 897 254 897 299.5 989.5 c 128,-1,2
 345 1082 345 1082 345 1118 c 0,3,4
 345 1147 345 1147 328 1160 c 128,-1,5
 311 1173 311 1173 288 1173 c 0,6,7
 270 1173 270 1173 249 1169 c 128,-1,8
 228 1165 228 1165 206.5 1158 c 128,-1,9
 185 1151 185 1151 165 1140.5 c 128,-1,10
 145 1130 145 1130 130 1117 c 1,11,-1
 123 1116 l 1,12,-1
 128 1365 l 1,13,14
 141 1374 141 1374 164.5 1381.5 c 128,-1,15
 188 1389 188 1389 216.5 1394 c 128,-1,16
 245 1399 245 1399 276 1402 c 128,-1,17
 307 1405 307 1405 336 1405 c 0,18,19
 393 1405 393 1405 443.5 1390.5 c 128,-1,20
 494 1376 494 1376 532.5 1348.5 c 128,-1,21
 571 1321 571 1321 593 1281 c 128,-1,22
 615 1241 615 1241 615 1190 c 0,23,24
 615 1130 615 1130 584 1039.5 c 128,-1,25
 553 949 553 949 487 832 c 1,26,-1
 631 832 l 2,27,28
 667 832 667 832 687.5 835 c 128,-1,29
 708 838 708 838 722 849 c 1,30,-1
 727 847 l 1,31,-1
 628 603 l 1,32,33
 597 605 597 605 558 606.5 c 128,-1,34
 519 608 519 608 476 609.5 c 128,-1,35
 433 611 433 611 387.5 611.5 c 128,-1,36
 342 612 342 612 298 612 c 0,37,38
 263 612 263 612 204 610.5 c 128,-1,39
 145 609 145 609 70 604 c 1,40,-1
 161 749 l 2,0,1
EndSplineSet
EndChar

StartChar: threesuperior
Encoding: 179 179 100
Width: 846
Flags: W
LayerCount: 2
Fore
SplineSet
120 890 m 1,0,-1
 125 896 l 1,1,2
 141 880 141 880 169 866 c 128,-1,3
 197 852 197 852 231.5 841 c 128,-1,4
 266 830 266 830 304.5 823.5 c 128,-1,5
 343 817 343 817 381 817 c 0,6,7
 416 817 416 817 438 821.5 c 128,-1,8
 460 826 460 826 473 833.5 c 128,-1,9
 486 841 486 841 490.5 849 c 128,-1,10
 495 857 495 857 495 865 c 256,11,12
 495 873 495 873 488.5 882.5 c 128,-1,13
 482 892 482 892 468.5 900 c 128,-1,14
 455 908 455 908 434 913.5 c 128,-1,15
 413 919 413 919 384 919 c 0,16,17
 369 919 369 919 353 917 c 128,-1,18
 337 915 337 915 324 913 c 128,-1,19
 311 911 311 911 302.5 909 c 128,-1,20
 294 907 294 907 293 906 c 1,21,-1
 290 911 l 1,22,-1
 295 1076 l 1,23,24
 309 1083 309 1083 335 1087 c 128,-1,25
 361 1091 361 1091 386 1091 c 2,26,-1
 394 1091 l 1,27,28
 414 1098 414 1098 426.5 1110.5 c 128,-1,29
 439 1123 439 1123 439 1142 c 0,30,31
 439 1170 439 1170 411.5 1181 c 128,-1,32
 384 1192 384 1192 344 1192 c 0,33,34
 301 1192 301 1192 257 1180.5 c 128,-1,35
 213 1169 213 1169 181 1150 c 1,36,-1
 179 1153 l 1,37,-1
 172 1363 l 1,38,39
 190 1375 190 1375 216 1385 c 128,-1,40
 242 1395 242 1395 273 1401.5 c 128,-1,41
 304 1408 304 1408 337.5 1411.5 c 128,-1,42
 371 1415 371 1415 406 1415 c 0,43,44
 467 1415 467 1415 518 1401.5 c 128,-1,45
 569 1388 569 1388 605.5 1363.5 c 128,-1,46
 642 1339 642 1339 662 1304.5 c 128,-1,47
 682 1270 682 1270 682 1228 c 0,48,49
 682 1177 682 1177 660 1132.5 c 128,-1,50
 638 1088 638 1088 592 1055 c 1,51,52
 625 1039 625 1039 653 1017 c 128,-1,53
 681 995 681 995 701.5 968.5 c 128,-1,54
 722 942 722 942 734 911.5 c 128,-1,55
 746 881 746 881 746 848 c 0,56,57
 746 791 746 791 719.5 744.5 c 128,-1,58
 693 698 693 698 645 665.5 c 128,-1,59
 597 633 597 633 531.5 615.5 c 128,-1,60
 466 598 466 598 388 598 c 0,61,62
 219 598 219 598 122 671 c 1,63,-1
 120 890 l 1,0,-1
EndSplineSet
EndChar

StartChar: onequarter
Encoding: 188 188 101
Width: 1949
Flags: W
LayerCount: 2
Fore
SplineSet
206 1390 m 1,0,-1
 451 1390 l 1,1,-1
 451 600 l 1,2,-1
 206 600 l 1,3,-1
 206 1390 l 1,0,-1
1054 1330 m 1,4,-1
 1299 1330 l 1,5,-1
 509 0 l 1,6,-1
 264 0 l 1,7,-1
 1054 1330 l 1,4,-1
1231 770 m 1,8,-1
 1571 770 l 1,9,-1
 1571 363 l 1,10,-1
 1592 363 l 2,11,12
 1637 363 1637 363 1673 366 c 128,-1,13
 1709 369 1709 369 1740 377 c 1,14,-1
 1743 374 l 1,15,-1
 1681 143 l 1,16,-1
 1571 143 l 1,17,-1
 1571 0 l 1,18,-1
 1326 0 l 1,19,-1
 1326 143 l 1,20,-1
 940 143 l 1,21,-1
 920 187 l 1,22,-1
 1231 770 l 1,8,-1
1326 363 m 1,23,-1
 1326 600 l 1,24,-1
 1230 363 l 1,25,-1
 1326 363 l 1,23,-1
EndSplineSet
EndChar

StartChar: onehalf
Encoding: 189 189 102
Width: 1949
Flags: W
LayerCount: 2
Fore
SplineSet
230 1390 m 1,0,-1
 475 1390 l 1,1,-1
 475 600 l 1,2,-1
 230 600 l 1,3,-1
 230 1390 l 1,0,-1
1078 1330 m 1,4,-1
 1323 1330 l 1,5,-1
 533 0 l 1,6,-1
 288 0 l 1,7,-1
 1078 1330 l 1,4,-1
1153 137 m 2,8,9
 1246 285 1246 285 1291.5 377.5 c 128,-1,10
 1337 470 1337 470 1337 506 c 0,11,12
 1337 535 1337 535 1320 548 c 128,-1,13
 1303 561 1303 561 1280 561 c 0,14,15
 1262 561 1262 561 1241 557 c 128,-1,16
 1220 553 1220 553 1198.5 546 c 128,-1,17
 1177 539 1177 539 1157 528.5 c 128,-1,18
 1137 518 1137 518 1122 505 c 1,19,-1
 1115 504 l 1,20,-1
 1120 753 l 1,21,22
 1133 762 1133 762 1156.5 769.5 c 128,-1,23
 1180 777 1180 777 1208.5 782 c 128,-1,24
 1237 787 1237 787 1268 790 c 128,-1,25
 1299 793 1299 793 1328 793 c 0,26,27
 1385 793 1385 793 1435.5 778.5 c 128,-1,28
 1486 764 1486 764 1524.5 736.5 c 128,-1,29
 1563 709 1563 709 1585 669 c 128,-1,30
 1607 629 1607 629 1607 578 c 0,31,32
 1607 518 1607 518 1576 427.5 c 128,-1,33
 1545 337 1545 337 1479 220 c 1,34,-1
 1623 220 l 2,35,36
 1659 220 1659 220 1679.5 223 c 128,-1,37
 1700 226 1700 226 1714 237 c 1,38,-1
 1719 235 l 1,39,-1
 1620 -9 l 1,40,41
 1589 -7 1589 -7 1550 -5.5 c 128,-1,42
 1511 -4 1511 -4 1468 -2.5 c 128,-1,43
 1425 -1 1425 -1 1379.5 -0.5 c 128,-1,44
 1334 0 1334 0 1290 0 c 0,45,46
 1255 0 1255 0 1196 -1.5 c 128,-1,47
 1137 -3 1137 -3 1062 -8 c 1,48,-1
 1153 137 l 2,8,9
EndSplineSet
EndChar

StartChar: threequarters
Encoding: 190 190 103
Width: 2124
Flags: W
LayerCount: 2
Fore
SplineSet
192 890 m 1,0,-1
 197 896 l 1,1,2
 213 880 213 880 241 866 c 128,-1,3
 269 852 269 852 303.5 841 c 128,-1,4
 338 830 338 830 376.5 823.5 c 128,-1,5
 415 817 415 817 453 817 c 0,6,7
 488 817 488 817 510 821.5 c 128,-1,8
 532 826 532 826 545 833.5 c 128,-1,9
 558 841 558 841 562.5 849 c 128,-1,10
 567 857 567 857 567 865 c 256,11,12
 567 873 567 873 560.5 882.5 c 128,-1,13
 554 892 554 892 540.5 900 c 128,-1,14
 527 908 527 908 506 913.5 c 128,-1,15
 485 919 485 919 456 919 c 0,16,17
 441 919 441 919 425 917 c 128,-1,18
 409 915 409 915 396 913 c 128,-1,19
 383 911 383 911 374.5 909 c 128,-1,20
 366 907 366 907 365 906 c 1,21,-1
 362 911 l 1,22,-1
 367 1076 l 1,23,24
 381 1083 381 1083 407 1087 c 128,-1,25
 433 1091 433 1091 458 1091 c 2,26,-1
 466 1091 l 1,27,28
 486 1098 486 1098 498.5 1110.5 c 128,-1,29
 511 1123 511 1123 511 1142 c 0,30,31
 511 1170 511 1170 483.5 1181 c 128,-1,32
 456 1192 456 1192 416 1192 c 0,33,34
 373 1192 373 1192 329 1180.5 c 128,-1,35
 285 1169 285 1169 253 1150 c 1,36,-1
 251 1153 l 1,37,-1
 244 1363 l 1,38,39
 262 1375 262 1375 288 1385 c 128,-1,40
 314 1395 314 1395 345 1401.5 c 128,-1,41
 376 1408 376 1408 409.5 1411.5 c 128,-1,42
 443 1415 443 1415 478 1415 c 0,43,44
 539 1415 539 1415 590 1401.5 c 128,-1,45
 641 1388 641 1388 677.5 1363.5 c 128,-1,46
 714 1339 714 1339 734 1304.5 c 128,-1,47
 754 1270 754 1270 754 1228 c 0,48,49
 754 1177 754 1177 732 1132.5 c 128,-1,50
 710 1088 710 1088 664 1055 c 1,51,52
 697 1039 697 1039 725 1017 c 128,-1,53
 753 995 753 995 773.5 968.5 c 128,-1,54
 794 942 794 942 806 911.5 c 128,-1,55
 818 881 818 881 818 848 c 0,56,57
 818 791 818 791 791.5 744.5 c 128,-1,58
 765 698 765 698 717 665.5 c 128,-1,59
 669 633 669 633 603.5 615.5 c 128,-1,60
 538 598 538 598 460 598 c 0,61,62
 291 598 291 598 194 671 c 1,63,-1
 192 890 l 1,0,-1
1270 1330 m 1,64,-1
 1515 1330 l 1,65,-1
 725 0 l 1,66,-1
 480 0 l 1,67,-1
 1270 1330 l 1,64,-1
1429 770 m 1,68,-1
 1769 770 l 1,69,-1
 1769 363 l 1,70,-1
 1790 363 l 2,71,72
 1835 363 1835 363 1871 366 c 128,-1,73
 1907 369 1907 369 1938 377 c 1,74,-1
 1941 374 l 1,75,-1
 1879 143 l 1,76,-1
 1769 143 l 1,77,-1
 1769 0 l 1,78,-1
 1524 0 l 1,79,-1
 1524 143 l 1,80,-1
 1138 143 l 1,81,-1
 1118 187 l 1,82,-1
 1429 770 l 1,68,-1
1524 363 m 1,83,-1
 1524 600 l 1,84,-1
 1428 363 l 1,85,-1
 1524 363 l 1,83,-1
EndSplineSet
EndChar

StartChar: plusminus
Encoding: 177 177 104
Width: 1239
Flags: W
LayerCount: 2
Fore
SplineSet
496 457 m 1,0,1
 500 472 500 472 501 502 c 128,-1,2
 502 532 502 532 502 589 c 2,3,-1
 502 800 l 1,4,-1
 289 800 l 2,5,6
 257 800 257 800 225.5 799 c 128,-1,7
 194 798 194 798 165 795 c 1,8,-1
 168 1042 l 1,9,10
 183 1038 183 1038 213 1037 c 128,-1,11
 243 1036 243 1036 300 1036 c 2,12,-1
 502 1036 l 1,13,-1
 502 1228 l 2,14,15
 502 1285 502 1285 501 1315 c 128,-1,16
 500 1345 500 1345 496 1360 c 1,17,-1
 743 1363 l 1,18,19
 740 1334 740 1334 739 1302.5 c 128,-1,20
 738 1271 738 1271 738 1239 c 2,21,-1
 738 1036 l 1,22,-1
 939 1036 l 2,23,24
 996 1036 996 1036 1026 1037 c 128,-1,25
 1056 1038 1056 1038 1071 1042 c 1,26,-1
 1074 795 l 1,27,28
 1045 798 1045 798 1013.5 799 c 128,-1,29
 982 800 982 800 950 800 c 2,30,-1
 738 800 l 1,31,-1
 738 578 l 2,32,33
 738 546 738 546 739 514.5 c 128,-1,34
 740 483 740 483 743 454 c 1,35,-1
 496 457 l 1,0,1
168 342 m 1,36,37
 183 338 183 338 213 337 c 128,-1,38
 243 336 243 336 300 336 c 2,39,-1
 939 336 l 2,40,41
 996 336 996 336 1026 337 c 128,-1,42
 1056 338 1056 338 1071 342 c 1,43,-1
 1074 95 l 1,44,45
 1045 98 1045 98 1013.5 99 c 128,-1,46
 982 100 982 100 950 100 c 2,47,-1
 289 100 l 2,48,49
 257 100 257 100 225.5 99 c 128,-1,50
 194 98 194 98 165 95 c 1,51,-1
 168 342 l 1,36,37
EndSplineSet
EndChar

StartChar: underscore
Encoding: 95 95 105
Width: 1061
Flags: W
LayerCount: 2
Fore
SplineSet
1063 -176 m 1,0,-1
 1063 -356 l 1,1,-1
 -1 -356 l 1,2,-1
 -1 -176 l 1,3,-1
 1063 -176 l 1,0,-1
EndSplineSet
EndChar

StartChar: numbersign
Encoding: 35 35 106
Width: 1414
Flags: W
LayerCount: 2
Fore
SplineSet
339 496 m 1,0,-1
 298 496 l 2,1,2
 266 496 266 496 234.5 495 c 128,-1,3
 203 494 203 494 174 491 c 1,4,-1
 177 698 l 1,5,6
 192 694 192 694 222 693 c 128,-1,7
 252 692 252 692 309 692 c 2,8,-1
 367 692 l 1,9,-1
 395 893 l 1,10,-1
 325 893 l 2,11,12
 293 893 293 893 261.5 892 c 128,-1,13
 230 891 230 891 201 888 c 1,14,-1
 204 1095 l 1,15,16
 219 1091 219 1091 249 1090 c 128,-1,17
 279 1089 279 1089 336 1089 c 2,18,-1
 422 1089 l 1,19,-1
 467 1410 l 1,20,-1
 693 1410 l 1,21,-1
 648 1089 l 1,22,-1
 832 1089 l 1,23,-1
 877 1410 l 1,24,-1
 1103 1410 l 1,25,-1
 1058 1089 l 1,26,-1
 1105 1089 l 2,27,28
 1162 1089 1162 1089 1192 1090 c 128,-1,29
 1222 1091 1222 1091 1237 1095 c 1,30,-1
 1240 888 l 1,31,32
 1211 891 1211 891 1179.5 892 c 128,-1,33
 1148 893 1148 893 1116 893 c 2,34,-1
 1031 893 l 1,35,-1
 1003 692 l 1,36,-1
 1058 692 l 2,37,38
 1115 692 1115 692 1145 693 c 128,-1,39
 1175 694 1175 694 1190 698 c 1,40,-1
 1193 491 l 1,41,42
 1164 494 1164 494 1132.5 495 c 128,-1,43
 1101 496 1101 496 1069 496 c 2,44,-1
 975 496 l 1,45,-1
 931 177 l 1,46,-1
 705 177 l 1,47,-1
 749 496 l 1,48,-1
 565 496 l 1,49,-1
 521 177 l 1,50,-1
 295 177 l 1,51,-1
 339 496 l 1,0,-1
777 692 m 1,52,-1
 805 893 l 1,53,-1
 621 893 l 1,54,-1
 593 692 l 1,55,-1
 777 692 l 1,52,-1
EndSplineSet
EndChar

StartChar: bar
Encoding: 124 124 107
Width: 885
Flags: W
LayerCount: 2
Fore
SplineSet
315 1251 m 2,0,1
 315 1284 315 1284 314.5 1308.5 c 128,-1,2
 314 1333 314 1333 313.5 1353.5 c 128,-1,3
 313 1374 313 1374 312 1392 c 128,-1,4
 311 1410 311 1410 310 1430 c 1,5,-1
 575 1430 l 1,6,7
 573 1390 573 1390 571.5 1345.5 c 128,-1,8
 570 1301 570 1301 570 1247 c 2,9,-1
 570 -138 l 2,10,11
 570 -189 570 -189 571 -213 c 128,-1,12
 572 -237 572 -237 574 -250 c 1,13,-1
 311 -250 l 1,14,15
 312 -234 312 -234 313 -211.5 c 128,-1,16
 314 -189 314 -189 314.5 -162 c 128,-1,17
 315 -135 315 -135 315 -105.5 c 128,-1,18
 315 -76 315 -76 315 -45 c 2,19,-1
 315 1251 l 2,0,1
EndSplineSet
EndChar

StartChar: slash
Encoding: 47 47 108
Width: 885
Flags: W
LayerCount: 2
Fore
SplineSet
504 1330 m 1,0,-1
 760 1330 l 1,1,-1
 380 0 l 1,2,-1
 124 0 l 1,3,-1
 504 1330 l 1,0,-1
EndSplineSet
EndChar

StartChar: backslash
Encoding: 92 92 109
Width: 885
Flags: W
LayerCount: 2
Fore
SplineSet
124 1330 m 1,0,-1
 380 1330 l 1,1,-1
 760 0 l 1,2,-1
 504 0 l 1,3,-1
 124 1330 l 1,0,-1
EndSplineSet
EndChar

StartChar: brokenbar
Encoding: 166 166 110
Width: 885
Flags: W
LayerCount: 2
Fore
SplineSet
311 727 m 1,0,1
 312 743 312 743 313 754.5 c 128,-1,2
 314 766 314 766 314.5 777.5 c 128,-1,3
 315 789 315 789 315 802.5 c 128,-1,4
 315 816 315 816 315 836 c 2,5,-1
 315 1251 l 2,6,7
 315 1284 315 1284 314.5 1308.5 c 128,-1,8
 314 1333 314 1333 313.5 1353.5 c 128,-1,9
 313 1374 313 1374 312 1392 c 128,-1,10
 311 1410 311 1410 310 1430 c 1,11,-1
 575 1430 l 1,12,13
 573 1390 573 1390 571.5 1345.5 c 128,-1,14
 570 1301 570 1301 570 1247 c 2,15,-1
 570 839 l 2,16,17
 570 788 570 788 571 764 c 128,-1,18
 572 740 572 740 574 727 c 1,19,-1
 311 727 l 1,0,1
315 328 m 2,20,21
 315 361 315 361 314.5 385.5 c 128,-1,22
 314 410 314 410 313.5 430.5 c 128,-1,23
 313 451 313 451 312 469 c 128,-1,24
 311 487 311 487 310 507 c 1,25,-1
 575 507 l 1,26,27
 573 467 573 467 571.5 422.5 c 128,-1,28
 570 378 570 378 570 324 c 2,29,-1
 570 -138 l 2,30,31
 570 -189 570 -189 571 -213 c 128,-1,32
 572 -237 572 -237 574 -250 c 1,33,-1
 311 -250 l 1,34,35
 312 -234 312 -234 313 -217 c 128,-1,36
 314 -200 314 -200 314.5 -179 c 128,-1,37
 315 -158 315 -158 315 -132 c 128,-1,38
 315 -106 315 -106 315 -71 c 2,39,-1
 315 328 l 2,20,21
EndSplineSet
EndChar

StartChar: paragraph
Encoding: 182 182 111
Width: 1414
Flags: W
LayerCount: 2
Fore
SplineSet
217 267 m 1,0,-1
 224 269 l 1,1,2
 251 254 251 254 281.5 246.5 c 128,-1,3
 312 239 312 239 343 239 c 0,4,5
 365 239 365 239 382 245 c 128,-1,6
 399 251 399 251 410.5 266 c 128,-1,7
 422 281 422 281 427.5 306 c 128,-1,8
 433 331 433 331 433 369 c 2,9,-1
 433 563 l 1,10,11
 343 566 343 566 277 599.5 c 128,-1,12
 211 633 211 633 167.5 686.5 c 128,-1,13
 124 740 124 740 103 807 c 128,-1,14
 82 874 82 874 82 944 c 0,15,16
 82 1034 82 1034 114 1105.5 c 128,-1,17
 146 1177 146 1177 210 1227 c 128,-1,18
 274 1277 274 1277 368 1303.5 c 128,-1,19
 462 1330 462 1330 587 1330 c 2,20,-1
 1156 1330 l 1,21,22
 1151 1279 1151 1279 1149.5 1219.5 c 128,-1,23
 1148 1160 1148 1160 1148 1091 c 2,24,-1
 1148 112 l 2,25,26
 1148 61 1148 61 1149 37 c 128,-1,27
 1150 13 1150 13 1152 0 c 1,28,-1
 903 0 l 1,29,-1
 903 1092 l 1,30,31
 855 1095 855 1095 805 1095 c 0,32,33
 785 1095 785 1095 753 1095 c 128,-1,34
 721 1095 721 1095 688 1094 c 1,35,-1
 688 467 l 2,36,37
 688 333 688 333 666 243 c 128,-1,38
 644 153 644 153 603 99 c 128,-1,39
 562 45 562 45 503 22.5 c 128,-1,40
 444 0 444 0 371 0 c 0,41,42
 280 0 280 0 217 28 c 1,43,-1
 217 267 l 1,0,-1
EndSplineSet
EndChar

StartChar: divide
Encoding: 247 247 112
Width: 1239
Flags: W
LayerCount: 2
Fore
SplineSet
476 885 m 1,0,1
 481 919 481 919 483 954 c 128,-1,2
 485 989 485 989 485 1024 c 0,3,4
 485 1040 485 1040 484.5 1057.5 c 128,-1,5
 484 1075 484 1075 483 1092 c 128,-1,6
 482 1109 482 1109 480.5 1124 c 128,-1,7
 479 1139 479 1139 478 1149 c 1,8,-1
 768 1149 l 1,9,10
 766 1121 766 1121 764.5 1081.5 c 128,-1,11
 763 1042 763 1042 763 1011 c 0,12,13
 763 976 763 976 763.5 945 c 128,-1,14
 764 914 764 914 768 885 c 1,15,-1
 476 885 l 1,0,1
168 742 m 1,16,17
 183 738 183 738 213 737 c 128,-1,18
 243 736 243 736 300 736 c 2,19,-1
 939 736 l 2,20,21
 996 736 996 736 1026 737 c 128,-1,22
 1056 738 1056 738 1071 742 c 1,23,-1
 1074 495 l 1,24,25
 1045 498 1045 498 1013.5 499 c 128,-1,26
 982 500 982 500 950 500 c 2,27,-1
 289 500 l 2,28,29
 257 500 257 500 225.5 499 c 128,-1,30
 194 498 194 498 165 495 c 1,31,-1
 168 742 l 1,16,17
476 97 m 1,32,33
 481 131 481 131 483 166 c 128,-1,34
 485 201 485 201 485 236 c 0,35,36
 485 252 485 252 484.5 269.5 c 128,-1,37
 484 287 484 287 483 304 c 128,-1,38
 482 321 482 321 480.5 336 c 128,-1,39
 479 351 479 351 478 361 c 1,40,-1
 768 361 l 1,41,42
 766 333 766 333 764.5 293.5 c 128,-1,43
 763 254 763 254 763 223 c 0,44,45
 763 188 763 188 763.5 157 c 128,-1,46
 764 126 764 126 768 97 c 1,47,-1
 476 97 l 1,32,33
EndSplineSet
EndChar

StartChar: multiply
Encoding: 215 215 113
Width: 1239
Flags: W
LayerCount: 2
Fore
SplineSet
208 384 m 1,0,1
 222 392 222 392 243.5 412.5 c 128,-1,2
 265 433 265 433 305 473 c 2,3,-1
 447 615 l 1,4,-1
 312 751 l 2,5,6
 273 791 273 791 251 811.5 c 128,-1,7
 229 832 229 832 215 840 c 1,8,-1
 387 1017 l 1,9,10
 406 994 406 994 427.5 971.5 c 128,-1,11
 449 949 449 949 472 926 c 2,12,-1
 615 783 l 1,13,-1
 757 925 l 2,14,15
 796 964 796 964 817 985.5 c 128,-1,16
 838 1007 838 1007 846 1022 c 1,17,-1
 1023 850 l 1,18,19
 1000 831 1000 831 977.5 809.5 c 128,-1,20
 955 788 955 788 932 765 c 2,21,-1
 782 615 l 1,22,-1
 939 459 l 2,23,24
 962 436 962 436 984.5 414.5 c 128,-1,25
 1007 393 1007 393 1030 374 c 1,26,-1
 853 202 l 1,27,28
 845 216 845 216 824 237.5 c 128,-1,29
 803 259 803 259 764 299 c 2,30,-1
 615 448 l 1,31,-1
 465 298 l 2,32,33
 442 275 442 275 420.5 252.5 c 128,-1,34
 399 230 399 230 380 207 c 1,35,-1
 208 384 l 1,0,1
EndSplineSet
EndChar

StartChar: logicalnot
Encoding: 172 172 114
Width: 1414
Flags: W
LayerCount: 2
Fore
SplineSet
204 742 m 1,0,1
 219 738 219 738 249 737 c 128,-1,2
 279 736 279 736 336 736 c 2,3,-1
 1075 736 l 2,4,5
 1132 736 1132 736 1162 737 c 128,-1,6
 1192 738 1192 738 1207 742 c 1,7,-1
 1207 338 l 2,8,9
 1207 306 1207 306 1208 274.5 c 128,-1,10
 1209 243 1209 243 1212 214 c 1,11,-1
 965 217 l 1,12,13
 969 232 969 232 970 262 c 128,-1,14
 971 292 971 292 971 349 c 2,15,-1
 971 500 l 1,16,-1
 325 500 l 2,17,18
 293 500 293 500 261.5 499 c 128,-1,19
 230 498 230 498 201 495 c 1,20,-1
 204 742 l 1,0,1
EndSplineSet
EndChar

StartChar: parenleft
Encoding: 40 40 115
Width: 885
Flags: W
LayerCount: 2
Fore
SplineSet
478 -100 m 1,0,1
 324 33 324 33 242 228.5 c 128,-1,2
 160 424 160 424 160 680 c 0,3,4
 160 787 160 787 180 892 c 128,-1,5
 200 997 200 997 240 1093.5 c 128,-1,6
 280 1190 280 1190 339.5 1276 c 128,-1,7
 399 1362 399 1362 478 1430 c 1,8,-1
 734 1430 l 1,9,-1
 734 1424 l 1,10,11
 648 1346 648 1346 587.5 1264 c 128,-1,12
 527 1182 527 1182 488.5 1090.5 c 128,-1,13
 450 999 450 999 432 896.5 c 128,-1,14
 414 794 414 794 414 675 c 0,15,16
 414 455 414 455 491 264.5 c 128,-1,17
 568 74 568 74 724 -94 c 1,18,-1
 724 -100 l 1,19,-1
 478 -100 l 1,0,1
EndSplineSet
EndChar

StartChar: parenright
Encoding: 41 41 116
Width: 885
Flags: W
LayerCount: 2
Fore
SplineSet
161 -94 m 1,0,1
 317 74 317 74 394 264.5 c 128,-1,2
 471 455 471 455 471 675 c 0,3,4
 471 794 471 794 453 896.5 c 128,-1,5
 435 999 435 999 396 1090 c 128,-1,6
 357 1181 357 1181 296.5 1263.5 c 128,-1,7
 236 1346 236 1346 151 1424 c 1,8,-1
 151 1430 l 1,9,-1
 407 1430 l 1,10,11
 486 1362 486 1362 545.5 1276 c 128,-1,12
 605 1190 605 1190 645 1093.5 c 128,-1,13
 685 997 685 997 705 892 c 128,-1,14
 725 787 725 787 725 680 c 0,15,16
 725 424 725 424 643 228.5 c 128,-1,17
 561 33 561 33 407 -100 c 1,18,-1
 161 -100 l 1,19,-1
 161 -94 l 1,0,1
EndSplineSet
EndChar

StartChar: bracketleft
Encoding: 91 91 117
Width: 885
Flags: W
LayerCount: 2
Fore
SplineSet
177 1112 m 2,0,1
 177 1144 177 1144 176.5 1190.5 c 128,-1,2
 176 1237 176 1237 175.5 1283.5 c 128,-1,3
 175 1330 175 1330 174 1370 c 128,-1,4
 173 1410 173 1410 172 1430 c 1,5,-1
 452 1430 l 2,6,7
 468 1430 468 1430 501 1430 c 128,-1,8
 534 1430 534 1430 570.5 1430.5 c 128,-1,9
 607 1431 607 1431 639.5 1432 c 128,-1,10
 672 1433 672 1433 686 1435 c 1,11,-1
 683 1188 l 1,12,13
 675 1190 675 1190 647 1191 c 128,-1,14
 619 1192 619 1192 582.5 1193 c 128,-1,15
 546 1194 546 1194 507.5 1194 c 128,-1,16
 469 1194 469 1194 441 1194 c 2,17,-1
 432 1194 l 1,18,-1
 432 126 l 1,19,-1
 441 126 l 2,20,21
 469 126 469 126 507.5 126 c 128,-1,22
 546 126 546 126 582.5 127 c 128,-1,23
 619 128 619 128 647 129 c 128,-1,24
 675 130 675 130 683 132 c 1,25,-1
 686 -115 l 1,26,27
 671 -114 671 -114 639 -113 c 128,-1,28
 607 -112 607 -112 570.5 -111.5 c 128,-1,29
 534 -111 534 -111 501 -110.5 c 128,-1,30
 468 -110 468 -110 452 -110 c 2,31,-1
 173 -110 l 1,32,33
 174 -94 174 -94 175 -82.5 c 128,-1,34
 176 -71 176 -71 176.5 -59.5 c 128,-1,35
 177 -48 177 -48 177 -34.5 c 128,-1,36
 177 -21 177 -21 177 -1 c 2,37,-1
 177 1112 l 2,0,1
EndSplineSet
EndChar

StartChar: bracketright
Encoding: 93 93 118
Width: 885
Flags: W
LayerCount: 2
Fore
SplineSet
202 132 m 1,0,1
 209 130 209 130 237.5 129 c 128,-1,2
 266 128 266 128 302.5 127 c 128,-1,3
 339 126 339 126 377.5 126 c 128,-1,4
 416 126 416 126 444 126 c 2,5,-1
 453 126 l 1,6,-1
 453 1194 l 1,7,-1
 444 1194 l 2,8,9
 416 1194 416 1194 377.5 1194 c 128,-1,10
 339 1194 339 1194 302.5 1193 c 128,-1,11
 266 1192 266 1192 237.5 1191 c 128,-1,12
 209 1190 209 1190 202 1188 c 1,13,-1
 199 1435 l 1,14,15
 213 1433 213 1433 245.5 1432 c 128,-1,16
 278 1431 278 1431 314.5 1430.5 c 128,-1,17
 351 1430 351 1430 384 1430 c 128,-1,18
 417 1430 417 1430 433 1430 c 2,19,-1
 713 1430 l 1,20,21
 711 1410 711 1410 710 1370 c 128,-1,22
 709 1330 709 1330 708.5 1283.5 c 128,-1,23
 708 1237 708 1237 708 1190.5 c 128,-1,24
 708 1144 708 1144 708 1112 c 2,25,-1
 708 -1 l 2,26,27
 708 -22 708 -22 708 -35.5 c 128,-1,28
 708 -49 708 -49 708 -60.5 c 128,-1,29
 708 -72 708 -72 709 -83 c 128,-1,30
 710 -94 710 -94 712 -110 c 1,31,-1
 433 -110 l 2,32,33
 417 -110 417 -110 384 -110.5 c 128,-1,34
 351 -111 351 -111 314.5 -111.5 c 128,-1,35
 278 -112 278 -112 246 -113 c 128,-1,36
 214 -114 214 -114 199 -115 c 1,37,-1
 202 132 l 1,0,1
EndSplineSet
EndChar

StartChar: currency
Encoding: 164 164 119
Width: 1414
Flags: W
LayerCount: 2
Fore
SplineSet
150 274 m 1,0,1
 173 293 173 293 195.5 314 c 128,-1,2
 218 335 218 335 241 358 c 2,3,-1
 318 436 l 1,4,5
 259 527 259 527 259 644 c 0,6,7
 259 698 259 698 273 750 c 128,-1,8
 287 802 287 802 316 851 c 1,9,-1
 241 926 l 2,10,11
 201 965 201 965 177 986 c 128,-1,12
 153 1007 153 1007 140 1015 c 1,13,-1
 330 1206 l 1,14,15
 349 1183 349 1183 370.5 1160.5 c 128,-1,16
 392 1138 392 1138 415 1115 c 2,17,-1
 507 1022 l 1,18,19
 553 1042 553 1042 607 1053.5 c 128,-1,20
 661 1065 661 1065 724 1065 c 0,21,22
 826 1065 826 1065 910 1030 c 1,23,-1
 999 1118 l 2,24,25
 1022 1141 1022 1141 1043 1163.5 c 128,-1,26
 1064 1186 1064 1186 1083 1209 c 1,27,-1
 1274 1019 l 1,28,29
 1260 1011 1260 1011 1235.5 990 c 128,-1,30
 1211 969 1211 969 1172 930 c 2,31,-1
 1107 865 l 1,32,33
 1167 767 1167 767 1167 654 c 0,34,35
 1167 594 1167 594 1149.5 539 c 128,-1,36
 1132 484 1132 484 1099 436 c 1,37,-1
 1176 360 l 2,38,39
 1199 337 1199 337 1221.5 315.5 c 128,-1,40
 1244 294 1244 294 1267 275 c 1,41,-1
 1076 85 l 1,42,43
 1068 98 1068 98 1047 122 c 128,-1,44
 1026 146 1026 146 987 186 c 2,45,-1
 897 276 l 1,46,47
 807 239 807 239 700 239 c 0,48,49
 601 239 601 239 517 273 c 1,50,-1
 429 185 l 2,51,52
 390 146 390 146 369 121.5 c 128,-1,53
 348 97 348 97 340 83 c 1,54,-1
 150 274 l 1,0,1
509 654 m 0,55,56
 509 614 509 614 526 581 c 128,-1,57
 543 548 543 548 571.5 524.5 c 128,-1,58
 600 501 600 501 638.5 488 c 128,-1,59
 677 475 677 475 719 475 c 0,60,61
 760 475 760 475 797 487.5 c 128,-1,62
 834 500 834 500 862 523 c 128,-1,63
 890 546 890 546 906.5 580 c 128,-1,64
 923 614 923 614 923 656 c 0,65,66
 923 689 923 689 908 721.5 c 128,-1,67
 893 754 893 754 865.5 779 c 128,-1,68
 838 804 838 804 799.5 819.5 c 128,-1,69
 761 835 761 835 713 835 c 0,70,71
 666 835 666 835 628.5 820 c 128,-1,72
 591 805 591 805 564.5 780 c 128,-1,73
 538 755 538 755 523.5 722 c 128,-1,74
 509 689 509 689 509 654 c 0,55,56
EndSplineSet
EndChar

StartChar: braceleft
Encoding: 123 123 120
Width: 885
Flags: W
LayerCount: 2
Fore
SplineSet
205 160 m 0,0,1
 205 181 205 181 208 204.5 c 128,-1,2
 211 228 211 228 220 253.5 c 128,-1,3
 229 279 229 279 246 306.5 c 128,-1,4
 263 334 263 334 291 363 c 1,5,6
 304 393 304 393 314.5 417 c 128,-1,7
 325 441 325 441 332.5 461 c 128,-1,8
 340 481 340 481 343.5 498.5 c 128,-1,9
 347 516 347 516 347 534 c 0,10,11
 347 615 347 615 160 648 c 1,12,-1
 160 703 l 1,13,14
 200 710 200 710 234 718 c 128,-1,15
 268 726 268 726 293 737 c 128,-1,16
 318 748 318 748 332.5 762 c 128,-1,17
 347 776 347 776 347 796 c 0,18,19
 347 812 347 812 344.5 827.5 c 128,-1,20
 342 843 342 843 335.5 861 c 128,-1,21
 329 879 329 879 318.5 902 c 128,-1,22
 308 925 308 925 292 957 c 1,23,24
 243 1005 243 1005 224 1060 c 128,-1,25
 205 1115 205 1115 205 1166 c 0,26,27
 205 1212 205 1212 225 1261.5 c 128,-1,28
 245 1311 245 1311 289 1352 c 128,-1,29
 333 1393 333 1393 402 1419 c 128,-1,30
 471 1445 471 1445 569 1445 c 0,31,32
 598 1445 598 1445 635.5 1441.5 c 128,-1,33
 673 1438 673 1438 705 1433 c 1,34,-1
 695 1230 l 1,35,-1
 691 1228 l 1,36,37
 657 1236 657 1236 630.5 1238.5 c 128,-1,38
 604 1241 604 1241 584 1241 c 0,39,40
 529 1241 529 1241 495 1213.5 c 128,-1,41
 461 1186 461 1186 461 1149 c 0,42,43
 461 1114 461 1114 484 1071.5 c 128,-1,44
 507 1029 507 1029 561 978 c 1,45,46
 588 921 588 921 603.5 877 c 128,-1,47
 619 833 619 833 619 793 c 0,48,49
 619 772 619 772 606 753.5 c 128,-1,50
 593 735 593 735 571.5 718.5 c 128,-1,51
 550 702 550 702 521 688.5 c 128,-1,52
 492 675 492 675 460 665 c 1,53,54
 494 654 494 654 523 641 c 128,-1,55
 552 628 552 628 573.5 613 c 128,-1,56
 595 598 595 598 607 581 c 128,-1,57
 619 564 619 564 619 546 c 0,58,59
 619 511 619 511 605.5 468.5 c 128,-1,60
 592 426 592 426 569 375 c 1,61,62
 540 343 540 343 519.5 318 c 128,-1,63
 499 293 499 293 486 273 c 128,-1,64
 473 253 473 253 467 236 c 128,-1,65
 461 219 461 219 461 203 c 0,66,67
 461 183 461 183 470.5 164.5 c 128,-1,68
 480 146 480 146 497 131.5 c 128,-1,69
 514 117 514 117 537.5 108 c 128,-1,70
 561 99 561 99 590 99 c 0,71,72
 614 99 614 99 639.5 101.5 c 128,-1,73
 665 104 665 104 691 112 c 1,74,-1
 695 110 l 1,75,-1
 705 -93 l 1,76,77
 682 -97 682 -97 664 -99.5 c 128,-1,78
 646 -102 646 -102 630 -103 c 128,-1,79
 614 -104 614 -104 599.5 -104.5 c 128,-1,80
 585 -105 585 -105 569 -105 c 0,81,82
 474 -105 474 -105 405 -84 c 128,-1,83
 336 -63 336 -63 291.5 -27 c 128,-1,84
 247 9 247 9 226 57 c 128,-1,85
 205 105 205 105 205 160 c 0,0,1
EndSplineSet
EndChar

StartChar: braceright
Encoding: 125 125 121
Width: 885
Flags: W
LayerCount: 2
Fore
SplineSet
190 110 m 1,0,-1
 194 112 l 1,1,2
 220 104 220 104 245.5 101.5 c 128,-1,3
 271 99 271 99 295 99 c 0,4,5
 323 99 323 99 347 108 c 128,-1,6
 371 117 371 117 388 131.5 c 128,-1,7
 405 146 405 146 414.5 164.5 c 128,-1,8
 424 183 424 183 424 203 c 0,9,10
 424 234 424 234 399 273 c 128,-1,11
 374 312 374 312 316 375 c 1,12,13
 293 426 293 426 279.5 468.5 c 128,-1,14
 266 511 266 511 266 546 c 0,15,16
 266 564 266 564 278 581 c 128,-1,17
 290 598 290 598 311 613 c 128,-1,18
 332 628 332 628 361 641 c 128,-1,19
 390 654 390 654 424 665 c 1,20,21
 392 675 392 675 363.5 688.5 c 128,-1,22
 335 702 335 702 313.5 718.5 c 128,-1,23
 292 735 292 735 279 753.5 c 128,-1,24
 266 772 266 772 266 793 c 0,25,26
 266 833 266 833 281.5 877 c 128,-1,27
 297 921 297 921 324 978 c 1,28,29
 378 1029 378 1029 401 1071.5 c 128,-1,30
 424 1114 424 1114 424 1149 c 0,31,32
 424 1186 424 1186 390 1213.5 c 128,-1,33
 356 1241 356 1241 301 1241 c 0,34,35
 280 1241 280 1241 254 1238.5 c 128,-1,36
 228 1236 228 1236 194 1228 c 1,37,-1
 190 1230 l 1,38,-1
 180 1433 l 1,39,40
 212 1438 212 1438 249.5 1441.5 c 128,-1,41
 287 1445 287 1445 316 1445 c 0,42,43
 414 1445 414 1445 483 1419 c 128,-1,44
 552 1393 552 1393 596 1352 c 128,-1,45
 640 1311 640 1311 660 1261.5 c 128,-1,46
 680 1212 680 1212 680 1166 c 0,47,48
 680 1115 680 1115 661 1060 c 128,-1,49
 642 1005 642 1005 593 957 c 1,50,51
 577 925 577 925 566.5 902 c 128,-1,52
 556 879 556 879 549.5 861 c 128,-1,53
 543 843 543 843 540.5 827.5 c 128,-1,54
 538 812 538 812 538 796 c 0,55,56
 538 776 538 776 552.5 762 c 128,-1,57
 567 748 567 748 592 737 c 128,-1,58
 617 726 617 726 651 718 c 128,-1,59
 685 710 685 710 725 703 c 1,60,-1
 725 648 l 1,61,62
 538 615 538 615 538 534 c 0,63,64
 538 516 538 516 541.5 498.5 c 128,-1,65
 545 481 545 481 552.5 461 c 128,-1,66
 560 441 560 441 570 417 c 128,-1,67
 580 393 580 393 594 363 c 1,68,69
 622 334 622 334 639 306.5 c 128,-1,70
 656 279 656 279 665 253.5 c 128,-1,71
 674 228 674 228 677 204.5 c 128,-1,72
 680 181 680 181 680 160 c 0,73,74
 680 105 680 105 659 57 c 128,-1,75
 638 9 638 9 593.5 -27 c 128,-1,76
 549 -63 549 -63 480 -84 c 128,-1,77
 411 -105 411 -105 316 -105 c 0,78,79
 299 -105 299 -105 284.5 -104.5 c 128,-1,80
 270 -104 270 -104 254.5 -103 c 128,-1,81
 239 -102 239 -102 221 -99.5 c 128,-1,82
 203 -97 203 -97 180 -93 c 1,83,-1
 190 110 l 1,0,-1
EndSplineSet
EndChar

StartChar: less
Encoding: 60 60 122
Width: 1239
Flags: W
LayerCount: 2
Fore
SplineSet
282 648 m 1,0,-1
 957 1065 l 1,1,-1
 957 784 l 1,2,-1
 517 536 l 1,3,-1
 957 265 l 1,4,-1
 957 -15 l 1,5,-1
 282 434 l 1,6,-1
 282 648 l 1,0,-1
EndSplineSet
EndChar

StartChar: greater
Encoding: 62 62 123
Width: 1239
Flags: W
LayerCount: 2
Fore
SplineSet
282 265 m 1,0,-1
 721 536 l 1,1,-1
 282 784 l 1,2,-1
 282 1065 l 1,3,-1
 957 648 l 1,4,-1
 957 434 l 1,5,-1
 282 -15 l 1,6,-1
 282 265 l 1,0,-1
EndSplineSet
EndChar

StartChar: degree
Encoding: 176 176 124
Width: 885
Flags: W
LayerCount: 2
Fore
SplineSet
433 732 m 0,0,1
 365 732 365 732 307.5 755.5 c 128,-1,2
 250 779 250 779 208.5 820 c 128,-1,3
 167 861 167 861 143.5 917 c 128,-1,4
 120 973 120 973 120 1038 c 0,5,6
 120 1100 120 1100 142 1157.5 c 128,-1,7
 164 1215 164 1215 206 1259 c 128,-1,8
 248 1303 248 1303 309.5 1329 c 128,-1,9
 371 1355 371 1355 451 1355 c 0,10,11
 521 1355 521 1355 579 1328.5 c 128,-1,12
 637 1302 637 1302 678 1258.5 c 128,-1,13
 719 1215 719 1215 742 1159 c 128,-1,14
 765 1103 765 1103 765 1044 c 0,15,16
 765 978 765 978 741 921 c 128,-1,17
 717 864 717 864 673 822 c 128,-1,18
 629 780 629 780 568 756 c 128,-1,19
 507 732 507 732 433 732 c 0,0,1
448 926 m 0,20,21
 499 926 499 926 532.5 959.5 c 128,-1,22
 566 993 566 993 566 1047 c 0,23,24
 566 1071 566 1071 558 1092.5 c 128,-1,25
 550 1114 550 1114 534 1130.5 c 128,-1,26
 518 1147 518 1147 495.5 1156.5 c 128,-1,27
 473 1166 473 1166 443 1166 c 0,28,29
 416 1166 416 1166 393.5 1156.5 c 128,-1,30
 371 1147 371 1147 355.5 1130.5 c 128,-1,31
 340 1114 340 1114 331.5 1091.5 c 128,-1,32
 323 1069 323 1069 323 1044 c 0,33,34
 323 993 323 993 355.5 959.5 c 128,-1,35
 388 926 388 926 448 926 c 0,20,21
EndSplineSet
EndChar

StartChar: asciicircum
Encoding: 94 94 126
Width: 1239
Flags: W
LayerCount: 2
Fore
SplineSet
503 1415 m 1,0,-1
 717 1415 l 1,1,-1
 1134 655 l 1,2,-1
 852 655 l 1,3,-1
 613 1138 l 1,4,-1
 385 655 l 1,5,-1
 104 655 l 1,6,-1
 503 1415 l 1,0,-1
EndSplineSet
EndChar

StartChar: ordmasculine
Encoding: 186 186 127
Width: 1032
Flags: W
LayerCount: 2
Fore
SplineSet
512 577 m 0,0,1
 402 577 402 577 320.5 611 c 128,-1,2
 239 645 239 645 185.5 699 c 128,-1,3
 132 753 132 753 106 821 c 128,-1,4
 80 889 80 889 80 957 c 0,5,6
 80 1041 80 1041 113 1113.5 c 128,-1,7
 146 1186 146 1186 205 1240 c 128,-1,8
 264 1294 264 1294 344.5 1324.5 c 128,-1,9
 425 1355 425 1355 521 1355 c 0,10,11
 612 1355 612 1355 691 1327 c 128,-1,12
 770 1299 770 1299 828 1248 c 128,-1,13
 886 1197 886 1197 919 1126.5 c 128,-1,14
 952 1056 952 1056 952 972 c 0,15,16
 952 891 952 891 918 819 c 128,-1,17
 884 747 884 747 825 693.5 c 128,-1,18
 766 640 766 640 685.5 608.5 c 128,-1,19
 605 577 605 577 512 577 c 0,0,1
525 803 m 0,20,21
 563 803 563 803 596.5 814.5 c 128,-1,22
 630 826 630 826 654.5 846.5 c 128,-1,23
 679 867 679 867 693.5 895.5 c 128,-1,24
 708 924 708 924 708 959 c 0,25,26
 708 996 708 996 692.5 1027 c 128,-1,27
 677 1058 677 1058 650.5 1079.5 c 128,-1,28
 624 1101 624 1101 588 1113 c 128,-1,29
 552 1125 552 1125 510 1125 c 0,30,31
 462 1125 462 1125 426.5 1110.5 c 128,-1,32
 391 1096 391 1096 367 1073 c 128,-1,33
 343 1050 343 1050 331.5 1021 c 128,-1,34
 320 992 320 992 320 963 c 0,35,36
 320 927 320 927 335.5 897.5 c 128,-1,37
 351 868 351 868 378 847 c 128,-1,38
 405 826 405 826 442.5 814.5 c 128,-1,39
 480 803 480 803 525 803 c 0,20,21
EndSplineSet
EndChar

StartChar: ordfeminine
Encoding: 170 170 128
Width: 1068
Flags: W
LayerCount: 2
Fore
SplineSet
517 577 m 0,0,1
 404 577 404 577 322 609 c 128,-1,2
 240 641 240 641 186 694 c 128,-1,3
 132 747 132 747 106 815.5 c 128,-1,4
 80 884 80 884 80 957 c 0,5,6
 80 1041 80 1041 114 1113.5 c 128,-1,7
 148 1186 148 1186 207.5 1240 c 128,-1,8
 267 1294 267 1294 348.5 1324.5 c 128,-1,9
 430 1355 430 1355 526 1355 c 0,10,11
 580 1355 580 1355 620 1342 c 128,-1,12
 660 1329 660 1329 696 1304 c 1,13,-1
 696 1361 l 1,14,-1
 951 1361 l 1,15,-1
 951 898 l 2,16,17
 951 848 951 848 958.5 812.5 c 128,-1,18
 966 777 966 777 977.5 752.5 c 128,-1,19
 989 728 989 728 1003.5 714 c 128,-1,20
 1018 700 1018 700 1032 694 c 1,21,-1
 1030 689 l 1,22,-1
 832 560 l 1,23,24
 805 569 805 569 779.5 599 c 128,-1,25
 754 629 754 629 734 668 c 1,26,27
 694 626 694 626 640 601.5 c 128,-1,28
 586 577 586 577 517 577 c 0,0,1
546 806 m 0,29,30
 589 806 589 806 628 822 c 128,-1,31
 667 838 667 838 696 856 c 1,32,-1
 696 1083 l 1,33,34
 664 1098 664 1098 622.5 1111.5 c 128,-1,35
 581 1125 581 1125 545 1125 c 0,36,37
 491 1125 491 1125 451.5 1112 c 128,-1,38
 412 1099 412 1099 386 1077.5 c 128,-1,39
 360 1056 360 1056 347.5 1027.5 c 128,-1,40
 335 999 335 999 335 969 c 0,41,42
 335 931 335 931 350 901 c 128,-1,43
 365 871 365 871 393 850 c 128,-1,44
 421 829 421 829 460 817.5 c 128,-1,45
 499 806 499 806 546 806 c 0,29,30
EndSplineSet
EndChar

StartChar: at
Encoding: 64 64 129
Width: 2478
Flags: W
LayerCount: 2
Fore
SplineSet
205 428 m 0,0,1
 205 548 205 548 240.5 663.5 c 128,-1,2
 276 779 276 779 341 881 c 128,-1,3
 406 983 406 983 498.5 1069 c 128,-1,4
 591 1155 591 1155 705.5 1217.5 c 128,-1,5
 820 1280 820 1280 954 1314.5 c 128,-1,6
 1088 1349 1088 1349 1236 1349 c 0,7,8
 1405 1349 1405 1349 1547 1317 c 128,-1,9
 1689 1285 1689 1285 1804.5 1228 c 128,-1,10
 1920 1171 1920 1171 2007.5 1093 c 128,-1,11
 2095 1015 2095 1015 2153.5 923.5 c 128,-1,12
 2212 832 2212 832 2242 730 c 128,-1,13
 2272 628 2272 628 2272 523 c 0,14,15
 2272 392 2272 392 2233 291.5 c 128,-1,16
 2194 191 2194 191 2130.5 123 c 128,-1,17
 2067 55 2067 55 1985 20 c 128,-1,18
 1903 -15 1903 -15 1816 -15 c 0,19,20
 1720 -15 1720 -15 1652 12 c 128,-1,21
 1584 39 1584 39 1538 87 c 1,22,23
 1471 39 1471 39 1390 12 c 128,-1,24
 1309 -15 1309 -15 1215 -15 c 0,25,26
 1098 -15 1098 -15 1005.5 22 c 128,-1,27
 913 59 913 59 849 121 c 128,-1,28
 785 183 785 183 751 264 c 128,-1,29
 717 345 717 345 717 432 c 0,30,31
 717 523 717 523 756 603.5 c 128,-1,32
 795 684 795 684 865 744.5 c 128,-1,33
 935 805 935 805 1031.5 840 c 128,-1,34
 1128 875 1128 875 1242 875 c 0,35,36
 1296 875 1296 875 1346 865 c 128,-1,37
 1396 855 1396 855 1445 836 c 1,38,-1
 1445 855 l 1,39,-1
 1698 855 l 1,40,-1
 1698 400 l 2,41,42
 1698 352 1698 352 1703.5 317 c 128,-1,43
 1709 282 1709 282 1723 259.5 c 128,-1,44
 1737 237 1737 237 1761.5 226 c 128,-1,45
 1786 215 1786 215 1824 215 c 0,46,47
 1864 215 1864 215 1899 230.5 c 128,-1,48
 1934 246 1934 246 1960 279 c 128,-1,49
 1986 312 1986 312 2001.5 363 c 128,-1,50
 2017 414 2017 414 2017 485 c 0,51,52
 2017 624 2017 624 1963 743.5 c 128,-1,53
 1909 863 1909 863 1808.5 951 c 128,-1,54
 1708 1039 1708 1039 1566 1089.5 c 128,-1,55
 1424 1140 1424 1140 1247 1140 c 0,56,57
 1053 1140 1053 1140 906 1081 c 128,-1,58
 759 1022 759 1022 660 922.5 c 128,-1,59
 561 823 561 823 510.5 693 c 128,-1,60
 460 563 460 563 460 421 c 0,61,62
 460 274 460 274 516 147.5 c 128,-1,63
 572 21 572 21 679 -72.5 c 128,-1,64
 786 -166 786 -166 941 -219.5 c 128,-1,65
 1096 -273 1096 -273 1293 -273 c 0,66,67
 1402 -273 1402 -273 1505 -259 c 128,-1,68
 1608 -245 1608 -245 1693.5 -222.5 c 128,-1,69
 1779 -200 1779 -200 1841 -172.5 c 128,-1,70
 1903 -145 1903 -145 1929 -118 c 1,71,-1
 1935 -121 l 1,72,-1
 1863 -361 l 1,73,74
 1757 -417 1757 -417 1614.5 -452 c 128,-1,75
 1472 -487 1472 -487 1285 -487 c 0,76,77
 1040 -487 1040 -487 840.5 -425.5 c 128,-1,78
 641 -364 641 -364 500 -246.5 c 128,-1,79
 359 -129 359 -129 282 41 c 128,-1,80
 205 211 205 211 205 428 c 0,0,1
980 434 m 0,81,82
 980 388 980 388 996.5 349 c 128,-1,83
 1013 310 1013 310 1046 281.5 c 128,-1,84
 1079 253 1079 253 1128.5 236.5 c 128,-1,85
 1178 220 1178 220 1244 220 c 0,86,87
 1298 220 1298 220 1352 235 c 128,-1,88
 1406 250 1406 250 1448 276 c 1,89,90
 1445 303 1445 303 1445 332 c 2,91,-1
 1445 598 l 1,92,93
 1410 618 1410 618 1359.5 631.5 c 128,-1,94
 1309 645 1309 645 1246 645 c 0,95,96
 1184 645 1184 645 1135 629 c 128,-1,97
 1086 613 1086 613 1051.5 584.5 c 128,-1,98
 1017 556 1017 556 998.5 517.5 c 128,-1,99
 980 479 980 479 980 434 c 0,81,82
EndSplineSet
EndChar

StartChar: copyright
Encoding: 169 169 130
Width: 1949
Flags: W
LayerCount: 2
Fore
SplineSet
209 804 m 0,0,1
 209 921 209 921 240 1016.5 c 128,-1,2
 271 1112 271 1112 325 1186.5 c 128,-1,3
 379 1261 379 1261 452.5 1315.5 c 128,-1,4
 526 1370 526 1370 612 1405.5 c 128,-1,5
 698 1441 698 1441 792 1458 c 128,-1,6
 886 1475 886 1475 980 1475 c 1,7,8
 1076 1473 1076 1473 1170 1453 c 128,-1,9
 1264 1433 1264 1433 1348.5 1395 c 128,-1,10
 1433 1357 1433 1357 1504.5 1301.5 c 128,-1,11
 1576 1246 1576 1246 1628 1173.5 c 128,-1,12
 1680 1101 1680 1101 1709.5 1011.5 c 128,-1,13
 1739 922 1739 922 1739 817 c 0,14,15
 1739 717 1739 717 1711.5 626 c 128,-1,16
 1684 535 1684 535 1633.5 457 c 128,-1,17
 1583 379 1583 379 1513 315.5 c 128,-1,18
 1443 252 1443 252 1358 207.5 c 128,-1,19
 1273 163 1273 163 1175.5 139 c 128,-1,20
 1078 115 1078 115 973 115 c 0,21,22
 808 115 808 115 668 163.5 c 128,-1,23
 528 212 528 212 426 302 c 128,-1,24
 324 392 324 392 266.5 519 c 128,-1,25
 209 646 209 646 209 804 c 0,0,1
444 794 m 0,26,27
 444 701 444 701 482 618 c 128,-1,28
 520 535 520 535 589 472 c 128,-1,29
 658 409 658 409 755 372 c 128,-1,30
 852 335 852 335 969 335 c 0,31,32
 1096 335 1096 335 1195.5 370 c 128,-1,33
 1295 405 1295 405 1363.5 466.5 c 128,-1,34
 1432 528 1432 528 1468 611.5 c 128,-1,35
 1504 695 1504 695 1504 791 c 0,36,37
 1504 897 1504 897 1466.5 986 c 128,-1,38
 1429 1075 1429 1075 1359.5 1139.5 c 128,-1,39
 1290 1204 1290 1204 1191.5 1240 c 128,-1,40
 1093 1276 1093 1276 972 1276 c 0,41,42
 847 1276 847 1276 748.5 1239.5 c 128,-1,43
 650 1203 650 1203 582.5 1138.5 c 128,-1,44
 515 1074 515 1074 479.5 985.5 c 128,-1,45
 444 897 444 897 444 794 c 0,26,27
618 800 m 0,46,47
 618 869 618 869 647 930 c 128,-1,48
 676 991 676 991 728.5 1036.5 c 128,-1,49
 781 1082 781 1082 855 1108.5 c 128,-1,50
 929 1135 929 1135 1020 1135 c 0,51,52
 1045 1135 1045 1135 1075 1131.5 c 128,-1,53
 1105 1128 1105 1128 1133 1122 c 128,-1,54
 1161 1116 1161 1116 1185 1109 c 128,-1,55
 1209 1102 1209 1102 1224 1095 c 1,56,-1
 1223 868 l 1,57,58
 1209 881 1209 881 1185 892.5 c 128,-1,59
 1161 904 1161 904 1133.5 912 c 128,-1,60
 1106 920 1106 920 1076.5 924.5 c 128,-1,61
 1047 929 1047 929 1022 929 c 0,62,63
 931 929 931 929 886 895.5 c 128,-1,64
 841 862 841 862 841 808 c 0,65,66
 841 753 841 753 893.5 720 c 128,-1,67
 946 687 946 687 1034 687 c 0,68,69
 1061 687 1061 687 1090.5 692 c 128,-1,70
 1120 697 1120 697 1147 706 c 128,-1,71
 1174 715 1174 715 1196.5 726.5 c 128,-1,72
 1219 738 1219 738 1232 751 c 1,73,-1
 1234 750 l 1,74,-1
 1234 545 l 1,75,76
 1215 529 1215 529 1188 517 c 128,-1,77
 1161 505 1161 505 1130 497 c 128,-1,78
 1099 489 1099 489 1065 485 c 128,-1,79
 1031 481 1031 481 997 481 c 0,80,81
 910 481 910 481 839.5 506 c 128,-1,82
 769 531 769 531 720 574 c 128,-1,83
 671 617 671 617 644.5 675.5 c 128,-1,84
 618 734 618 734 618 800 c 0,46,47
EndSplineSet
EndChar

StartChar: registered
Encoding: 174 174 131
Width: 1730
Flags: W
LayerCount: 2
Fore
SplineSet
209 804 m 0,0,1
 209 921 209 921 240 1016.5 c 128,-1,2
 271 1112 271 1112 325 1186.5 c 128,-1,3
 379 1261 379 1261 452.5 1315.5 c 128,-1,4
 526 1370 526 1370 612 1405.5 c 128,-1,5
 698 1441 698 1441 792 1458 c 128,-1,6
 886 1475 886 1475 980 1475 c 1,7,8
 1076 1473 1076 1473 1170 1453 c 128,-1,9
 1264 1433 1264 1433 1348.5 1395 c 128,-1,10
 1433 1357 1433 1357 1504.5 1301.5 c 128,-1,11
 1576 1246 1576 1246 1628 1173.5 c 128,-1,12
 1680 1101 1680 1101 1709.5 1011.5 c 128,-1,13
 1739 922 1739 922 1739 817 c 0,14,15
 1739 717 1739 717 1711.5 626 c 128,-1,16
 1684 535 1684 535 1633.5 457 c 128,-1,17
 1583 379 1583 379 1513 315.5 c 128,-1,18
 1443 252 1443 252 1358 207.5 c 128,-1,19
 1273 163 1273 163 1175.5 139 c 128,-1,20
 1078 115 1078 115 973 115 c 0,21,22
 808 115 808 115 668 163.5 c 128,-1,23
 528 212 528 212 426 302 c 128,-1,24
 324 392 324 392 266.5 519 c 128,-1,25
 209 646 209 646 209 804 c 0,0,1
444 794 m 0,26,27
 444 701 444 701 482 618 c 128,-1,28
 520 535 520 535 589 472 c 128,-1,29
 658 409 658 409 755 372 c 128,-1,30
 852 335 852 335 969 335 c 0,31,32
 1096 335 1096 335 1195.5 370 c 128,-1,33
 1295 405 1295 405 1363.5 466.5 c 128,-1,34
 1432 528 1432 528 1468 611.5 c 128,-1,35
 1504 695 1504 695 1504 791 c 0,36,37
 1504 897 1504 897 1466.5 986 c 128,-1,38
 1429 1075 1429 1075 1359.5 1139.5 c 128,-1,39
 1290 1204 1290 1204 1191.5 1240 c 128,-1,40
 1093 1276 1093 1276 972 1276 c 0,41,42
 847 1276 847 1276 748.5 1239.5 c 128,-1,43
 650 1203 650 1203 582.5 1138.5 c 128,-1,44
 515 1074 515 1074 479.5 985.5 c 128,-1,45
 444 897 444 897 444 794 c 0,26,27
699 1105 m 1,46,47
 747 1118 747 1118 809 1125 c 128,-1,48
 871 1132 871 1132 935 1132 c 0,49,50
 1029 1132 1029 1132 1098 1112 c 128,-1,51
 1167 1092 1167 1092 1211.5 1058 c 128,-1,52
 1256 1024 1256 1024 1277.5 979 c 128,-1,53
 1299 934 1299 934 1299 885 c 0,54,55
 1299 837 1299 837 1277.5 794 c 128,-1,56
 1256 751 1256 751 1217 718 c 1,57,-1
 1271 614 l 2,58,59
 1279 599 1279 599 1290 579.5 c 128,-1,60
 1301 560 1301 560 1312.5 542 c 128,-1,61
 1324 524 1324 524 1333 510.5 c 128,-1,62
 1342 497 1342 497 1346 494 c 1,63,-1
 1344 492 l 1,64,65
 1321 495 1321 495 1298 495 c 0,66,67
 1289 495 1289 495 1262 495 c 128,-1,68
 1235 495 1235 495 1203 494.5 c 128,-1,69
 1171 494 1171 494 1141.5 493 c 128,-1,70
 1112 492 1112 492 1098 491 c 1,71,-1
 1024 639 l 1,72,73
 1005 636 1005 636 985 635.5 c 128,-1,74
 965 635 965 635 944 635 c 0,75,76
 939 635 939 635 934 635 c 128,-1,77
 929 635 929 635 924 637 c 1,78,-1
 924 495 l 1,79,-1
 699 495 l 1,80,-1
 699 1105 l 1,46,47
924 806 m 1,81,82
 932 804 932 804 939 804 c 128,-1,83
 946 804 946 804 953 804 c 0,84,85
 980 804 980 804 1003.5 808 c 128,-1,86
 1027 812 1027 812 1045 821.5 c 128,-1,87
 1063 831 1063 831 1073 848.5 c 128,-1,88
 1083 866 1083 866 1083 893 c 0,89,90
 1083 926 1083 926 1048 946 c 128,-1,91
 1013 966 1013 966 944 966 c 0,92,93
 939 966 939 966 934 966 c 128,-1,94
 929 966 929 966 924 965 c 1,95,-1
 924 806 l 1,81,82
EndSplineSet
EndChar

StartChar: section
Encoding: 167 167 132
Width: 1267
Flags: W
LayerCount: 2
Fore
SplineSet
197 -33 m 1,0,1
 221 -73 221 -73 267 -108 c 128,-1,2
 313 -143 313 -143 371.5 -169.5 c 128,-1,3
 430 -196 430 -196 496.5 -211.5 c 128,-1,4
 563 -227 563 -227 627 -227 c 0,5,6
 673 -227 673 -227 715 -218.5 c 128,-1,7
 757 -210 757 -210 789.5 -194 c 128,-1,8
 822 -178 822 -178 841 -157 c 128,-1,9
 860 -136 860 -136 860 -110 c 256,10,11
 860 -84 860 -84 843 -61 c 128,-1,12
 826 -38 826 -38 789 -18 c 128,-1,13
 752 2 752 2 693.5 19 c 128,-1,14
 635 36 635 36 552 51 c 0,15,16
 453 69 453 69 370 101.5 c 128,-1,17
 287 134 287 134 227 179 c 128,-1,18
 167 224 167 224 133.5 279.5 c 128,-1,19
 100 335 100 335 100 400 c 0,20,21
 100 458 100 458 114.5 506 c 128,-1,22
 129 554 129 554 156 594 c 128,-1,23
 183 634 183 634 220.5 666.5 c 128,-1,24
 258 699 258 699 304 725 c 1,25,26
 234 782 234 782 196.5 848 c 128,-1,27
 159 914 159 914 159 983 c 0,28,29
 159 1061 159 1061 194.5 1128.5 c 128,-1,30
 230 1196 230 1196 298 1246.5 c 128,-1,31
 366 1297 366 1297 466 1326 c 128,-1,32
 566 1355 566 1355 695 1355 c 0,33,34
 754 1355 754 1355 809.5 1346.5 c 128,-1,35
 865 1338 865 1338 913 1324.5 c 128,-1,36
 961 1311 961 1311 999.5 1293 c 128,-1,37
 1038 1275 1038 1275 1063 1256 c 1,38,-1
 1025 968 l 1,39,-1
 1020 965 l 1,40,41
 996 997 996 997 959.5 1025.5 c 128,-1,42
 923 1054 923 1054 875 1075.5 c 128,-1,43
 827 1097 827 1097 768.5 1109.5 c 128,-1,44
 710 1122 710 1122 642 1122 c 0,45,46
 589 1122 589 1122 546.5 1112.5 c 128,-1,47
 504 1103 504 1103 474 1087 c 128,-1,48
 444 1071 444 1071 428 1049.5 c 128,-1,49
 412 1028 412 1028 412 1005 c 0,50,51
 412 979 412 979 431.5 954 c 128,-1,52
 451 929 451 929 488 907.5 c 128,-1,53
 525 886 525 886 577.5 869 c 128,-1,54
 630 852 630 852 696 841 c 0,55,56
 818 821 818 821 907 785 c 128,-1,57
 996 749 996 749 1053.5 703 c 128,-1,58
 1111 657 1111 657 1139 603.5 c 128,-1,59
 1167 550 1167 550 1167 495 c 0,60,61
 1167 383 1167 383 1114.5 304.5 c 128,-1,62
 1062 226 1062 226 972 175 c 1,63,64
 1038 124 1038 124 1072.5 62 c 128,-1,65
 1107 0 1107 0 1107 -72 c 0,66,67
 1107 -138 1107 -138 1086 -192 c 128,-1,68
 1065 -246 1065 -246 1029 -288.5 c 128,-1,69
 993 -331 993 -331 944 -362.5 c 128,-1,70
 895 -394 895 -394 838.5 -415 c 128,-1,71
 782 -436 782 -436 720.5 -446 c 128,-1,72
 659 -456 659 -456 598 -456 c 0,73,74
 544 -456 544 -456 487 -447 c 128,-1,75
 430 -438 430 -438 377 -422 c 128,-1,76
 324 -406 324 -406 279.5 -385.5 c 128,-1,77
 235 -365 235 -365 205 -341 c 1,78,-1
 194 -35 l 1,79,-1
 197 -33 l 1,0,1
344 465 m 0,80,81
 344 435 344 435 371 410.5 c 128,-1,82
 398 386 398 386 440.5 366 c 128,-1,83
 483 346 483 346 535 331 c 128,-1,84
 587 316 587 316 636.5 305 c 128,-1,85
 686 294 686 294 727.5 287 c 128,-1,86
 769 280 769 280 790 277 c 1,87,88
 821 298 821 298 846 315.5 c 128,-1,89
 871 333 871 333 888.5 350.5 c 128,-1,90
 906 368 906 368 915.5 386.5 c 128,-1,91
 925 405 925 405 925 429 c 0,92,93
 925 461 925 461 888 489 c 128,-1,94
 851 517 851 517 792.5 540 c 128,-1,95
 734 563 734 563 661.5 581 c 128,-1,96
 589 599 589 599 519 612 c 1,97,98
 487 604 487 604 455.5 589.5 c 128,-1,99
 424 575 424 575 399 555.5 c 128,-1,100
 374 536 374 536 359 513 c 128,-1,101
 344 490 344 490 344 465 c 0,80,81
EndSplineSet
EndChar

StartChar: mu
Encoding: 181 181 133
AltUni2: 0003bc.ffffffff.0 0003bc.ffffffff.0
Width: 1244
Flags: W
LayerCount: 2
Fore
SplineSet
173 820 m 2,0,1
 173 867 173 867 172 901.5 c 128,-1,2
 171 936 171 936 169.5 962 c 128,-1,3
 168 988 168 988 165.5 1008.5 c 128,-1,4
 163 1029 163 1029 160 1049 c 1,5,6
 186 1046 186 1046 223.5 1045.5 c 128,-1,7
 261 1045 261 1045 312 1045 c 0,8,9
 329 1045 329 1045 355.5 1045.5 c 128,-1,10
 382 1046 382 1046 418 1048 c 1,11,-1
 418 302 l 1,12,13
 455 254 455 254 503.5 237 c 128,-1,14
 552 220 552 220 615 220 c 0,15,16
 657 220 657 220 693 233.5 c 128,-1,17
 729 247 729 247 764 281 c 1,18,-1
 764 1045 l 1,19,-1
 1009 1045 l 1,20,-1
 1009 374 l 2,21,22
 1009 296 1009 296 1036.5 258 c 128,-1,23
 1064 220 1064 220 1115 220 c 0,24,25
 1144 220 1144 220 1163.5 228.5 c 128,-1,26
 1183 237 1183 237 1196 252 c 1,27,-1
 1204 252 l 1,28,-1
 1147 4 l 1,29,30
 1133 -4 1133 -4 1103 -9.5 c 128,-1,31
 1073 -15 1073 -15 1041 -15 c 0,32,33
 969 -15 969 -15 915 12.5 c 128,-1,34
 861 40 861 40 826 85 c 1,35,36
 760 33 760 33 696 9 c 128,-1,37
 632 -15 632 -15 563 -15 c 0,38,39
 517 -15 517 -15 475 -4 c 128,-1,40
 433 7 433 7 395 26 c 1,41,42
 398 -85 398 -85 420 -162.5 c 128,-1,43
 442 -240 442 -240 487 -271 c 1,44,-1
 487 -276 l 1,45,-1
 286 -407 l 1,46,47
 259 -387 259 -387 238 -357.5 c 128,-1,48
 217 -328 217 -328 202.5 -284.5 c 128,-1,49
 188 -241 188 -241 180.5 -182 c 128,-1,50
 173 -123 173 -123 173 -45 c 2,51,-1
 173 820 l 2,0,1
EndSplineSet
EndChar

StartChar: ae
Encoding: 230 230 134
Width: 1777
Flags: W
LayerCount: 2
Fore
SplineSet
75 332 m 0,0,1
 75 413 75 413 114 484 c 128,-1,2
 153 555 153 555 223.5 607.5 c 128,-1,3
 294 660 294 660 391 690.5 c 128,-1,4
 488 721 488 721 604 721 c 0,5,6
 615 721 615 721 627.5 720.5 c 128,-1,7
 640 720 640 720 651 718 c 1,8,9
 631 794 631 794 574.5 826.5 c 128,-1,10
 518 859 518 859 440 859 c 0,11,12
 402 859 402 859 364 849 c 128,-1,13
 326 839 326 839 290.5 820.5 c 128,-1,14
 255 802 255 802 224 776 c 128,-1,15
 193 750 193 750 170 719 c 1,16,-1
 167 721 l 1,17,-1
 137 952 l 1,18,19
 280 1065 280 1065 478 1065 c 0,20,21
 592 1065 592 1065 678 1026.5 c 128,-1,22
 764 988 764 988 821 916 c 1,23,24
 896 988 896 988 997.5 1026.5 c 128,-1,25
 1099 1065 1099 1065 1228 1065 c 0,26,27
 1328 1065 1328 1065 1415.5 1029.5 c 128,-1,28
 1503 994 1503 994 1568 930.5 c 128,-1,29
 1633 867 1633 867 1670 778 c 128,-1,30
 1707 689 1707 689 1707 582 c 0,31,32
 1707 544 1707 544 1702.5 516 c 128,-1,33
 1698 488 1698 488 1695 476 c 1,34,35
 1669 469 1669 469 1628 463.5 c 128,-1,36
 1587 458 1587 458 1533 454 c 128,-1,37
 1479 450 1479 450 1414.5 448 c 128,-1,38
 1350 446 1350 446 1278 446 c 0,39,40
 1243 446 1243 446 1193 446 c 128,-1,41
 1143 446 1143 446 1091 446.5 c 128,-1,42
 1039 447 1039 447 990.5 447 c 128,-1,43
 942 447 942 447 909 447 c 1,44,45
 935 338 935 338 1031.5 279 c 128,-1,46
 1128 220 1128 220 1294 220 c 0,47,48
 1354 220 1354 220 1405 231.5 c 128,-1,49
 1456 243 1456 243 1496.5 259.5 c 128,-1,50
 1537 276 1537 276 1566 294.5 c 128,-1,51
 1595 313 1595 313 1611 326 c 1,52,53
 1609 277 1609 277 1605.5 214 c 128,-1,54
 1602 151 1602 151 1596 63 c 1,55,56
 1570 46 1570 46 1531 32 c 128,-1,57
 1492 18 1492 18 1446.5 7.5 c 128,-1,58
 1401 -3 1401 -3 1351.5 -9 c 128,-1,59
 1302 -15 1302 -15 1254 -15 c 0,60,61
 1126 -15 1126 -15 1023 14.5 c 128,-1,62
 920 44 920 44 842 104 c 1,63,64
 770 49 770 49 680.5 17 c 128,-1,65
 591 -15 591 -15 473 -15 c 0,66,67
 380 -15 380 -15 306 11.5 c 128,-1,68
 232 38 232 38 181 84.5 c 128,-1,69
 130 131 130 131 102.5 194.5 c 128,-1,70
 75 258 75 258 75 332 c 0,0,1
928 666 m 1,71,72
 955 665 955 665 991.5 664.5 c 128,-1,73
 1028 664 1028 664 1065 663.5 c 128,-1,74
 1102 663 1102 663 1135.5 663 c 128,-1,75
 1169 663 1169 663 1190 663 c 0,76,77
 1214 663 1214 663 1248.5 663.5 c 128,-1,78
 1283 664 1283 664 1320.5 664.5 c 128,-1,79
 1358 665 1358 665 1394 666.5 c 128,-1,80
 1430 668 1430 668 1458 670 c 1,81,82
 1447 707 1447 707 1423 737.5 c 128,-1,83
 1399 768 1399 768 1364.5 789.5 c 128,-1,84
 1330 811 1330 811 1287.5 823 c 128,-1,85
 1245 835 1245 835 1197 835 c 0,86,87
 1152 835 1152 835 1111.5 823 c 128,-1,88
 1071 811 1071 811 1036 789.5 c 128,-1,89
 1001 768 1001 768 973.5 736.5 c 128,-1,90
 946 705 946 705 928 666 c 1,71,72
320 356 m 0,91,92
 320 284 320 284 368.5 241.5 c 128,-1,93
 417 199 417 199 508 199 c 0,94,95
 565 199 565 199 617.5 216.5 c 128,-1,96
 670 234 670 234 715 271 c 1,97,98
 686 320 686 320 671.5 378.5 c 128,-1,99
 657 437 657 437 657 512 c 1,100,101
 637 515 637 515 609 515 c 0,102,103
 541 515 541 515 487.5 503 c 128,-1,104
 434 491 434 491 396.5 469.5 c 128,-1,105
 359 448 359 448 339.5 419 c 128,-1,106
 320 390 320 390 320 356 c 0,91,92
EndSplineSet
EndChar

StartChar: dotlessi
Encoding: 305 305 135
Width: 569
Flags: W
LayerCount: 2
Fore
SplineSet
160 1045 m 1,0,-1
 405 1045 l 1,1,-1
 405 112 l 2,2,3
 405 61 405 61 406 37 c 128,-1,4
 407 13 407 13 409 0 c 1,5,-1
 160 0 l 1,6,-1
 160 1045 l 1,0,-1
EndSplineSet
EndChar

StartChar: oe
Encoding: 339 339 136
Width: 2067
Flags: W
LayerCount: 2
Fore
SplineSet
80 512 m 0,0,1
 80 629 80 629 120 730 c 128,-1,2
 160 831 160 831 234.5 905.5 c 128,-1,3
 309 980 309 980 415.5 1022.5 c 128,-1,4
 522 1065 522 1065 655 1065 c 0,5,6
 795 1065 795 1065 900 1015 c 128,-1,7
 1005 965 1005 965 1074 877 c 1,8,9
 1149 965 1149 965 1258 1015 c 128,-1,10
 1367 1065 1367 1065 1508 1065 c 0,11,12
 1613 1065 1613 1065 1702.5 1031.5 c 128,-1,13
 1792 998 1792 998 1857.5 935 c 128,-1,14
 1923 872 1923 872 1960 782.5 c 128,-1,15
 1997 693 1997 693 1997 582 c 0,16,17
 1997 544 1997 544 1992.5 516 c 128,-1,18
 1988 488 1988 488 1985 476 c 1,19,20
 1954 468 1954 468 1901 462 c 128,-1,21
 1848 456 1848 456 1778.5 452.5 c 128,-1,22
 1709 449 1709 449 1626 447.5 c 128,-1,23
 1543 446 1543 446 1451 446 c 0,24,25
 1410 446 1410 446 1374 446 c 128,-1,26
 1338 446 1338 446 1306 448 c 1,27,-1
 1306 670 l 1,28,29
 1335 665 1335 665 1380.5 664 c 128,-1,30
 1426 663 1426 663 1480 663 c 0,31,32
 1504 663 1504 663 1538.5 663.5 c 128,-1,33
 1573 664 1573 664 1610.5 664.5 c 128,-1,34
 1648 665 1648 665 1684 666.5 c 128,-1,35
 1720 668 1720 668 1748 670 c 1,36,37
 1736 707 1736 707 1710 737.5 c 128,-1,38
 1684 768 1684 768 1648 789.5 c 128,-1,39
 1612 811 1612 811 1568.5 823 c 128,-1,40
 1525 835 1525 835 1477 835 c 0,41,42
 1418 835 1418 835 1367.5 815 c 128,-1,43
 1317 795 1317 795 1279 758 c 128,-1,44
 1241 721 1241 721 1218 670 c 128,-1,45
 1195 619 1195 619 1191 556 c 0,46,47
 1191 547 1191 547 1191.5 538 c 128,-1,48
 1192 529 1192 529 1192 520 c 0,49,50
 1192 514 1192 514 1192 508.5 c 128,-1,51
 1192 503 1192 503 1191 498 c 1,52,53
 1197 433 1197 433 1228 381.5 c 128,-1,54
 1259 330 1259 330 1310 294 c 128,-1,55
 1361 258 1361 258 1430.5 239 c 128,-1,56
 1500 220 1500 220 1584 220 c 0,57,58
 1644 220 1644 220 1695 231.5 c 128,-1,59
 1746 243 1746 243 1786.5 259.5 c 128,-1,60
 1827 276 1827 276 1856 294.5 c 128,-1,61
 1885 313 1885 313 1901 326 c 1,62,63
 1899 277 1899 277 1895.5 214 c 128,-1,64
 1892 151 1892 151 1886 63 c 1,65,66
 1860 46 1860 46 1821 32 c 128,-1,67
 1782 18 1782 18 1736.5 7.5 c 128,-1,68
 1691 -3 1691 -3 1641.5 -9 c 128,-1,69
 1592 -15 1592 -15 1544 -15 c 0,70,71
 1393 -15 1393 -15 1270.5 34 c 128,-1,72
 1148 83 1148 83 1067 177 c 1,73,74
 989 86 989 86 878 35.5 c 128,-1,75
 767 -15 767 -15 632 -15 c 0,76,77
 491 -15 491 -15 387 31.5 c 128,-1,78
 283 78 283 78 214.5 153 c 128,-1,79
 146 228 146 228 113 322.5 c 128,-1,80
 80 417 80 417 80 512 c 0,0,1
324 529 m 0,81,82
 324 466 324 466 348.5 409.5 c 128,-1,83
 373 353 373 353 415 310.5 c 128,-1,84
 457 268 457 268 514 243.5 c 128,-1,85
 571 219 571 219 636 219 c 0,86,87
 699 219 699 219 755.5 239 c 128,-1,88
 812 259 812 259 854.5 297.5 c 128,-1,89
 897 336 897 336 922 391 c 128,-1,90
 947 446 947 446 947 516 c 0,91,92
 947 583 947 583 924.5 641.5 c 128,-1,93
 902 700 902 700 861.5 743 c 128,-1,94
 821 786 821 786 764 810.5 c 128,-1,95
 707 835 707 835 639 835 c 0,96,97
 564 835 564 835 505.5 808.5 c 128,-1,98
 447 782 447 782 406.5 739 c 128,-1,99
 366 696 366 696 345 641 c 128,-1,100
 324 586 324 586 324 529 c 0,81,82
EndSplineSet
EndChar

StartChar: germandbls
Encoding: 223 223 137
Width: 1214
Flags: W
LayerCount: 2
Fore
SplineSet
70 -271 m 1,0,1
 94 -255 94 -255 108 -221 c 128,-1,2
 122 -187 122 -187 128.5 -125 c 128,-1,3
 135 -63 135 -63 137 33.5 c 128,-1,4
 139 130 139 130 139 271 c 2,5,-1
 139 771 l 2,6,7
 139 1109 139 1109 255.5 1277 c 128,-1,8
 372 1445 372 1445 594 1445 c 0,9,10
 666 1445 666 1445 727.5 1423.5 c 128,-1,11
 789 1402 789 1402 834.5 1364 c 128,-1,12
 880 1326 880 1326 906 1274 c 128,-1,13
 932 1222 932 1222 932 1162 c 0,14,15
 932 1136 932 1136 927.5 1111.5 c 128,-1,16
 923 1087 923 1087 910.5 1061 c 128,-1,17
 898 1035 898 1035 876 1006 c 128,-1,18
 854 977 854 977 820 942 c 0,19,20
 802 924 802 924 791 911 c 128,-1,21
 780 898 780 898 774 887.5 c 128,-1,22
 768 877 768 877 765.5 868 c 128,-1,23
 763 859 763 859 763 848 c 256,24,25
 763 837 763 837 767 824 c 128,-1,26
 771 811 771 811 786.5 792 c 128,-1,27
 802 773 802 773 833.5 747.5 c 128,-1,28
 865 722 865 722 920 687 c 0,29,30
 985 645 985 645 1031.5 605.5 c 128,-1,31
 1078 566 1078 566 1107.5 523 c 128,-1,32
 1137 480 1137 480 1150.5 431 c 128,-1,33
 1164 382 1164 382 1164 321 c 0,34,35
 1164 265 1164 265 1140 205.5 c 128,-1,36
 1116 146 1116 146 1068 97 c 128,-1,37
 1020 48 1020 48 947 16.5 c 128,-1,38
 874 -15 874 -15 777 -15 c 0,39,40
 739 -15 739 -15 702.5 -11 c 128,-1,41
 666 -7 666 -7 633.5 0.5 c 128,-1,42
 601 8 601 8 574 18 c 128,-1,43
 547 28 547 28 529 40 c 1,44,-1
 499 307 l 1,45,-1
 503 312 l 1,46,47
 554 263 554 263 620.5 238 c 128,-1,48
 687 213 687 213 756 213 c 0,49,50
 917 213 917 213 917 329 c 0,51,52
 917 349 917 349 909 367.5 c 128,-1,53
 901 386 901 386 880 407.5 c 128,-1,54
 859 429 859 429 822 455 c 128,-1,55
 785 481 785 481 727 516 c 0,56,57
 614 584 614 584 566.5 654 c 128,-1,58
 519 724 519 724 519 798 c 0,59,60
 519 826 519 826 524 851.5 c 128,-1,61
 529 877 529 877 540 901 c 128,-1,62
 551 925 551 925 568 949.5 c 128,-1,63
 585 974 585 974 609 1000 c 256,64,65
 633 1026 633 1026 648 1045 c 128,-1,66
 663 1064 663 1064 671 1078.5 c 128,-1,67
 679 1093 679 1093 682 1105.5 c 128,-1,68
 685 1118 685 1118 685 1132 c 0,69,70
 685 1148 685 1148 677 1163 c 128,-1,71
 669 1178 669 1178 654 1190 c 128,-1,72
 639 1202 639 1202 617 1209 c 128,-1,73
 595 1216 595 1216 568 1216 c 0,74,75
 523 1216 523 1216 488.5 1195.5 c 128,-1,76
 454 1175 454 1175 430.5 1127 c 128,-1,77
 407 1079 407 1079 395.5 1001.5 c 128,-1,78
 384 924 384 924 384 810 c 2,79,-1
 384 -45 l 2,80,81
 384 -123 384 -123 376.5 -182 c 128,-1,82
 369 -241 369 -241 354.5 -284.5 c 128,-1,83
 340 -328 340 -328 319 -357.5 c 128,-1,84
 298 -387 298 -387 271 -407 c 1,85,-1
 70 -276 l 1,86,-1
 70 -271 l 1,0,1
EndSplineSet
EndChar

StartChar: AE
Encoding: 198 198 138
Width: 1707
Flags: W
LayerCount: 2
Fore
SplineSet
702 1219 m 2,0,1
 719 1248 719 1248 735.5 1274 c 128,-1,2
 752 1300 752 1300 752 1323 c 1,3,4
 752 1323 752 1323 750 1331 c 1,5,-1
 751 1333 l 1,6,7
 794 1331 794 1331 827 1330.5 c 128,-1,8
 860 1330 860 1330 889 1330 c 2,9,-1
 1098 1330 l 2,10,11
 1158 1330 1158 1330 1216.5 1330 c 128,-1,12
 1275 1330 1275 1330 1336 1331 c 128,-1,13
 1397 1332 1397 1332 1462.5 1333.5 c 128,-1,14
 1528 1335 1528 1335 1603 1338 c 1,15,16
 1600 1314 1600 1314 1598 1280 c 128,-1,17
 1596 1246 1596 1246 1594.5 1212 c 128,-1,18
 1593 1178 1593 1178 1592.5 1148.5 c 128,-1,19
 1592 1119 1592 1119 1592 1103 c 0,20,21
 1592 1089 1592 1089 1594 1079 c 1,22,-1
 1592 1076 l 1,23,24
 1578 1080 1578 1080 1565 1083 c 128,-1,25
 1552 1086 1552 1086 1535.5 1087.5 c 128,-1,26
 1519 1089 1519 1089 1497 1090 c 128,-1,27
 1475 1091 1475 1091 1444 1091 c 2,28,-1
 1113 1091 l 1,29,-1
 1113 836 l 1,30,-1
 1375 836 l 2,31,32
 1432 836 1432 836 1462 837 c 128,-1,33
 1492 838 1492 838 1507 842 c 1,34,-1
 1510 595 l 1,35,36
 1481 598 1481 598 1449.5 599 c 128,-1,37
 1418 600 1418 600 1386 600 c 2,38,-1
 1113 600 l 1,39,-1
 1113 240 l 1,40,-1
 1537 240 l 2,41,42
 1576 240 1576 240 1594.5 243.5 c 128,-1,43
 1613 247 1613 247 1623 252 c 1,44,-1
 1627 251 l 1,45,-1
 1627 0 l 1,46,-1
 858 0 l 1,47,-1
 858 288 l 1,48,-1
 453 288 l 1,49,-1
 294 -8 l 1,50,51
 267 -6 267 -6 237.5 -4.5 c 128,-1,52
 208 -3 208 -3 179.5 -2 c 128,-1,53
 151 -1 151 -1 125 -0.5 c 128,-1,54
 99 0 99 0 79 0 c 2,55,-1
 0 0 l 1,56,-1
 702 1219 l 2,0,1
862 528 m 1,57,-1
 862 1057 l 1,58,-1
 582 528 l 1,59,-1
 862 528 l 1,57,-1
EndSplineSet
EndChar

StartChar: OE
Encoding: 338 338 139
Width: 2058
Flags: W
LayerCount: 2
Fore
SplineSet
100 637 m 0,0,1
 100 780 100 780 149.5 910 c 128,-1,2
 199 1040 199 1040 290.5 1139 c 128,-1,3
 382 1238 382 1238 511 1296.5 c 128,-1,4
 640 1355 640 1355 800 1355 c 0,5,6
 920 1355 920 1355 1022.5 1317 c 128,-1,7
 1125 1279 1125 1279 1209 1209 c 1,8,-1
 1209 1337 l 1,9,10
 1236 1335 1236 1335 1268.5 1333.5 c 128,-1,11
 1301 1332 1301 1332 1335.5 1331.5 c 128,-1,12
 1370 1331 1370 1331 1404.5 1330.5 c 128,-1,13
 1439 1330 1439 1330 1471 1330 c 0,14,15
 1567 1330 1567 1330 1690 1331.5 c 128,-1,16
 1813 1333 1813 1333 1954 1338 c 1,17,18
 1951 1314 1951 1314 1949 1280 c 128,-1,19
 1947 1246 1947 1246 1945.5 1212 c 128,-1,20
 1944 1178 1944 1178 1943.5 1148.5 c 128,-1,21
 1943 1119 1943 1119 1943 1103 c 0,22,23
 1943 1089 1943 1089 1945 1079 c 1,24,-1
 1943 1076 l 1,25,26
 1929 1080 1929 1080 1916 1083 c 128,-1,27
 1903 1086 1903 1086 1886.5 1087.5 c 128,-1,28
 1870 1089 1870 1089 1848 1090 c 128,-1,29
 1826 1091 1826 1091 1795 1091 c 2,30,-1
 1464 1091 l 1,31,-1
 1464 836 l 1,32,-1
 1756 836 l 2,33,34
 1813 836 1813 836 1843 837 c 128,-1,35
 1873 838 1873 838 1888 842 c 1,36,-1
 1891 595 l 1,37,38
 1862 598 1862 598 1830.5 599 c 128,-1,39
 1799 600 1799 600 1767 600 c 2,40,-1
 1464 600 l 1,41,-1
 1464 240 l 1,42,-1
 1888 240 l 2,43,44
 1927 240 1927 240 1945.5 243.5 c 128,-1,45
 1964 247 1964 247 1974 252 c 1,46,-1
 1978 251 l 1,47,-1
 1978 0 l 1,48,-1
 1209 0 l 1,49,-1
 1209 143 l 1,50,51
 1119 64 1119 64 1009.5 19.5 c 128,-1,52
 900 -25 900 -25 773 -25 c 0,53,54
 632 -25 632 -25 509.5 23 c 128,-1,55
 387 71 387 71 296 158 c 128,-1,56
 205 245 205 245 152.5 367 c 128,-1,57
 100 489 100 489 100 637 c 0,0,1
358 648 m 0,58,59
 358 555 358 555 392.5 475.5 c 128,-1,60
 427 396 427 396 486 338 c 128,-1,61
 545 280 545 280 625 247.5 c 128,-1,62
 705 215 705 215 796 215 c 0,63,64
 881 215 881 215 956 246 c 128,-1,65
 1031 277 1031 277 1087 334.5 c 128,-1,66
 1143 392 1143 392 1176 473.5 c 128,-1,67
 1209 555 1209 555 1209 657 c 0,68,69
 1209 755 1209 755 1176 838 c 128,-1,70
 1143 921 1143 921 1085.5 981.5 c 128,-1,71
 1028 1042 1028 1042 949.5 1076 c 128,-1,72
 871 1110 871 1110 780 1110 c 0,73,74
 682 1110 682 1110 604 1072.5 c 128,-1,75
 526 1035 526 1035 471 971.5 c 128,-1,76
 416 908 416 908 387 824 c 128,-1,77
 358 740 358 740 358 648 c 0,58,59
EndSplineSet
EndChar

StartChar: dieresis
Encoding: 168 168 140
Width: 825
Flags: W
LayerCount: 2
Fore
SplineSet
500 1190 m 1,0,1
 504 1221 504 1221 506 1252.5 c 128,-1,2
 508 1284 508 1284 508 1316 c 0,3,4
 508 1345 508 1345 506 1378 c 128,-1,5
 504 1411 504 1411 502 1430 c 1,6,-1
 765 1430 l 1,7,8
 763 1405 763 1405 762 1368.5 c 128,-1,9
 761 1332 761 1332 761 1304 c 0,10,11
 761 1272 761 1272 761.5 1244 c 128,-1,12
 762 1216 762 1216 765 1190 c 1,13,-1
 500 1190 l 1,0,1
70 1190 m 1,14,15
 74 1221 74 1221 76 1252.5 c 128,-1,16
 78 1284 78 1284 78 1316 c 0,17,18
 78 1345 78 1345 76 1378 c 128,-1,19
 74 1411 74 1411 72 1430 c 1,20,-1
 335 1430 l 1,21,22
 333 1405 333 1405 332 1368.5 c 128,-1,23
 331 1332 331 1332 331 1304 c 0,24,25
 331 1272 331 1272 331.5 1244 c 128,-1,26
 332 1216 332 1216 335 1190 c 1,27,-1
 70 1190 l 1,14,15
EndSplineSet
EndChar

StartChar: asciitilde
Encoding: 126 126 141
Width: 1408
Flags: W
LayerCount: 2
Fore
SplineSet
88 396 m 1,0,-1
 80 672 l 1,1,2
 116 714 116 714 157.5 741.5 c 128,-1,3
 199 769 199 769 243.5 785 c 128,-1,4
 288 801 288 801 334.5 807.5 c 128,-1,5
 381 814 381 814 427 814 c 0,6,7
 480 814 480 814 533.5 794 c 128,-1,8
 587 774 587 774 640.5 744 c 128,-1,9
 694 714 694 714 746 678.5 c 128,-1,10
 798 643 798 643 848.5 613 c 128,-1,11
 899 583 899 583 947 563 c 128,-1,12
 995 543 995 543 1039 543 c 0,13,14
 1139 543 1139 543 1211.5 590.5 c 128,-1,15
 1284 638 1284 638 1322 748 c 1,16,-1
 1328 745 l 1,17,-1
 1347 472 l 1,18,19
 1323 428 1323 428 1284.5 397.5 c 128,-1,20
 1246 367 1246 367 1200 348 c 128,-1,21
 1154 329 1154 329 1104.5 321 c 128,-1,22
 1055 313 1055 313 1009 313 c 0,23,24
 947 313 947 313 892.5 332.5 c 128,-1,25
 838 352 838 352 788 381.5 c 128,-1,26
 738 411 738 411 690.5 445.5 c 128,-1,27
 643 480 643 480 596 509.5 c 128,-1,28
 549 539 549 539 500.5 558.5 c 128,-1,29
 452 578 452 578 399 578 c 0,30,31
 349 578 349 578 307 569 c 128,-1,32
 265 560 265 560 228 538.5 c 128,-1,33
 191 517 191 517 158 481.5 c 128,-1,34
 125 446 125 446 94 393 c 1,35,-1
 88 396 l 1,0,-1
EndSplineSet
EndChar

StartChar: thorn
Encoding: 254 254 142
Width: 1183
Flags: W
LayerCount: 2
Fore
SplineSet
385 -273 m 2,0,1
 385 -324 385 -324 386 -348 c 128,-1,2
 387 -372 387 -372 389 -385 c 1,3,-1
 140 -385 l 1,4,-1
 140 1430 l 1,5,-1
 389 1430 l 1,6,7
 387 1417 387 1417 386 1393 c 128,-1,8
 385 1369 385 1369 385 1318 c 2,9,-1
 385 1005 l 1,10,11
 443 1036 443 1036 503 1050.5 c 128,-1,12
 563 1065 563 1065 624 1065 c 0,13,14
 718 1065 718 1065 804.5 1033 c 128,-1,15
 891 1001 891 1001 957.5 935.5 c 128,-1,16
 1024 870 1024 870 1063.5 770.5 c 128,-1,17
 1103 671 1103 671 1103 536 c 0,18,19
 1103 446 1103 446 1080 369.5 c 128,-1,20
 1057 293 1057 293 1018 231.5 c 128,-1,21
 979 170 979 170 928 123.5 c 128,-1,22
 877 77 877 77 820 45.5 c 128,-1,23
 763 14 763 14 704.5 -2 c 128,-1,24
 646 -18 646 -18 593 -18 c 0,25,26
 520 -18 520 -18 471.5 -8 c 128,-1,27
 423 2 423 2 385 19 c 1,28,-1
 385 -273 l 2,0,1
385 293 m 1,29,30
 427 255 427 255 475.5 237.5 c 128,-1,31
 524 220 524 220 572 220 c 0,32,33
 633 220 633 220 685.5 242.5 c 128,-1,34
 738 265 738 265 776 307.5 c 128,-1,35
 814 350 814 350 836 411.5 c 128,-1,36
 858 473 858 473 858 552 c 0,37,38
 858 611 858 611 844 655 c 128,-1,39
 830 699 830 699 807.5 730.5 c 128,-1,40
 785 762 785 762 757 782 c 128,-1,41
 729 802 729 802 700 814 c 128,-1,42
 671 826 671 826 644 830.5 c 128,-1,43
 617 835 617 835 598 835 c 0,44,45
 541 835 541 835 483 811.5 c 128,-1,46
 425 788 425 788 385 746 c 1,47,-1
 385 293 l 1,29,30
EndSplineSet
EndChar

StartChar: eth
Encoding: 240 240 143
Width: 1112
Flags: W
LayerCount: 2
Fore
SplineSet
67 443 m 0,0,1
 67 562 67 562 106.5 647.5 c 128,-1,2
 146 733 146 733 211 788 c 128,-1,3
 276 843 276 843 360.5 869 c 128,-1,4
 445 895 445 895 535 895 c 0,5,6
 570 895 570 895 608 888 c 128,-1,7
 646 881 646 881 684 867 c 1,8,9
 625 973 625 973 537 1076 c 1,10,-1
 232 961 l 1,11,-1
 175 1143 l 1,12,-1
 396 1223 l 1,13,14
 342 1275 342 1275 280.5 1325.5 c 128,-1,15
 219 1376 219 1376 147 1430 c 1,16,-1
 467 1430 l 1,17,18
 509 1401 509 1401 548 1369.5 c 128,-1,19
 587 1338 587 1338 624 1306 c 1,20,-1
 863 1393 l 1,21,-1
 919 1220 l 1,22,-1
 764 1161 l 1,23,24
 895 1005 895 1005 963.5 837 c 128,-1,25
 1032 669 1032 669 1032 504 c 0,26,27
 1032 388 1032 388 992.5 292.5 c 128,-1,28
 953 197 953 197 885.5 128.5 c 128,-1,29
 818 60 818 60 729 22.5 c 128,-1,30
 640 -15 640 -15 541 -15 c 0,31,32
 437 -15 437 -15 350 21.5 c 128,-1,33
 263 58 263 58 200 121 c 128,-1,34
 137 184 137 184 102 267 c 128,-1,35
 67 350 67 350 67 443 c 0,0,1
325 465 m 0,36,37
 325 417 325 417 342 372.5 c 128,-1,38
 359 328 359 328 390 294 c 128,-1,39
 421 260 421 260 465.5 240 c 128,-1,40
 510 220 510 220 564 220 c 0,41,42
 605 220 605 220 645.5 235.5 c 128,-1,43
 686 251 686 251 717.5 284.5 c 128,-1,44
 749 318 749 318 768.5 370 c 128,-1,45
 788 422 788 422 788 496 c 0,46,47
 788 501 788 501 787.5 504.5 c 128,-1,48
 787 508 787 508 787 513 c 1,49,50
 767 555 767 555 743 584 c 128,-1,51
 719 613 719 613 689 631 c 128,-1,52
 659 649 659 649 622.5 657 c 128,-1,53
 586 665 586 665 542 665 c 256,54,55
 498 665 498 665 459 652.5 c 128,-1,56
 420 640 420 640 390 615.5 c 128,-1,57
 360 591 360 591 342.5 553.5 c 128,-1,58
 325 516 325 516 325 465 c 0,36,37
EndSplineSet
EndChar

StartChar: Thorn
Encoding: 222 222 144
Width: 1140
Flags: W
LayerCount: 2
Fore
SplineSet
160 1330 m 1,0,-1
 415 1330 l 1,1,-1
 415 1134 l 1,2,3
 568 1134 568 1134 685 1099.5 c 128,-1,4
 802 1065 802 1065 880.5 1002.5 c 128,-1,5
 959 940 959 940 999.5 853 c 128,-1,6
 1040 766 1040 766 1040 662 c 0,7,8
 1040 548 1040 548 1001 460 c 128,-1,9
 962 372 962 372 888 312.5 c 128,-1,10
 814 253 814 253 706.5 222 c 128,-1,11
 599 191 599 191 462 191 c 0,12,13
 439 191 439 191 415 194 c 1,14,-1
 415 0 l 1,15,-1
 160 0 l 1,16,-1
 160 1330 l 1,0,-1
415 422 m 1,17,18
 423 420 423 420 431 420 c 128,-1,19
 439 420 439 420 447 420 c 0,20,21
 602 420 602 420 688 474 c 128,-1,22
 774 528 774 528 774 641 c 0,23,24
 774 696 774 696 753.5 744 c 128,-1,25
 733 792 733 792 693.5 827 c 128,-1,26
 654 862 654 862 596.5 882.5 c 128,-1,27
 539 903 539 903 465 903 c 0,28,29
 451 903 451 903 439 902.5 c 128,-1,30
 427 902 427 902 415 901 c 1,31,-1
 415 422 l 1,17,18
EndSplineSet
EndChar

StartChar: Eth
Encoding: 208 208 145
Width: 1329
Flags: W
LayerCount: 2
Fore
SplineSet
209 548 m 1,0,-1
 70 548 l 1,1,-1
 70 784 l 1,2,-1
 209 784 l 1,3,-1
 209 1339 l 1,4,5
 276 1347 276 1347 343 1351 c 128,-1,6
 410 1355 410 1355 473 1355 c 0,7,8
 659 1355 659 1355 802 1305 c 128,-1,9
 945 1255 945 1255 1042 1165 c 128,-1,10
 1139 1075 1139 1075 1189 951 c 128,-1,11
 1239 827 1239 827 1239 679 c 0,12,13
 1239 507 1239 507 1180.5 375.5 c 128,-1,14
 1122 244 1122 244 1020.5 155 c 128,-1,15
 919 66 919 66 782.5 20.5 c 128,-1,16
 646 -25 646 -25 491 -25 c 0,17,18
 460 -25 460 -25 424.5 -23 c 128,-1,19
 389 -21 389 -21 352 -18 c 128,-1,20
 315 -15 315 -15 278.5 -10 c 128,-1,21
 242 -5 242 -5 209 1 c 1,22,-1
 209 548 l 1,0,-1
464 221 m 1,23,24
 509 215 509 215 557 215 c 0,25,26
 643 215 643 215 720.5 241 c 128,-1,27
 798 267 798 267 856 319 c 128,-1,28
 914 371 914 371 948 448.5 c 128,-1,29
 982 526 982 526 982 628 c 0,30,31
 982 740 982 740 948.5 830 c 128,-1,32
 915 920 915 920 852 983.5 c 128,-1,33
 789 1047 789 1047 699 1081 c 128,-1,34
 609 1115 609 1115 496 1115 c 0,35,36
 488 1115 488 1115 480 1115 c 128,-1,37
 472 1115 472 1115 464 1114 c 1,38,-1
 464 784 l 1,39,-1
 729 784 l 1,40,-1
 729 548 l 1,41,-1
 464 548 l 1,42,-1
 464 221 l 1,23,24
EndSplineSet
EndChar

StartChar: kgreenlandic
Encoding: 312 312 146
Width: 1141
Flags: W
LayerCount: 2
Fore
SplineSet
160 1045 m 1,0,-1
 405 1045 l 1,1,-1
 405 539 l 1,2,-1
 737 1045 l 1,3,-1
 1009 1045 l 1,4,-1
 745 661 l 1,5,-1
 991 218 l 2,6,7
 1032 143 1032 143 1066.5 92.5 c 128,-1,8
 1101 42 1101 42 1141 0 c 1,9,-1
 993 0 l 2,10,11
 962 0 962 0 940 -1 c 128,-1,12
 918 -2 918 -2 902 -4.5 c 128,-1,13
 886 -7 886 -7 874 -9.5 c 128,-1,14
 862 -12 862 -12 852 -15 c 1,15,-1
 589 449 l 1,16,-1
 531 373 l 2,17,18
 499 331 499 331 465 292 c 128,-1,19
 431 253 431 253 405 227 c 1,20,-1
 405 132 l 2,21,22
 405 81 405 81 407.5 47 c 128,-1,23
 410 13 410 13 412 0 c 1,24,-1
 160 0 l 1,25,-1
 160 1045 l 1,0,-1
EndSplineSet
EndChar

StartChar: acute
Encoding: 180 180 147
Width: 759
Flags: W
LayerCount: 2
Fore
SplineSet
269 1503 m 1,0,1
 325 1503 325 1503 367 1504 c 128,-1,2
 409 1505 409 1505 445 1507.5 c 128,-1,3
 481 1510 481 1510 515 1513 c 128,-1,4
 549 1516 549 1516 589 1520 c 1,5,-1
 588 1513 l 1,6,-1
 326 1190 l 1,7,-1
 100 1190 l 1,8,-1
 269 1503 l 1,0,1
EndSplineSet
EndChar

StartChar: aacute
Encoding: 225 225 148
Width: 1084
Flags: W
LayerCount: 2
Fore
SplineSet
542 1503 m 1,0,1
 598 1503 598 1503 640 1504 c 128,-1,2
 682 1505 682 1505 718 1507.5 c 128,-1,3
 754 1510 754 1510 788 1513 c 128,-1,4
 822 1516 822 1516 862 1520 c 1,5,-1
 861 1513 l 1,6,-1
 599 1190 l 1,7,-1
 373 1190 l 1,8,-1
 542 1503 l 1,0,1
75 332 m 0,9,10
 75 397 75 397 106.5 458.5 c 128,-1,11
 138 520 138 520 203 567.5 c 128,-1,12
 268 615 268 615 368.5 644 c 128,-1,13
 469 673 469 673 606 673 c 0,14,15
 615 673 615 673 624.5 672.5 c 128,-1,16
 634 672 634 672 644 672 c 2,17,-1
 696 668 l 1,18,19
 692 718 692 718 678 751 c 128,-1,20
 664 784 664 784 637.5 804 c 128,-1,21
 611 824 611 824 572.5 832 c 128,-1,22
 534 840 534 840 480 840 c 0,23,24
 440 840 440 840 394.5 832 c 128,-1,25
 349 824 349 824 306 810 c 128,-1,26
 263 796 263 796 227 778 c 128,-1,27
 191 760 191 760 170 740 c 1,28,-1
 167 742 l 1,29,-1
 137 972 l 1,30,31
 213 1014 213 1014 312.5 1039.5 c 128,-1,32
 412 1065 412 1065 518 1065 c 0,33,34
 626 1065 626 1065 706.5 1037.5 c 128,-1,35
 787 1010 787 1010 839.5 957.5 c 128,-1,36
 892 905 892 905 918 830 c 128,-1,37
 944 755 944 755 944 661 c 2,38,-1
 944 299 l 2,39,40
 944 236 944 236 964 199 c 128,-1,41
 984 162 984 162 1026 141 c 1,42,-1
 845 -25 l 1,43,44
 798 -1 798 -1 767 42 c 1,45,46
 707 13 707 13 640.5 -1 c 128,-1,47
 574 -15 574 -15 505 -15 c 0,48,49
 404 -15 404 -15 324.5 9 c 128,-1,50
 245 33 245 33 189.5 77.5 c 128,-1,51
 134 122 134 122 104.5 186.5 c 128,-1,52
 75 251 75 251 75 332 c 0,9,10
320 339 m 0,53,54
 320 276 320 276 378 236 c 128,-1,55
 436 196 436 196 548 196 c 0,56,57
 629 196 629 196 702 228 c 1,58,59
 699 258 699 258 699 290 c 2,60,-1
 699 473 l 1,61,62
 681 477 681 477 653.5 477.5 c 128,-1,63
 626 478 626 478 603 478 c 0,64,65
 526 478 526 478 472 465.5 c 128,-1,66
 418 453 418 453 384 432.5 c 128,-1,67
 350 412 350 412 335 387.5 c 128,-1,68
 320 363 320 363 320 339 c 0,53,54
EndSplineSet
EndChar

StartChar: grave
Encoding: 96 96 149
Width: 759
Flags: W
LayerCount: 2
Fore
SplineSet
171 1513 m 1,0,-1
 170 1520 l 1,1,2
 210 1516 210 1516 244 1513 c 128,-1,3
 278 1510 278 1510 314 1507.5 c 128,-1,4
 350 1505 350 1505 392 1504 c 128,-1,5
 434 1503 434 1503 490 1503 c 1,6,-1
 659 1190 l 1,7,-1
 433 1190 l 1,8,-1
 171 1513 l 1,0,-1
EndSplineSet
EndChar

StartChar: tilde
Encoding: 732 732 150
Width: 847
Flags: W
LayerCount: 2
Fore
SplineSet
98 1206 m 1,0,-1
 94 1405 l 1,1,2
 121 1437 121 1437 165.5 1461 c 128,-1,3
 210 1485 210 1485 279 1485 c 0,4,5
 320 1485 320 1485 350 1477 c 128,-1,6
 380 1469 380 1469 404.5 1457 c 128,-1,7
 429 1445 429 1445 450 1430.5 c 128,-1,8
 471 1416 471 1416 494.5 1404 c 128,-1,9
 518 1392 518 1392 546.5 1384 c 128,-1,10
 575 1376 575 1376 613 1376 c 0,11,12
 670 1376 670 1376 709.5 1395.5 c 128,-1,13
 749 1415 749 1415 769 1460 c 1,14,-1
 771 1458 l 1,15,-1
 761 1242 l 1,16,17
 744 1212 744 1212 700 1192.5 c 128,-1,18
 656 1173 656 1173 599 1173 c 0,19,20
 560 1173 560 1173 530.5 1181 c 128,-1,21
 501 1189 501 1189 476 1201 c 128,-1,22
 451 1213 451 1213 429.5 1226.5 c 128,-1,23
 408 1240 408 1240 384 1252 c 128,-1,24
 360 1264 360 1264 332.5 1272 c 128,-1,25
 305 1280 305 1280 269 1280 c 0,26,27
 210 1280 210 1280 171.5 1258.5 c 128,-1,28
 133 1237 133 1237 102 1205 c 1,29,-1
 98 1206 l 1,0,-1
EndSplineSet
EndChar

StartChar: ntilde
Encoding: 241 241 151
Width: 1152
Flags: W
LayerCount: 2
Fore
SplineSet
238 1223 m 1,0,-1
 234 1422 l 1,1,2
 261 1454 261 1454 305.5 1478 c 128,-1,3
 350 1502 350 1502 419 1502 c 0,4,5
 460 1502 460 1502 490 1494 c 128,-1,6
 520 1486 520 1486 544.5 1474 c 128,-1,7
 569 1462 569 1462 590 1447.5 c 128,-1,8
 611 1433 611 1433 634.5 1421 c 128,-1,9
 658 1409 658 1409 686.5 1401 c 128,-1,10
 715 1393 715 1393 753 1393 c 0,11,12
 810 1393 810 1393 849.5 1412.5 c 128,-1,13
 889 1432 889 1432 909 1477 c 1,14,-1
 911 1475 l 1,15,-1
 901 1259 l 1,16,17
 884 1229 884 1229 840 1209.5 c 128,-1,18
 796 1190 796 1190 739 1190 c 0,19,20
 700 1190 700 1190 670.5 1198 c 128,-1,21
 641 1206 641 1206 616 1218 c 128,-1,22
 591 1230 591 1230 569.5 1243.5 c 128,-1,23
 548 1257 548 1257 524 1269 c 128,-1,24
 500 1281 500 1281 472.5 1289 c 128,-1,25
 445 1297 445 1297 409 1297 c 0,26,27
 350 1297 350 1297 311.5 1275.5 c 128,-1,28
 273 1254 273 1254 242 1222 c 1,29,-1
 238 1223 l 1,0,-1
140 1045 m 1,30,-1
 385 1045 l 1,31,-1
 385 956 l 1,32,33
 454 1013 454 1013 523 1039 c 128,-1,34
 592 1065 592 1065 667 1065 c 0,35,36
 749 1065 749 1065 815.5 1036 c 128,-1,37
 882 1007 882 1007 929 953.5 c 128,-1,38
 976 900 976 900 1001.5 825.5 c 128,-1,39
 1027 751 1027 751 1027 660 c 2,40,-1
 1027 415 l 2,41,42
 1027 325 1027 325 1027 262.5 c 128,-1,43
 1027 200 1027 200 1028 157.5 c 128,-1,44
 1029 115 1029 115 1030 90 c 128,-1,45
 1031 65 1031 65 1033 51 c 0,46,47
 1037 25 1037 25 1045.5 15 c 128,-1,48
 1054 5 1054 5 1060 -3 c 1,49,-1
 1058 -7 l 1,50,51
 1044 -6 1044 -6 1025 -4.5 c 128,-1,52
 1006 -3 1006 -3 983.5 -2 c 128,-1,53
 961 -1 961 -1 936.5 -0.5 c 128,-1,54
 912 0 912 0 888 0 c 0,55,56
 871 0 871 0 844.5 -0.5 c 128,-1,57
 818 -1 818 -1 782 -3 c 1,58,-1
 782 542 l 2,59,60
 782 618 782 618 769.5 673.5 c 128,-1,61
 757 729 757 729 733.5 765 c 128,-1,62
 710 801 710 801 677.5 818 c 128,-1,63
 645 835 645 835 606 835 c 0,64,65
 543 835 543 835 487 798 c 128,-1,66
 431 761 431 761 385 689 c 1,67,-1
 385 128 l 2,68,69
 385 83 385 83 386.5 54 c 128,-1,70
 388 25 388 25 393 0 c 1,71,-1
 140 0 l 1,72,-1
 140 1045 l 1,30,-1
EndSplineSet
EndChar

StartChar: circumflex
Encoding: 710 710 152
Width: 900
Flags: W
LayerCount: 2
Fore
SplineSet
75 1188 m 1,0,-1
 317 1519 l 1,1,2
 324 1518 324 1518 340 1517.5 c 128,-1,3
 356 1517 356 1517 374 1516.5 c 128,-1,4
 392 1516 392 1516 408.5 1516 c 128,-1,5
 425 1516 425 1516 434 1516 c 0,6,7
 442 1516 442 1516 459.5 1516.5 c 128,-1,8
 477 1517 477 1517 496.5 1517.5 c 128,-1,9
 516 1518 516 1518 532.5 1518.5 c 128,-1,10
 549 1519 549 1519 555 1519 c 1,11,-1
 810 1188 l 1,12,-1
 806 1185 l 1,13,14
 791 1185 791 1185 763 1185.5 c 128,-1,15
 735 1186 735 1186 700 1186.5 c 128,-1,16
 665 1187 665 1187 626 1187.5 c 128,-1,17
 587 1188 587 1188 551 1188 c 1,18,-1
 438 1365 l 1,19,-1
 341 1188 l 1,20,21
 248 1188 248 1188 179 1187.5 c 128,-1,22
 110 1187 110 1187 78 1185 c 1,23,-1
 75 1188 l 1,0,-1
EndSplineSet
EndChar

StartChar: cedilla
Encoding: 184 184 153
Width: 717
Flags: W
LayerCount: 2
Fore
SplineSet
457 40 m 1,0,1
 461 12 461 12 464 -11 c 128,-1,2
 467 -34 467 -34 469 -55 c 128,-1,3
 471 -76 471 -76 472 -96 c 128,-1,4
 473 -116 473 -116 473 -138 c 0,5,6
 473 -235 473 -235 450.5 -290 c 128,-1,7
 428 -345 428 -345 399 -362 c 0,8,9
 388 -369 388 -369 373 -376.5 c 128,-1,10
 358 -384 358 -384 333.5 -393 c 128,-1,11
 309 -402 309 -402 273 -411.5 c 128,-1,12
 237 -421 237 -421 184 -432 c 1,13,-1
 178 -426 l 1,14,15
 197 -399 197 -399 210.5 -348 c 128,-1,16
 224 -297 224 -297 232 -236.5 c 128,-1,17
 240 -176 240 -176 244 -113.5 c 128,-1,18
 248 -51 248 -51 248 0 c 1,19,-1
 457 40 l 1,0,1
EndSplineSet
EndChar

StartChar: macron
Encoding: 175 175 154
Width: 885
Flags: W
LayerCount: 2
Fore
SplineSet
105 1190 m 1,0,1
 109 1221 109 1221 111 1240 c 128,-1,2
 113 1259 113 1259 113 1276 c 0,3,4
 113 1305 113 1305 111 1333 c 128,-1,5
 109 1361 109 1361 107 1380 c 1,6,-1
 780 1380 l 1,7,8
 778 1355 778 1355 777 1333.5 c 128,-1,9
 776 1312 776 1312 776 1284 c 0,10,11
 776 1268 776 1268 776 1256.5 c 128,-1,12
 776 1245 776 1245 776.5 1234.5 c 128,-1,13
 777 1224 777 1224 778 1213.5 c 128,-1,14
 779 1203 779 1203 780 1190 c 1,15,-1
 105 1190 l 1,0,1
EndSplineSet
EndChar

StartChar: ecircumflex
Encoding: 234 234 155
Width: 1170
Flags: W
LayerCount: 2
Fore
SplineSet
210 1188 m 1,0,-1
 452 1519 l 1,1,2
 459 1518 459 1518 475 1517.5 c 128,-1,3
 491 1517 491 1517 509 1516.5 c 128,-1,4
 527 1516 527 1516 543.5 1516 c 128,-1,5
 560 1516 560 1516 569 1516 c 0,6,7
 577 1516 577 1516 594.5 1516.5 c 128,-1,8
 612 1517 612 1517 631.5 1517.5 c 128,-1,9
 651 1518 651 1518 667.5 1518.5 c 128,-1,10
 684 1519 684 1519 690 1519 c 1,11,-1
 945 1188 l 1,12,-1
 941 1185 l 1,13,14
 926 1185 926 1185 898 1185.5 c 128,-1,15
 870 1186 870 1186 835 1186.5 c 128,-1,16
 800 1187 800 1187 761 1187.5 c 128,-1,17
 722 1188 722 1188 686 1188 c 1,18,-1
 573 1365 l 1,19,-1
 476 1188 l 1,20,21
 383 1188 383 1188 314 1187.5 c 128,-1,22
 245 1187 245 1187 213 1185 c 1,23,-1
 210 1188 l 1,0,-1
70 516 m 0,24,25
 70 631 70 631 110 731 c 128,-1,26
 150 831 150 831 223 905.5 c 128,-1,27
 296 980 296 980 399.5 1022.5 c 128,-1,28
 503 1065 503 1065 631 1065 c 0,29,30
 739 1065 739 1065 826 1027.5 c 128,-1,31
 913 990 913 990 973.5 924.5 c 128,-1,32
 1034 859 1034 859 1067 771 c 128,-1,33
 1100 683 1100 683 1100 582 c 0,34,35
 1100 544 1100 544 1096.5 515 c 128,-1,36
 1093 486 1093 486 1088 474 c 1,37,38
 1063 467 1063 467 1022.5 461.5 c 128,-1,39
 982 456 982 456 929.5 452.5 c 128,-1,40
 877 449 877 449 814 447.5 c 128,-1,41
 751 446 751 446 681 446 c 0,42,43
 646 446 646 446 598.5 446 c 128,-1,44
 551 446 551 446 502.5 446.5 c 128,-1,45
 454 447 454 447 408.5 447 c 128,-1,46
 363 447 363 447 332 447 c 1,47,48
 358 338 358 338 451 279 c 128,-1,49
 544 220 544 220 697 220 c 0,50,51
 755 220 755 220 806 230 c 128,-1,52
 857 240 857 240 898 255 c 128,-1,53
 939 270 939 270 969 286.5 c 128,-1,54
 999 303 999 303 1014 316 c 1,55,56
 1012 267 1012 267 1009 208 c 128,-1,57
 1006 149 1006 149 999 63 c 1,58,59
 974 46 974 46 934.5 32 c 128,-1,60
 895 18 895 18 848.5 7.5 c 128,-1,61
 802 -3 802 -3 752.5 -9 c 128,-1,62
 703 -15 703 -15 657 -15 c 0,63,64
 531 -15 531 -15 423.5 24 c 128,-1,65
 316 63 316 63 237.5 133 c 128,-1,66
 159 203 159 203 114.5 300.5 c 128,-1,67
 70 398 70 398 70 516 c 0,24,25
342 657 m 1,68,69
 366 655 366 655 400 654 c 128,-1,70
 434 653 434 653 470 653 c 128,-1,71
 506 653 506 653 539 653 c 128,-1,72
 572 653 572 653 593 653 c 0,73,74
 616 653 616 653 647.5 653.5 c 128,-1,75
 679 654 679 654 713 654.5 c 128,-1,76
 747 655 747 655 779.5 656.5 c 128,-1,77
 812 658 812 658 838 660 c 1,78,79
 820 753 820 753 763.5 804 c 128,-1,80
 707 855 707 855 600 855 c 0,81,82
 553 855 553 855 512 840.5 c 128,-1,83
 471 826 471 826 438 800 c 128,-1,84
 405 774 405 774 380.5 737.5 c 128,-1,85
 356 701 356 701 342 657 c 1,68,69
EndSplineSet
EndChar

StartChar: ccedilla
Encoding: 231 231 156
Width: 1059
Flags: W
LayerCount: 2
Fore
SplineSet
489 0 m 1,0,1
 400 20 400 20 325 65 c 128,-1,2
 250 110 250 110 195.5 175 c 128,-1,3
 141 240 141 240 110.5 324 c 128,-1,4
 80 408 80 408 80 506 c 0,5,6
 80 614 80 614 120.5 715 c 128,-1,7
 161 816 161 816 237 894 c 128,-1,8
 313 972 313 972 421 1018.5 c 128,-1,9
 529 1065 529 1065 664 1065 c 0,10,11
 761 1065 761 1065 838 1042.5 c 128,-1,12
 915 1020 915 1020 984 975 c 1,13,-1
 944 709 l 1,14,-1
 937 710 l 1,15,16
 888 770 888 770 813.5 802.5 c 128,-1,17
 739 835 739 835 630 835 c 0,18,19
 568 835 568 835 512.5 813 c 128,-1,20
 457 791 457 791 415.5 752 c 128,-1,21
 374 713 374 713 349.5 658.5 c 128,-1,22
 325 604 325 604 325 540 c 0,23,24
 325 468 325 468 350.5 409 c 128,-1,25
 376 350 376 350 421.5 308 c 128,-1,26
 467 266 467 266 530 243 c 128,-1,27
 593 220 593 220 669 220 c 0,28,29
 718 220 718 220 763.5 231.5 c 128,-1,30
 809 243 809 243 846.5 264.5 c 128,-1,31
 884 286 884 286 913 316 c 128,-1,32
 942 346 942 346 959 384 c 1,33,-1
 966 381 l 1,34,-1
 989 107 l 1,35,36
 929 61 929 61 858.5 30.5 c 128,-1,37
 788 0 788 0 703 -10 c 1,38,39
 708 -46 708 -46 710 -76 c 128,-1,40
 712 -106 712 -106 712 -138 c 0,41,42
 712 -235 712 -235 689.5 -290 c 128,-1,43
 667 -345 667 -345 638 -362 c 0,44,45
 627 -369 627 -369 612 -376.5 c 128,-1,46
 597 -384 597 -384 572.5 -393 c 128,-1,47
 548 -402 548 -402 512 -411.5 c 128,-1,48
 476 -421 476 -421 423 -432 c 1,49,-1
 417 -426 l 1,50,51
 436 -399 436 -399 449.5 -348 c 128,-1,52
 463 -297 463 -297 471 -236.5 c 128,-1,53
 479 -176 479 -176 483 -113.5 c 128,-1,54
 487 -51 487 -51 487 0 c 1,55,-1
 489 0 l 1,0,1
EndSplineSet
EndChar

